STARTFONT 2.1
COMMENT
COMMENT Converted from OpenType font "ChivoMono-Regular.ttf" by "otf2bdf 3.0".
COMMENT
FONT -FreeType-chivo mono-Medium-R-Normal--28-200-100-100-P-132-ISO10646-1
SIZE 20 100 100
FONTBOUNDINGBOX 20 40 -1 -9
STARTPROPERTIES 19
FOUNDRY "FreeType"
FAMILY_NAME "chivo mono"
WEIGHT_NAME "Medium"
SLANT "R"
SETWIDTH_NAME "Normal"
ADD_STYLE_NAME ""
PIXEL_SIZE 28
POINT_SIZE 200
RESOLUTION_X 100
RESOLUTION_Y 100
SPACING "P"
AVERAGE_WIDTH 132
CHARSET_REGISTRY "ISO10646"
CHARSET_ENCODING "1"
FONT_ASCENT 26
FONT_DESCENT 7
COPYRIGHT "Copyright 2018 The Chivo Project Authors (https://github.com/Omnibus-Type/Chivo)"
_OTF_FONTFILE "ChivoMono-Regular.ttf"
_OTF_PSNAME "ChivoMono-Regular"
ENDPROPERTIES
CHARS 642
STARTCHAR 000D
ENCODING 13
SWIDTH 612 0
DWIDTH 17 0
BBX 0 0 0 0
BITMAP
ENDCHAR
STARTCHAR 0020
ENCODING 32
SWIDTH 612 0
DWIDTH 17 0
BBX 0 0 0 0
BITMAP
ENDCHAR
STARTCHAR 0021
ENCODING 33
SWIDTH 612 0
DWIDTH 17 0
BBX 3 19 7 0
BITMAP
E0
E0
E0
E0
E0
E0
E0
E0
E0
E0
E0
C0
C0
C0
00
00
E0
E0
E0
ENDCHAR
STARTCHAR 0022
ENCODING 34
SWIDTH 612 0
DWIDTH 17 0
BBX 7 8 5 11
BITMAP
CE
CE
CE
CE
CE
CC
C4
44
ENDCHAR
STARTCHAR 0023
ENCODING 35
SWIDTH 612 0
DWIDTH 17 0
BBX 16 19 0 0
BITMAP
0386
030E
030C
030C
070C
7FFF
7FFF
7FFF
0E18
0C18
0C38
0C30
FFFE
FFFE
1870
1860
1860
3860
30E0
ENDCHAR
STARTCHAR 0024
ENCODING 36
SWIDTH 612 0
DWIDTH 17 0
BBX 14 23 1 -2
BITMAP
0300
0300
07C0
1FF0
3EF8
701C
701C
701C
7000
7E00
3FE0
0FF8
00FC
001C
001C
E00C
E01C
703C
7FF8
1FF0
0300
0300
0300
ENDCHAR
STARTCHAR 0025
ENCODING 37
SWIDTH 612 0
DWIDTH 17 0
BBX 17 19 0 0
BITMAP
780380
EC0600
C60600
C60C00
C61800
C61000
C63000
C66000
7C0000
100E00
003F00
033100
063180
0C3180
083180
183180
303180
603F00
E01E00
ENDCHAR
STARTCHAR 0026
ENCODING 38
SWIDTH 612 0
DWIDTH 17 0
BBX 16 19 1 0
BITMAP
0F80
3F80
7800
7000
7018
7018
7018
3818
1FFF
1FFF
3C38
7038
6038
E038
E038
7038
7838
3FF8
0FF8
ENDCHAR
STARTCHAR 0027
ENCODING 39
SWIDTH 612 0
DWIDTH 17 0
BBX 3 8 7 11
BITMAP
E0
E0
E0
E0
C0
C0
40
40
ENDCHAR
STARTCHAR 0028
ENCODING 40
SWIDTH 612 0
DWIDTH 17 0
BBX 6 23 6 -4
BITMAP
0C
18
38
30
70
60
60
E0
E0
C0
C0
C0
C0
C0
E0
E0
60
60
70
30
30
18
0C
ENDCHAR
STARTCHAR 0029
ENCODING 41
SWIDTH 612 0
DWIDTH 17 0
BBX 6 23 5 -4
BITMAP
C0
60
60
30
30
38
18
18
18
1C
1C
1C
1C
1C
1C
18
18
38
30
30
60
60
C0
ENDCHAR
STARTCHAR 002A
ENCODING 42
SWIDTH 612 0
DWIDTH 17 0
BBX 11 11 3 8
BITMAP
0E00
0C00
0C00
C460
F7E0
3F00
0E00
1B00
3380
71C0
2100
ENDCHAR
STARTCHAR 002B
ENCODING 43
SWIDTH 612 0
DWIDTH 17 0
BBX 14 14 1 0
BITMAP
0380
0380
0380
0380
0380
0380
FFFC
FFFC
0380
0380
0380
0380
0380
0380
ENDCHAR
STARTCHAR 002C
ENCODING 44
SWIDTH 612 0
DWIDTH 17 0
BBX 3 8 7 -4
BITMAP
E0
E0
E0
E0
60
60
C0
C0
ENDCHAR
STARTCHAR 002D
ENCODING 45
SWIDTH 612 0
DWIDTH 17 0
BBX 7 3 5 6
BITMAP
FE
FE
FE
ENDCHAR
STARTCHAR 002E
ENCODING 46
SWIDTH 612 0
DWIDTH 17 0
BBX 3 3 7 0
BITMAP
E0
E0
E0
ENDCHAR
STARTCHAR 002F
ENCODING 47
SWIDTH 612 0
DWIDTH 17 0
BBX 16 24 0 -5
BITMAP
0003
0006
000E
000C
001C
0018
0038
0030
0060
00E0
00C0
01C0
0180
0380
0300
0600
0600
0C00
1C00
1800
3800
3000
7000
E000
ENDCHAR
STARTCHAR 0030
ENCODING 48
SWIDTH 612 0
DWIDTH 17 0
BBX 13 19 2 0
BITMAP
1FC0
3FE0
70F0
E070
E038
E038
E038
E038
E038
E038
E038
E038
E038
E038
E038
E070
70F0
3FE0
1FC0
ENDCHAR
STARTCHAR 0031
ENCODING 49
SWIDTH 612 0
DWIDTH 17 0
BBX 13 19 2 0
BITMAP
0700
FF00
FF00
0700
0700
0700
0700
0700
0700
0700
0700
0700
0700
0700
0700
0700
0700
FFF8
FFF8
ENDCHAR
STARTCHAR 0032
ENCODING 50
SWIDTH 612 0
DWIDTH 17 0
BBX 13 19 2 0
BITMAP
1FC0
3FE0
7070
E038
E038
C038
E038
0038
0070
00E0
03C0
0780
1F00
3C00
7800
E000
E000
FFF8
FFF8
ENDCHAR
STARTCHAR 0033
ENCODING 51
SWIDTH 612 0
DWIDTH 17 0
BBX 14 19 1 0
BITMAP
1FE0
3FF0
7878
7038
601C
0018
0038
0038
07F0
07E0
00F8
0038
001C
E01C
E01C
601C
7878
3FF0
1FE0
ENDCHAR
STARTCHAR 0034
ENCODING 52
SWIDTH 612 0
DWIDTH 17 0
BBX 14 19 1 0
BITMAP
0380
0700
0700
0E30
0E30
0C70
1C70
1870
3870
7070
6070
E070
FFFC
FFFC
0070
0070
0070
0070
0070
ENDCHAR
STARTCHAR 0035
ENCODING 53
SWIDTH 612 0
DWIDTH 17 0
BBX 13 19 2 0
BITMAP
7FF0
7FF0
7FF0
6000
6000
6000
6000
6FC0
7FE0
F070
6038
0038
0038
C038
E038
E078
70F0
3FE0
1FC0
ENDCHAR
STARTCHAR 0036
ENCODING 54
SWIDTH 612 0
DWIDTH 17 0
BBX 13 19 2 0
BITMAP
1FC0
3FE0
7870
F030
E038
E038
E000
E7C0
FFE0
F870
F038
E038
E038
E038
E038
E038
7870
3FE0
1FC0
ENDCHAR
STARTCHAR 0037
ENCODING 55
SWIDTH 612 0
DWIDTH 17 0
BBX 13 19 2 0
BITMAP
FFF8
FFF8
FFF0
0070
00E0
00C0
01C0
0380
0380
0700
0700
0E00
0E00
0E00
1C00
1C00
1C00
1C00
1C00
ENDCHAR
STARTCHAR 0038
ENCODING 56
SWIDTH 612 0
DWIDTH 17 0
BBX 13 19 2 0
BITMAP
1FC0
3FE0
7070
E070
E030
E030
E070
7070
3FE0
3FC0
78F0
E038
E038
E038
E038
E038
F070
7FF0
3FC0
ENDCHAR
STARTCHAR 0039
ENCODING 57
SWIDTH 612 0
DWIDTH 17 0
BBX 14 19 1 0
BITMAP
0FE0
3FF0
7878
7038
601C
E01C
E01C
601C
703C
787C
3FDC
0F9C
001C
601C
701C
7038
3878
3FF0
0FC0
ENDCHAR
STARTCHAR 003A
ENCODING 58
SWIDTH 612 0
DWIDTH 17 0
BBX 3 14 7 0
BITMAP
E0
E0
E0
00
00
00
00
00
00
00
00
E0
E0
E0
ENDCHAR
STARTCHAR 003B
ENCODING 59
SWIDTH 612 0
DWIDTH 17 0
BBX 3 18 7 -4
BITMAP
E0
E0
E0
00
00
00
00
00
00
00
E0
E0
E0
E0
60
60
C0
C0
ENDCHAR
STARTCHAR 003C
ENCODING 60
SWIDTH 612 0
DWIDTH 17 0
BBX 14 14 1 0
BITMAP
0004
003C
00FC
07E0
1F80
FC00
E000
F000
FC00
1F80
07F0
00FC
001C
0004
ENDCHAR
STARTCHAR 003D
ENCODING 61
SWIDTH 612 0
DWIDTH 17 0
BBX 14 8 1 3
BITMAP
FFFC
FFFC
0000
0000
0000
0000
FFFC
FFFC
ENDCHAR
STARTCHAR 003E
ENCODING 62
SWIDTH 612 0
DWIDTH 17 0
BBX 14 14 2 0
BITMAP
8000
E000
FC00
3F80
07E0
00FC
003C
003C
01F8
07E0
3F00
FC00
E000
8000
ENDCHAR
STARTCHAR 003F
ENCODING 63
SWIDTH 612 0
DWIDTH 17 0
BBX 12 19 2 0
BITMAP
1FC0
3FE0
70F0
6070
E070
E070
0070
0070
00E0
03C0
0380
0700
0700
0700
0000
0000
0700
0700
0700
ENDCHAR
STARTCHAR 0040
ENCODING 64
SWIDTH 612 0
DWIDTH 17 0
BBX 17 23 0 -4
BITMAP
07F000
1C1C00
380600
300600
600300
67E300
4F7100
CE3900
CC3980
C03980
C03980
C3F980
CFB980
CE3980
CC3900
CC3900
CC7B00
4FDF00
67DE00
600000
300000
1C0800
0FF800
ENDCHAR
STARTCHAR 0041
ENCODING 65
SWIDTH 612 0
DWIDTH 17 0
BBX 16 19 0 0
BITMAP
03C0
03E0
03E0
07E0
0770
0670
0E70
0E38
0C38
1C38
1C1C
1C1C
3FFC
3FFE
3FFE
700E
7006
7007
E007
ENDCHAR
STARTCHAR 0042
ENCODING 66
SWIDTH 612 0
DWIDTH 17 0
BBX 13 19 2 0
BITMAP
FFE0
FFF0
E078
E038
E038
E038
E038
E070
FFE0
FFE0
E0F0
E038
E038
E018
E038
E038
E0F8
FFF0
FFC0
ENDCHAR
STARTCHAR 0043
ENCODING 67
SWIDTH 612 0
DWIDTH 17 0
BBX 14 19 1 0
BITMAP
1FE0
3FF8
7838
701C
E01C
E01C
E00C
E000
E000
E000
E000
E000
E00C
E00C
E01C
701C
7838
3FF0
0FE0
ENDCHAR
STARTCHAR 0044
ENCODING 68
SWIDTH 612 0
DWIDTH 17 0
BBX 14 19 2 0
BITMAP
FFC0
FFF0
E0F8
E038
E01C
E01C
E01C
E01C
E01C
E01C
E01C
E01C
E01C
E01C
E01C
E038
E1F8
FFF0
FFC0
ENDCHAR
STARTCHAR 0045
ENCODING 69
SWIDTH 612 0
DWIDTH 17 0
BBX 13 19 2 0
BITMAP
FFF8
FFF8
E000
E000
E000
E000
E000
E000
FFF0
FFF0
E000
E000
E000
E000
E000
E000
E000
FFF8
FFF8
ENDCHAR
STARTCHAR 0046
ENCODING 70
SWIDTH 612 0
DWIDTH 17 0
BBX 12 19 2 0
BITMAP
FFF0
FFF0
E000
E000
E000
E000
E000
E000
FFE0
FFE0
FFE0
E000
E000
E000
E000
E000
E000
E000
E000
ENDCHAR
STARTCHAR 0047
ENCODING 71
SWIDTH 612 0
DWIDTH 17 0
BBX 15 19 1 0
BITMAP
1FE0
3FF8
7838
701C
E01C
E00C
E00C
E000
E000
E1FC
E1FC
E00C
E00C
E00C
E01C
701C
783C
3FF4
1FC6
ENDCHAR
STARTCHAR 0048
ENCODING 72
SWIDTH 612 0
DWIDTH 17 0
BBX 13 19 2 0
BITMAP
E038
E038
E038
E038
E038
E038
E038
E038
FFF8
FFF8
E038
E038
E038
E038
E038
E038
E038
E038
E038
ENDCHAR
STARTCHAR 0049
ENCODING 73
SWIDTH 612 0
DWIDTH 17 0
BBX 11 19 3 0
BITMAP
FFE0
FFE0
0E00
0E00
0E00
0E00
0E00
0E00
0E00
0E00
0E00
0E00
0E00
0E00
0E00
0E00
0E00
FFE0
FFE0
ENDCHAR
STARTCHAR 004A
ENCODING 74
SWIDTH 612 0
DWIDTH 17 0
BBX 11 19 3 0
BITMAP
00E0
00E0
00E0
00E0
00E0
00E0
00E0
00E0
00E0
00E0
00E0
00E0
00E0
C0E0
C0E0
E0E0
E1E0
7FC0
3F80
ENDCHAR
STARTCHAR 004B
ENCODING 75
SWIDTH 612 0
DWIDTH 17 0
BBX 14 19 2 0
BITMAP
E03C
E038
E070
E0E0
E1E0
E1C0
E380
E700
EF00
EF00
FF80
FB80
F1C0
E1E0
E0E0
E070
E078
E038
E01C
ENDCHAR
STARTCHAR 004C
ENCODING 76
SWIDTH 612 0
DWIDTH 17 0
BBX 12 19 3 0
BITMAP
E000
E000
E000
E000
E000
E000
E000
E000
E000
E000
E000
E000
E000
E000
E000
E000
E000
FFF0
FFF0
ENDCHAR
STARTCHAR 004D
ENCODING 77
SWIDTH 612 0
DWIDTH 17 0
BBX 13 19 2 0
BITMAP
F078
F078
F078
F0F8
F0F8
D8F8
D8F8
D8F8
D8B8
D9B8
D9B8
CDB8
CDB8
CD38
CF38
CF38
CF38
C738
C738
ENDCHAR
STARTCHAR 004E
ENCODING 78
SWIDTH 612 0
DWIDTH 17 0
BBX 13 19 2 0
BITMAP
E038
F038
F038
F838
F838
FC38
FC38
EE38
EE38
E738
E738
E3B8
E3B8
E1F8
E1F8
E0F8
E0F8
E078
E078
ENDCHAR
STARTCHAR 004F
ENCODING 79
SWIDTH 612 0
DWIDTH 17 0
BBX 15 19 1 0
BITMAP
1FE0
3FF8
7838
701C
E01C
E01C
E00E
E00E
E00E
E00E
E00E
E00E
E00E
E01C
E01C
701C
7878
3FF0
0FE0
ENDCHAR
STARTCHAR 0050
ENCODING 80
SWIDTH 612 0
DWIDTH 17 0
BBX 14 19 2 0
BITMAP
FFE0
FFF0
E078
E03C
E01C
E01C
E01C
E03C
E0F8
FFF0
FFE0
E000
E000
E000
E000
E000
E000
E000
E000
ENDCHAR
STARTCHAR 0051
ENCODING 81
SWIDTH 612 0
DWIDTH 17 0
BBX 15 23 1 -4
BITMAP
1FE0
3FF8
7838
701C
E01C
E01C
E00E
E00E
E00E
E00E
E00E
E00E
E00E
E01C
E01C
701C
7878
3FF0
0FE0
0380
01C2
01FE
007C
ENDCHAR
STARTCHAR 0052
ENCODING 82
SWIDTH 612 0
DWIDTH 17 0
BBX 15 19 2 0
BITMAP
FFE0
FFF0
E078
E038
E01C
E01C
E018
E038
E0F0
FFE0
FFF0
E078
E038
E038
E038
E038
E038
E01C
E01E
ENDCHAR
STARTCHAR 0053
ENCODING 83
SWIDTH 612 0
DWIDTH 17 0
BBX 15 19 1 0
BITMAP
1FE0
3FF8
783C
701C
601C
7000
7000
7E00
3FE0
0FF8
01FC
003C
001E
E00E
E00E
E01C
783C
3FF8
1FE0
ENDCHAR
STARTCHAR 0054
ENCODING 84
SWIDTH 612 0
DWIDTH 17 0
BBX 15 19 1 0
BITMAP
FFFE
FFFE
0380
0380
0380
0380
0380
0380
0380
0380
0380
0380
0380
0380
0380
0380
0380
0380
0380
ENDCHAR
STARTCHAR 0055
ENCODING 85
SWIDTH 612 0
DWIDTH 17 0
BBX 13 19 2 0
BITMAP
E038
E038
E038
E038
E038
E038
E038
E038
E038
E038
E038
E038
E038
E038
E038
E078
70F0
7FE0
1FC0
ENDCHAR
STARTCHAR 0056
ENCODING 86
SWIDTH 612 0
DWIDTH 17 0
BBX 16 19 0 0
BITMAP
F007
7007
7006
300E
380E
380E
181C
1C1C
1C1C
1C18
0E38
0E38
0E30
0770
0770
0760
03E0
03E0
03C0
ENDCHAR
STARTCHAR 0057
ENCODING 87
SWIDTH 612 0
DWIDTH 17 0
BBX 17 19 0 0
BITMAP
E1C380
E1C300
E1C300
61C300
61C300
73E700
736700
736700
736600
736600
326600
3E7E00
3E3E00
3E3E00
3E3C00
3E3C00
1E3C00
1C3C00
1C3C00
ENDCHAR
STARTCHAR 0058
ENCODING 88
SWIDTH 612 0
DWIDTH 17 0
BBX 16 19 0 0
BITMAP
780F
380E
3C1C
1C1C
0E38
0F70
0770
03E0
03E0
03E0
03E0
07F0
0E70
0E38
1C3C
381C
381E
700E
F007
ENDCHAR
STARTCHAR 0059
ENCODING 89
SWIDTH 612 0
DWIDTH 17 0
BBX 16 19 0 0
BITMAP
F007
780E
380E
3C1C
1C1C
1E38
0E38
0770
0770
03E0
03E0
01C0
01C0
01C0
01C0
01C0
01C0
01C0
01C0
ENDCHAR
STARTCHAR 005A
ENCODING 90
SWIDTH 612 0
DWIDTH 17 0
BBX 15 19 1 0
BITMAP
7FFC
7FFC
0038
0078
0070
00E0
01E0
01C0
03C0
0380
0700
0F00
0E00
1C00
3C00
3800
7000
FFFE
FFFE
ENDCHAR
STARTCHAR 005B
ENCODING 91
SWIDTH 612 0
DWIDTH 17 0
BBX 5 23 7 -4
BITMAP
F8
C0
C0
C0
C0
C0
C0
C0
C0
C0
C0
C0
C0
C0
C0
C0
C0
C0
C0
C0
C0
C0
F8
ENDCHAR
STARTCHAR 005C
ENCODING 92
SWIDTH 612 0
DWIDTH 17 0
BBX 16 24 0 -5
BITMAP
E000
7000
3000
3800
1800
0C00
0C00
0600
0700
0300
0380
0180
00C0
00C0
0060
0070
0030
0038
0018
001C
000C
0006
0007
0003
ENDCHAR
STARTCHAR 005D
ENCODING 93
SWIDTH 612 0
DWIDTH 17 0
BBX 6 23 4 -4
BITMAP
FC
1C
1C
1C
1C
1C
1C
1C
1C
1C
1C
1C
1C
1C
1C
1C
1C
1C
1C
1C
1C
1C
FC
ENDCHAR
STARTCHAR 005E
ENCODING 94
SWIDTH 612 0
DWIDTH 17 0
BBX 14 14 1 0
BITMAP
0380
0780
07C0
0EC0
0CE0
0C60
1C60
1870
3830
3838
3018
7018
601C
E00C
ENDCHAR
STARTCHAR 005F
ENCODING 95
SWIDTH 612 0
DWIDTH 17 0
BBX 14 2 1 -4
BITMAP
FFFC
FFFC
ENDCHAR
STARTCHAR 0060
ENCODING 96
SWIDTH 612 0
DWIDTH 17 0
BBX 5 5 6 16
BITMAP
E0
60
70
30
18
ENDCHAR
STARTCHAR 0061
ENCODING 97
SWIDTH 612 0
DWIDTH 17 0
BBX 14 14 2 0
BITMAP
3FC0
7FE0
E070
E070
0070
0070
3FF0
7C70
E070
E070
E0F0
E0F0
FFFC
7F3C
ENDCHAR
STARTCHAR 0062
ENCODING 98
SWIDTH 612 0
DWIDTH 17 0
BBX 12 20 3 0
BITMAP
C000
C000
C000
C000
C000
C000
DFC0
FFE0
E0E0
E070
C070
C070
C070
C070
C070
E070
E070
F0E0
FFC0
DF80
ENDCHAR
STARTCHAR 0063
ENCODING 99
SWIDTH 612 0
DWIDTH 17 0
BBX 12 14 2 0
BITMAP
1FC0
3FE0
7070
E070
E030
E000
E000
E000
E030
E030
E070
7070
3FE0
1FC0
ENDCHAR
STARTCHAR 0064
ENCODING 100
SWIDTH 612 0
DWIDTH 17 0
BBX 12 20 2 0
BITMAP
0070
0070
0070
0070
0070
0070
3F70
7FF0
F0F0
E070
E070
C070
C070
C070
C070
E070
E070
F0F0
7FB0
3F30
ENDCHAR
STARTCHAR 0065
ENCODING 101
SWIDTH 612 0
DWIDTH 17 0
BBX 13 14 2 0
BITMAP
1FC0
3FE0
7070
E030
E038
E038
FFF8
E000
E000
E038
E030
7070
3FE0
1FC0
ENDCHAR
STARTCHAR 0066
ENCODING 102
SWIDTH 612 0
DWIDTH 17 0
BBX 13 20 2 0
BITMAP
01F8
07F8
0700
0E00
0E00
0E00
FFF8
FFF8
0E00
0E00
0E00
0E00
0E00
0E00
0E00
0E00
0E00
0E00
FFF8
FFF8
ENDCHAR
STARTCHAR 0067
ENCODING 103
SWIDTH 612 0
DWIDTH 17 0
BBX 15 22 1 -5
BITMAP
0006
000E
001C
1FF8
3C78
3838
3018
3018
3838
3C78
1FF0
3F00
7000
7000
7FE0
3FFC
7FFC
600E
E00E
E00E
7FFC
3FF8
ENDCHAR
STARTCHAR 0068
ENCODING 104
SWIDTH 612 0
DWIDTH 17 0
BBX 12 20 2 0
BITMAP
E000
E000
E000
E000
E000
E000
EFE0
FFF0
F070
F070
E030
E030
E030
E030
E030
E030
E030
E030
E030
E030
ENDCHAR
STARTCHAR 0069
ENCODING 105
SWIDTH 612 0
DWIDTH 17 0
BBX 12 20 3 0
BITMAP
0600
0600
0600
0000
0000
0000
FF00
FF00
0700
0700
0700
0700
0700
0700
0700
0700
0700
0700
FFF0
FFF0
ENDCHAR
STARTCHAR 006A
ENCODING 106
SWIDTH 612 0
DWIDTH 17 0
BBX 8 25 3 -5
BITMAP
06
06
06
00
00
00
FF
FF
07
07
07
07
07
07
07
07
07
07
07
07
07
06
8E
FE
FC
ENDCHAR
STARTCHAR 006B
ENCODING 107
SWIDTH 612 0
DWIDTH 17 0
BBX 13 20 2 0
BITMAP
E000
E000
E000
E000
E000
E008
E070
E0E0
E1E0
E3C0
E380
E700
EE00
FF00
FF80
F3C0
E1C0
E0E0
E070
E078
ENDCHAR
STARTCHAR 006C
ENCODING 108
SWIDTH 612 0
DWIDTH 17 0
BBX 13 20 2 0
BITMAP
FF00
FF00
0700
0700
0700
0700
0700
0700
0700
0700
0700
0700
0700
0700
0700
0700
0700
0700
FFF8
FFF8
ENDCHAR
STARTCHAR 006D
ENCODING 109
SWIDTH 612 0
DWIDTH 17 0
BBX 14 14 1 0
BITMAP
DE78
FFFC
E38C
E38C
E38C
E38C
E38C
E38C
E38C
E38C
E38C
E38C
E38C
E38C
ENDCHAR
STARTCHAR 006E
ENCODING 110
SWIDTH 612 0
DWIDTH 17 0
BBX 12 14 2 0
BITMAP
EFE0
FFF0
F070
F070
E030
E030
E030
E030
E030
E030
E030
E030
E030
E030
ENDCHAR
STARTCHAR 006F
ENCODING 111
SWIDTH 612 0
DWIDTH 17 0
BBX 13 14 2 0
BITMAP
1FC0
7FE0
7070
E070
E038
E038
E038
E038
E038
E038
E070
7070
3FE0
1FC0
ENDCHAR
STARTCHAR 0070
ENCODING 112
SWIDTH 612 0
DWIDTH 17 0
BBX 12 19 3 -5
BITMAP
DFC0
FFE0
E0E0
E070
C070
C070
C070
C070
C070
E070
E070
F0E0
FFC0
DF80
C000
C000
C000
C000
C000
ENDCHAR
STARTCHAR 0071
ENCODING 113
SWIDTH 612 0
DWIDTH 17 0
BBX 12 19 2 -5
BITMAP
3F30
7FB0
E0F0
E070
E070
C070
C070
C070
C070
E070
E070
F0F0
7FF0
3F70
0070
0070
0070
0070
0070
ENDCHAR
STARTCHAR 0072
ENCODING 114
SWIDTH 612 0
DWIDTH 17 0
BBX 15 14 1 0
BITMAP
FDF8
FFFC
0F1C
0E0E
0E0E
0E00
0E00
0E00
0E00
0E00
0E00
0E00
FFF8
FFF8
ENDCHAR
STARTCHAR 0073
ENCODING 115
SWIDTH 612 0
DWIDTH 17 0
BBX 13 14 2 0
BITMAP
3FC0
7DE0
6070
E070
7000
7E00
3FC0
0FF0
0070
0038
E038
E070
7FF0
3FC0
ENDCHAR
STARTCHAR 0074
ENCODING 116
SWIDTH 612 0
DWIDTH 17 0
BBX 14 19 1 0
BITMAP
0600
0600
0600
0600
0600
FFFC
FFFC
0E00
0E00
0E00
0E00
0E00
0E00
0E00
0E00
0600
0704
07FC
03FC
ENDCHAR
STARTCHAR 0075
ENCODING 117
SWIDTH 612 0
DWIDTH 17 0
BBX 14 14 2 0
BITMAP
E070
E070
E070
E070
E070
E070
E070
E070
E070
E070
E070
F0F0
7FBC
3F3C
ENDCHAR
STARTCHAR 0076
ENCODING 118
SWIDTH 612 0
DWIDTH 17 0
BBX 14 14 1 0
BITMAP
F01C
701C
7018
3838
3838
1870
1C70
1C60
0EE0
0EE0
0EC0
07C0
0780
0380
ENDCHAR
STARTCHAR 0077
ENCODING 119
SWIDTH 612 0
DWIDTH 17 0
BBX 17 14 0 0
BITMAP
C1C380
E1C300
61C300
636300
636700
736600
336600
366600
363E00
3E3E00
3E3C00
1E3C00
1C3C00
1C1C00
ENDCHAR
STARTCHAR 0078
ENCODING 120
SWIDTH 612 0
DWIDTH 17 0
BBX 13 14 2 0
BITMAP
F078
7070
38E0
3DC0
1DC0
0F80
0700
0F80
1F80
1DC0
38E0
70E0
7070
E038
ENDCHAR
STARTCHAR 0079
ENCODING 121
SWIDTH 612 0
DWIDTH 17 0
BBX 14 19 1 -5
BITMAP
F01C
701C
3038
3838
3830
1C70
1C70
0C60
0EE0
0EC0
07C0
07C0
0380
0380
0300
0700
0600
7E00
7C00
ENDCHAR
STARTCHAR 007A
ENCODING 122
SWIDTH 612 0
DWIDTH 17 0
BBX 11 14 3 0
BITMAP
FFE0
FFC0
0380
0380
0700
0F00
0E00
1C00
1C00
3800
7800
7000
FFE0
FFE0
ENDCHAR
STARTCHAR 007B
ENCODING 123
SWIDTH 612 0
DWIDTH 17 0
BBX 7 23 5 -5
BITMAP
0E
1C
38
38
38
30
30
30
30
30
70
E0
F0
30
30
30
30
30
30
38
38
38
1E
ENDCHAR
STARTCHAR 007C
ENCODING 124
SWIDTH 612 0
DWIDTH 17 0
BBX 2 26 7 -6
BITMAP
C0
C0
C0
C0
C0
C0
C0
C0
C0
C0
C0
C0
C0
C0
C0
C0
C0
C0
C0
C0
C0
C0
C0
C0
C0
C0
ENDCHAR
STARTCHAR 007D
ENCODING 125
SWIDTH 612 0
DWIDTH 17 0
BBX 7 23 5 -5
BITMAP
E0
70
30
30
30
30
30
30
30
38
1C
06
1E
38
30
30
30
30
30
30
30
30
F0
ENDCHAR
STARTCHAR 007E
ENCODING 126
SWIDTH 612 0
DWIDTH 17 0
BBX 16 5 0 6
BITMAP
0001
3F01
7FFF
E0FE
8038
ENDCHAR
STARTCHAR 00A0
ENCODING 160
SWIDTH 612 0
DWIDTH 17 0
BBX 0 0 0 0
BITMAP
ENDCHAR
STARTCHAR 00A1
ENCODING 161
SWIDTH 612 0
DWIDTH 17 0
BBX 3 19 7 -5
BITMAP
E0
E0
E0
00
00
C0
C0
C0
C0
E0
E0
E0
E0
E0
E0
E0
E0
E0
E0
ENDCHAR
STARTCHAR 00A2
ENCODING 162
SWIDTH 612 0
DWIDTH 17 0
BBX 13 19 2 0
BITMAP
0700
0200
0F80
3FE0
78F0
7070
E030
E038
E000
E000
E000
E038
E030
7030
38F0
1FE0
0F80
0200
0700
ENDCHAR
STARTCHAR 00A3
ENCODING 163
SWIDTH 612 0
DWIDTH 17 0
BBX 15 19 1 0
BITMAP
07F0
0FF8
1E1C
1C0C
1C0C
1C02
1C00
1C00
FFE0
FFE0
FFE0
1800
1800
1800
1800
1800
1800
FFFC
FFFC
ENDCHAR
STARTCHAR 00A4
ENCODING 164
SWIDTH 612 0
DWIDTH 17 0
BBX 14 14 1 2
BITMAP
EFCC
7FFC
3838
701C
600C
600C
C00C
C00C
600C
601C
3038
7EFC
EFEC
4104
ENDCHAR
STARTCHAR 00A5
ENCODING 165
SWIDTH 612 0
DWIDTH 17 0
BBX 16 19 0 0
BITMAP
F007
780E
380E
3C1C
1C1C
1E38
0E38
7F7F
7F7F
03E0
03E0
7FFF
01C0
01C0
01C0
01C0
01C0
01C0
01C0
ENDCHAR
STARTCHAR 00A6
ENCODING 166
SWIDTH 612 0
DWIDTH 17 0
BBX 2 26 7 -6
BITMAP
C0
C0
C0
C0
C0
C0
C0
C0
C0
C0
00
00
00
00
00
00
C0
C0
C0
C0
C0
C0
C0
C0
C0
C0
ENDCHAR
STARTCHAR 00A7
ENCODING 167
SWIDTH 612 0
DWIDTH 17 0
BBX 12 24 2 -5
BITMAP
1FC0
7FE0
7070
6030
6000
7000
7C00
1F00
3FC0
61E0
E070
E030
E030
7030
3E70
1FE0
07C0
01E0
0070
0030
6070
7070
3FE0
1FC0
ENDCHAR
STARTCHAR 00A8
ENCODING 168
SWIDTH 612 0
DWIDTH 17 0
BBX 9 3 4 17
BITMAP
E380
E380
E380
ENDCHAR
STARTCHAR 00A9
ENCODING 169
SWIDTH 612 0
DWIDTH 17 0
BBX 17 19 0 0
BITMAP
07F000
180800
300400
200200
47E300
4E3100
CC1900
8C1900
8C0100
8C0180
8C0100
8C1900
CC1900
463100
47E300
200200
300400
181800
07F000
ENDCHAR
STARTCHAR 00AA
ENCODING 170
SWIDTH 612 0
DWIDTH 17 0
BBX 9 9 4 10
BITMAP
7E00
E600
C300
1F00
7B00
C300
C700
FF80
2100
ENDCHAR
STARTCHAR 00AB
ENCODING 171
SWIDTH 612 0
DWIDTH 17 0
BBX 11 9 3 5
BITMAP
18E0
31C0
7180
E380
E700
E380
6180
31C0
38E0
ENDCHAR
STARTCHAR 00AC
ENCODING 172
SWIDTH 612 0
DWIDTH 17 0
BBX 14 8 1 5
BITMAP
FFFC
FFFC
FFFC
000C
000C
000C
000C
000C
ENDCHAR
STARTCHAR 00AD
ENCODING 173
SWIDTH 612 0
DWIDTH 17 0
BBX 7 3 5 6
BITMAP
FE
FE
FE
ENDCHAR
STARTCHAR 00AE
ENCODING 174
SWIDTH 612 0
DWIDTH 17 0
BBX 17 19 0 0
BITMAP
07F000
180800
300400
200200
4FF300
4C3100
CC1900
8C1900
8C3100
8FE180
8C3100
8C3100
CC1900
4C1900
4C1B00
200200
300400
181800
07F000
ENDCHAR
STARTCHAR 00AF
ENCODING 175
SWIDTH 612 0
DWIDTH 17 0
BBX 9 2 4 17
BITMAP
FF80
FF80
ENDCHAR
STARTCHAR 00B0
ENCODING 176
SWIDTH 612 0
DWIDTH 17 0
BBX 9 8 4 11
BITMAP
3E00
6700
C100
C180
C180
C300
7F00
3C00
ENDCHAR
STARTCHAR 00B1
ENCODING 177
SWIDTH 612 0
DWIDTH 17 0
BBX 14 14 1 0
BITMAP
0380
0380
0380
0380
FFFC
FFFC
0380
0380
0380
0380
0000
0000
FFFC
FFFC
ENDCHAR
STARTCHAR 00B2
ENCODING 178
SWIDTH 612 0
DWIDTH 17 0
BBX 7 10 5 12
BITMAP
7C
CE
86
86
0E
1C
30
60
C0
FE
ENDCHAR
STARTCHAR 00B3
ENCODING 179
SWIDTH 612 0
DWIDTH 17 0
BBX 8 11 4 11
BITMAP
3E
67
43
03
1E
1E
03
C3
63
7E
18
ENDCHAR
STARTCHAR 00B4
ENCODING 180
SWIDTH 612 0
DWIDTH 17 0
BBX 5 5 6 16
BITMAP
38
70
60
E0
C0
ENDCHAR
STARTCHAR 00B5
ENCODING 181
SWIDTH 612 0
DWIDTH 17 0
BBX 14 18 2 -4
BITMAP
E070
E070
E070
E070
E070
E070
E070
E070
E070
E070
E070
F0F0
FFBC
FF3C
E000
E000
E000
E000
ENDCHAR
STARTCHAR 00B6
ENCODING 182
SWIDTH 612 0
DWIDTH 17 0
BBX 13 24 1 -5
BITMAP
0FF8
3FF8
7E60
7E60
FE60
FE60
FE60
FE60
7E60
7E60
3E60
0E60
0260
0260
0260
0260
0260
0260
0260
0260
0260
0260
0260
0260
ENDCHAR
STARTCHAR 00B7
ENCODING 183
SWIDTH 612 0
DWIDTH 17 0
BBX 3 3 7 9
BITMAP
E0
E0
E0
ENDCHAR
STARTCHAR 00B8
ENCODING 184
SWIDTH 612 0
DWIDTH 17 0
BBX 6 5 5 -6
BITMAP
1C
0C
0C
FC
78
ENDCHAR
STARTCHAR 00B9
ENCODING 185
SWIDTH 612 0
DWIDTH 17 0
BBX 6 10 5 12
BITMAP
30
F0
30
30
30
30
30
30
30
FC
ENDCHAR
STARTCHAR 00BA
ENCODING 186
SWIDTH 612 0
DWIDTH 17 0
BBX 8 9 4 10
BITMAP
3E
63
C3
C3
C3
C3
63
3E
08
ENDCHAR
STARTCHAR 00BB
ENCODING 187
SWIDTH 612 0
DWIDTH 17 0
BBX 11 9 3 5
BITMAP
E300
6180
71C0
38C0
18E0
38C0
31C0
6180
E300
ENDCHAR
STARTCHAR 00BC
ENCODING 188
SWIDTH 612 0
DWIDTH 17 0
BBX 17 19 0 0
BITMAP
300380
F00600
100600
100C00
101800
101000
103000
106000
100000
FE0C00
001A00
031A00
063200
0C3200
086200
187F80
307F80
600200
E00200
ENDCHAR
STARTCHAR 00BD
ENCODING 189
SWIDTH 612 0
DWIDTH 17 0
BBX 17 19 0 0
BITMAP
300380
F00600
100600
100C00
101800
103000
102000
106000
100000
FE1F00
003300
036180
066180
0C0300
180700
180C00
303800
603000
C07F80
ENDCHAR
STARTCHAR 00BE
ENCODING 190
SWIDTH 612 0
DWIDTH 17 0
BBX 17 19 0 0
BITMAP
7C0380
E60600
C20600
060C00
3C1800
3E1000
023000
C36000
C60000
7E0C00
101A00
031A00
063200
0C3200
086200
187F80
307F80
600200
E00200
ENDCHAR
STARTCHAR 00BF
ENCODING 191
SWIDTH 612 0
DWIDTH 17 0
BBX 12 19 2 -5
BITMAP
0F00
0F00
0F00
0000
0000
0600
0600
0E00
0E00
3C00
7800
7000
E000
E030
E030
7070
70F0
3FE0
1F80
ENDCHAR
STARTCHAR 00C0
ENCODING 192
SWIDTH 612 0
DWIDTH 17 0
BBX 16 25 0 0
BITMAP
0E00
0700
0380
01C0
0000
0000
03C0
03E0
03E0
07E0
0770
0670
0E70
0E38
0C38
1C38
1C1C
1C1C
3FFC
3FFE
3FFE
700E
7006
7007
E007
ENDCHAR
STARTCHAR 00C1
ENCODING 193
SWIDTH 612 0
DWIDTH 17 0
BBX 16 25 0 0
BITMAP
0038
0070
00E0
01C0
0000
0000
03C0
03E0
03E0
07E0
0770
0670
0E70
0E38
0C38
1C38
1C1C
1C1C
3FFC
3FFE
3FFE
700E
7006
7007
E007
ENDCHAR
STARTCHAR 00C2
ENCODING 194
SWIDTH 612 0
DWIDTH 17 0
BBX 16 25 0 0
BITMAP
01C0
03E0
0670
0E38
0000
0000
03C0
03E0
03E0
07E0
0770
0670
0E70
0E38
0C38
1C38
1C1C
1C1C
3FFC
3FFE
3FFE
700E
7006
7007
E007
ENDCHAR
STARTCHAR 00C3
ENCODING 195
SWIDTH 612 0
DWIDTH 17 0
BBX 16 24 0 0
BITMAP
0F98
0FF8
1860
0000
0000
03C0
03E0
03E0
07E0
0770
0670
0E70
0E38
0C38
1C38
1C1C
1C1C
3FFC
3FFE
3FFE
700E
7006
7007
E007
ENDCHAR
STARTCHAR 00C4
ENCODING 196
SWIDTH 612 0
DWIDTH 17 0
BBX 16 24 0 0
BITMAP
0E38
0E38
0E38
0000
0000
03C0
03E0
03E0
07E0
0770
0670
0E70
0E38
0C38
1C38
1C1C
1C1C
3FFC
3FFE
3FFE
700E
7006
7007
E007
ENDCHAR
STARTCHAR 00C5
ENCODING 197
SWIDTH 612 0
DWIDTH 17 0
BBX 16 26 0 0
BITMAP
03C0
0260
0620
0260
03E0
0000
0000
03C0
03E0
03E0
07E0
0770
0670
0E70
0E38
0C38
1C38
1C1C
1C1C
3FFC
3FFE
3FFE
700E
7006
7007
E007
ENDCHAR
STARTCHAR 00C6
ENCODING 198
SWIDTH 612 0
DWIDTH 17 0
BBX 16 19 0 0
BITMAP
03FF
03FF
07E0
07E0
06E0
0EE0
0EE0
0CE0
1CFE
1CFE
1CE0
38E0
3FE0
3FE0
7FE0
70E0
70E0
E0FF
E0FF
ENDCHAR
STARTCHAR 00C7
ENCODING 199
SWIDTH 612 0
DWIDTH 17 0
BBX 14 25 1 -6
BITMAP
1FE0
3FF8
7838
701C
E01C
E01C
E00C
E000
E000
E000
E000
E000
E00C
E00C
E01C
701C
7838
3FF0
0FE0
0000
01C0
00C0
00C0
0FC0
0780
ENDCHAR
STARTCHAR 00C8
ENCODING 200
SWIDTH 612 0
DWIDTH 17 0
BBX 13 25 2 0
BITMAP
1C00
0C00
0E00
0700
0000
0000
FFF8
FFF8
E000
E000
E000
E000
E000
E000
FFF0
FFF0
E000
E000
E000
E000
E000
E000
E000
FFF8
FFF8
ENDCHAR
STARTCHAR 00C9
ENCODING 201
SWIDTH 612 0
DWIDTH 17 0
BBX 13 25 2 0
BITMAP
00E0
01C0
0180
0300
0000
0000
FFF8
FFF8
E000
E000
E000
E000
E000
E000
FFF0
FFF0
E000
E000
E000
E000
E000
E000
E000
FFF8
FFF8
ENDCHAR
STARTCHAR 00CA
ENCODING 202
SWIDTH 612 0
DWIDTH 17 0
BBX 13 25 2 0
BITMAP
0700
0F80
1CC0
3860
0000
0000
FFF8
FFF8
E000
E000
E000
E000
E000
E000
FFF0
FFF0
E000
E000
E000
E000
E000
E000
E000
FFF8
FFF8
ENDCHAR
STARTCHAR 00CB
ENCODING 203
SWIDTH 612 0
DWIDTH 17 0
BBX 13 24 2 0
BITMAP
3860
3860
3860
0000
0000
FFF8
FFF8
E000
E000
E000
E000
E000
E000
FFF0
FFF0
E000
E000
E000
E000
E000
E000
E000
FFF8
FFF8
ENDCHAR
STARTCHAR 00CC
ENCODING 204
SWIDTH 612 0
DWIDTH 17 0
BBX 11 25 3 0
BITMAP
7000
3800
1C00
0E00
0000
0000
FFE0
FFE0
0E00
0E00
0E00
0E00
0E00
0E00
0E00
0E00
0E00
0E00
0E00
0E00
0E00
0E00
0E00
FFE0
FFE0
ENDCHAR
STARTCHAR 00CD
ENCODING 205
SWIDTH 612 0
DWIDTH 17 0
BBX 11 25 3 0
BITMAP
01C0
0380
0700
0E00
0000
0000
FFE0
FFE0
0E00
0E00
0E00
0E00
0E00
0E00
0E00
0E00
0E00
0E00
0E00
0E00
0E00
0E00
0E00
FFE0
FFE0
ENDCHAR
STARTCHAR 00CE
ENCODING 206
SWIDTH 612 0
DWIDTH 17 0
BBX 11 25 3 0
BITMAP
0E00
1F00
3380
71C0
0000
0000
FFE0
FFE0
0E00
0E00
0E00
0E00
0E00
0E00
0E00
0E00
0E00
0E00
0E00
0E00
0E00
0E00
0E00
FFE0
FFE0
ENDCHAR
STARTCHAR 00CF
ENCODING 207
SWIDTH 612 0
DWIDTH 17 0
BBX 11 24 3 0
BITMAP
71C0
71C0
71C0
0000
0000
FFE0
FFE0
0E00
0E00
0E00
0E00
0E00
0E00
0E00
0E00
0E00
0E00
0E00
0E00
0E00
0E00
0E00
FFE0
FFE0
ENDCHAR
STARTCHAR 00D0
ENCODING 208
SWIDTH 612 0
DWIDTH 17 0
BBX 16 19 0 0
BITMAP
3FF0
3FFC
383E
380E
3807
3807
3807
3807
FFC7
FFC7
3807
3807
3807
3807
3807
380E
387E
3FFC
3FF0
ENDCHAR
STARTCHAR 00D1
ENCODING 209
SWIDTH 612 0
DWIDTH 17 0
BBX 13 24 2 0
BITMAP
3E60
3FE0
6180
0000
0000
E038
F038
F038
F838
F838
FC38
FC38
EE38
EE38
E738
E738
E3B8
E3B8
E1F8
E1F8
E0F8
E0F8
E078
E078
ENDCHAR
STARTCHAR 00D2
ENCODING 210
SWIDTH 612 0
DWIDTH 17 0
BBX 15 25 1 0
BITMAP
1C00
0E00
0700
0380
0000
0000
1FE0
3FF8
7838
701C
E01C
E01C
E00E
E00E
E00E
E00E
E00E
E00E
E00E
E01C
E01C
701C
7878
3FF0
0FE0
ENDCHAR
STARTCHAR 00D3
ENCODING 211
SWIDTH 612 0
DWIDTH 17 0
BBX 15 25 1 0
BITMAP
0070
00E0
01C0
0380
0000
0000
1FE0
3FF8
7838
701C
E01C
E01C
E00E
E00E
E00E
E00E
E00E
E00E
E00E
E01C
E01C
701C
7878
3FF0
0FE0
ENDCHAR
STARTCHAR 00D4
ENCODING 212
SWIDTH 612 0
DWIDTH 17 0
BBX 15 25 1 0
BITMAP
0380
07C0
0CE0
1C70
0000
0000
1FE0
3FF8
7838
701C
E01C
E01C
E00E
E00E
E00E
E00E
E00E
E00E
E00E
E01C
E01C
701C
7878
3FF0
0FE0
ENDCHAR
STARTCHAR 00D5
ENCODING 213
SWIDTH 612 0
DWIDTH 17 0
BBX 15 24 1 0
BITMAP
1F30
1FF0
30C0
0000
0000
1FE0
3FF8
7838
701C
E01C
E01C
E00E
E00E
E00E
E00E
E00E
E00E
E00E
E01C
E01C
701C
7878
3FF0
0FE0
ENDCHAR
STARTCHAR 00D6
ENCODING 214
SWIDTH 612 0
DWIDTH 17 0
BBX 15 24 1 0
BITMAP
1C70
1C70
1C70
0000
0000
1FE0
3FF8
7838
701C
E01C
E01C
E00E
E00E
E00E
E00E
E00E
E00E
E00E
E01C
E01C
701C
7878
3FF0
0FE0
ENDCHAR
STARTCHAR 00D7
ENCODING 215
SWIDTH 612 0
DWIDTH 17 0
BBX 11 12 3 1
BITMAP
4040
E0E0
F1C0
7B80
3F00
1E00
1F00
3F80
73C0
E1E0
C0E0
4040
ENDCHAR
STARTCHAR 00D8
ENCODING 216
SWIDTH 612 0
DWIDTH 17 0
BBX 15 23 1 -2
BITMAP
0006
000C
1FEC
3FF8
7838
703C
E07C
E07C
E0CE
E08E
E18E
E30E
E30E
E60E
E40E
EC1C
F81C
781C
7878
3FF0
6FE0
C000
C000
ENDCHAR
STARTCHAR 00D9
ENCODING 217
SWIDTH 612 0
DWIDTH 17 0
BBX 13 25 2 0
BITMAP
3800
1C00
0E00
0700
0000
0000
E038
E038
E038
E038
E038
E038
E038
E038
E038
E038
E038
E038
E038
E038
E038
E078
70F0
7FE0
1FC0
ENDCHAR
STARTCHAR 00DA
ENCODING 218
SWIDTH 612 0
DWIDTH 17 0
BBX 13 25 2 0
BITMAP
00E0
01C0
0380
0700
0000
0000
E038
E038
E038
E038
E038
E038
E038
E038
E038
E038
E038
E038
E038
E038
E038
E078
70F0
7FE0
1FC0
ENDCHAR
STARTCHAR 00DB
ENCODING 219
SWIDTH 612 0
DWIDTH 17 0
BBX 13 25 2 0
BITMAP
0700
0F80
19C0
38E0
0000
0000
E038
E038
E038
E038
E038
E038
E038
E038
E038
E038
E038
E038
E038
E038
E038
E078
70F0
7FE0
1FC0
ENDCHAR
STARTCHAR 00DC
ENCODING 220
SWIDTH 612 0
DWIDTH 17 0
BBX 13 24 2 0
BITMAP
38E0
38E0
38E0
0000
0000
E038
E038
E038
E038
E038
E038
E038
E038
E038
E038
E038
E038
E038
E038
E038
E078
70F0
7FE0
1FC0
ENDCHAR
STARTCHAR 00DD
ENCODING 221
SWIDTH 612 0
DWIDTH 17 0
BBX 16 25 0 0
BITMAP
0038
0070
00E0
01C0
0000
8000
7007
780E
380E
3C1C
1C1C
1E38
0E38
0770
0770
03E0
03E0
01C0
01C0
01C0
01C0
01C0
01C0
01C0
01C0
ENDCHAR
STARTCHAR 00DE
ENCODING 222
SWIDTH 612 0
DWIDTH 17 0
BBX 14 19 2 0
BITMAP
E000
E000
E000
FFC0
FFF0
FFF8
E038
E01C
E01C
E01C
E01C
E038
FFF8
FFE0
E000
E000
E000
E000
E000
ENDCHAR
STARTCHAR 00DF
ENCODING 223
SWIDTH 612 0
DWIDTH 17 0
BBX 15 22 0 -2
BITMAP
07F0
0FF8
1E1C
1C0E
180E
380E
F80C
F81C
39F8
39F8
383C
380E
380E
3806
3806
380E
380E
383C
39F8
39F0
3800
3800
ENDCHAR
STARTCHAR 00E0
ENCODING 224
SWIDTH 612 0
DWIDTH 17 0
BBX 14 21 2 0
BITMAP
1C00
0C00
0C00
0600
0600
0000
0000
3FC0
7FE0
E070
E070
0070
0070
3FF0
7C70
E070
E070
E0F0
E0F0
FFFC
7F3C
ENDCHAR
STARTCHAR 00E1
ENCODING 225
SWIDTH 612 0
DWIDTH 17 0
BBX 14 21 2 0
BITMAP
0380
0300
0300
0600
0600
0000
0000
3FC0
7FE0
E070
E070
0070
0070
3FF0
7C70
E070
E070
E0F0
E0F0
FFFC
7F3C
ENDCHAR
STARTCHAR 00E2
ENCODING 226
SWIDTH 612 0
DWIDTH 17 0
BBX 14 21 2 0
BITMAP
0F00
0F00
1980
38C0
70E0
0000
0000
3FC0
7FE0
E070
E070
0070
0070
3FF0
7C70
E070
E070
E0F0
E0F0
FFFC
7F3C
ENDCHAR
STARTCHAR 00E3
ENCODING 227
SWIDTH 612 0
DWIDTH 17 0
BBX 14 20 2 0
BITMAP
3C60
7FE0
63C0
0000
0000
0000
3FC0
7FE0
E070
E070
0070
0070
3FF0
7C70
E070
E070
E0F0
E0F0
FFFC
7F3C
ENDCHAR
STARTCHAR 00E4
ENCODING 228
SWIDTH 612 0
DWIDTH 17 0
BBX 14 20 2 0
BITMAP
30C0
30C0
30C0
0000
0000
0000
3FC0
7FE0
E070
E070
0070
0070
3FF0
7C70
E070
E070
E0F0
E0F0
FFFC
7F3C
ENDCHAR
STARTCHAR 00E5
ENCODING 229
SWIDTH 612 0
DWIDTH 17 0
BBX 14 22 2 0
BITMAP
0700
0F80
1880
1980
0F80
0600
0000
0000
3FC0
7FE0
E070
E070
0070
0070
3FF0
7C70
E070
E070
E0F0
E0F0
FFFC
7F3C
ENDCHAR
STARTCHAR 00E6
ENCODING 230
SWIDTH 612 0
DWIDTH 17 0
BBX 16 14 0 0
BITMAP
3F7E
7F7E
61C3
61C3
01C3
01C3
1FFF
79C0
61C0
E1C3
E1C3
63C3
7F7E
3E7C
ENDCHAR
STARTCHAR 00E7
ENCODING 231
SWIDTH 612 0
DWIDTH 17 0
BBX 12 20 2 -6
BITMAP
1FC0
3FE0
7070
E070
E030
E000
E000
E000
E030
E030
E070
7070
3FE0
1FC0
0000
0380
0180
0180
1F80
0F00
ENDCHAR
STARTCHAR 00E8
ENCODING 232
SWIDTH 612 0
DWIDTH 17 0
BBX 13 21 2 0
BITMAP
1C00
0C00
0600
0600
0300
0000
0000
1FC0
3FE0
7070
E030
E038
E038
FFF8
E000
E000
E038
E030
7070
3FE0
1FC0
ENDCHAR
STARTCHAR 00E9
ENCODING 233
SWIDTH 612 0
DWIDTH 17 0
BBX 13 21 2 0
BITMAP
01C0
0380
0300
0300
0600
0000
0000
1FC0
3FE0
7070
E030
E038
E038
FFF8
E000
E000
E038
E030
7070
3FE0
1FC0
ENDCHAR
STARTCHAR 00EA
ENCODING 234
SWIDTH 612 0
DWIDTH 17 0
BBX 13 21 2 0
BITMAP
0700
0F80
1DC0
18C0
3060
0000
0000
1FC0
3FE0
7070
E030
E038
E038
FFF8
E000
E000
E038
E030
7070
3FE0
1FC0
ENDCHAR
STARTCHAR 00EB
ENCODING 235
SWIDTH 612 0
DWIDTH 17 0
BBX 13 20 2 0
BITMAP
38E0
38E0
38E0
0000
0000
0000
1FC0
3FE0
7070
E030
E038
E038
FFF8
E000
E000
E038
E030
7070
3FE0
1FC0
ENDCHAR
STARTCHAR 00EC
ENCODING 236
SWIDTH 612 0
DWIDTH 17 0
BBX 12 21 3 0
BITMAP
1800
1C00
0C00
0600
0600
0000
0000
FF00
FF00
0700
0700
0700
0700
0700
0700
0700
0700
0700
0700
FFF0
FFF0
ENDCHAR
STARTCHAR 00ED
ENCODING 237
SWIDTH 612 0
DWIDTH 17 0
BBX 12 21 3 0
BITMAP
0380
0300
0700
0600
0C00
0000
0000
FF00
FF00
0700
0700
0700
0700
0700
0700
0700
0700
0700
0700
FFF0
FFF0
ENDCHAR
STARTCHAR 00EE
ENCODING 238
SWIDTH 612 0
DWIDTH 17 0
BBX 12 21 3 0
BITMAP
0F00
0F00
1980
31C0
70E0
0000
0000
FF00
FF00
0700
0700
0700
0700
0700
0700
0700
0700
0700
0700
FFF0
FFF0
ENDCHAR
STARTCHAR 00EF
ENCODING 239
SWIDTH 612 0
DWIDTH 17 0
BBX 12 20 3 0
BITMAP
30C0
30C0
30C0
0000
0000
0000
FF00
FF00
0700
0700
0700
0700
0700
0700
0700
0700
0700
0700
FFF0
FFF0
ENDCHAR
STARTCHAR 00F0
ENCODING 240
SWIDTH 612 0
DWIDTH 17 0
BBX 13 20 2 0
BITMAP
7880
1F00
1E00
7780
03C0
01C0
3FE0
7FF0
7070
E030
E038
E038
E038
E038
E038
E038
E070
7070
3FE0
1FC0
ENDCHAR
STARTCHAR 00F1
ENCODING 241
SWIDTH 612 0
DWIDTH 17 0
BBX 12 20 2 0
BITMAP
3E20
3FE0
23C0
4000
0000
0000
EFE0
FFF0
F070
F070
E030
E030
E030
E030
E030
E030
E030
E030
E030
E030
ENDCHAR
STARTCHAR 00F2
ENCODING 242
SWIDTH 612 0
DWIDTH 17 0
BBX 13 21 2 0
BITMAP
1C00
0C00
0E00
0600
0300
0000
0000
1FC0
7FE0
7070
E070
E038
E038
E038
E038
E038
E038
E070
7070
3FE0
1FC0
ENDCHAR
STARTCHAR 00F3
ENCODING 243
SWIDTH 612 0
DWIDTH 17 0
BBX 13 21 2 0
BITMAP
01C0
0380
0300
0700
0600
0000
0000
1FC0
7FE0
7070
E070
E038
E038
E038
E038
E038
E038
E070
7070
3FE0
1FC0
ENDCHAR
STARTCHAR 00F4
ENCODING 244
SWIDTH 612 0
DWIDTH 17 0
BBX 13 21 2 0
BITMAP
0700
0F80
1D80
38C0
3060
0000
0000
1FC0
7FE0
7070
E070
E038
E038
E038
E038
E038
E038
E070
7070
3FE0
1FC0
ENDCHAR
STARTCHAR 00F5
ENCODING 245
SWIDTH 612 0
DWIDTH 17 0
BBX 13 20 2 0
BITMAP
3E20
3FE0
63C0
0000
0000
0000
1FC0
7FE0
7070
E070
E038
E038
E038
E038
E038
E038
E070
7070
3FE0
1FC0
ENDCHAR
STARTCHAR 00F6
ENCODING 246
SWIDTH 612 0
DWIDTH 17 0
BBX 13 20 2 0
BITMAP
38E0
38E0
38E0
0000
0000
0000
1FC0
7FE0
7070
E070
E038
E038
E038
E038
E038
E038
E070
7070
3FE0
1FC0
ENDCHAR
STARTCHAR 00F7
ENCODING 247
SWIDTH 612 0
DWIDTH 17 0
BBX 14 12 1 1
BITMAP
0380
0380
0380
0000
0000
FFFC
FFFC
0000
0000
0380
0380
0380
ENDCHAR
STARTCHAR 00F8
ENCODING 248
SWIDTH 612 0
DWIDTH 17 0
BBX 13 17 2 -1
BITMAP
0018
0030
1FE0
7FE0
70F0
E0F0
E1B8
E338
E238
E638
EC38
E838
F870
7070
3FE0
7FC0
C000
ENDCHAR
STARTCHAR 00F9
ENCODING 249
SWIDTH 612 0
DWIDTH 17 0
BBX 14 21 2 0
BITMAP
1C00
0C00
0C00
0600
0600
0000
0000
E070
E070
E070
E070
E070
E070
E070
E070
E070
E070
E070
F0F0
7FBC
3F3C
ENDCHAR
STARTCHAR 00FA
ENCODING 250
SWIDTH 612 0
DWIDTH 17 0
BBX 14 21 2 0
BITMAP
0380
0300
0300
0600
0600
0000
0000
E070
E070
E070
E070
E070
E070
E070
E070
E070
E070
E070
F0F0
7FBC
3F3C
ENDCHAR
STARTCHAR 00FB
ENCODING 251
SWIDTH 612 0
DWIDTH 17 0
BBX 14 21 2 0
BITMAP
0F00
0F00
1980
38C0
70E0
0000
0000
E070
E070
E070
E070
E070
E070
E070
E070
E070
E070
E070
F0F0
7FBC
3F3C
ENDCHAR
STARTCHAR 00FC
ENCODING 252
SWIDTH 612 0
DWIDTH 17 0
BBX 14 20 2 0
BITMAP
30C0
30C0
30C0
0000
0000
0000
E070
E070
E070
E070
E070
E070
E070
E070
E070
E070
E070
F0F0
7FBC
3F3C
ENDCHAR
STARTCHAR 00FD
ENCODING 253
SWIDTH 612 0
DWIDTH 17 0
BBX 14 26 1 -5
BITMAP
00E0
00C0
0180
0180
0300
0000
8000
701C
701C
3038
3838
3830
1C70
1C70
0C60
0EE0
0EC0
07C0
07C0
0380
0380
0300
0700
0600
7E00
7C00
ENDCHAR
STARTCHAR 00FE
ENCODING 254
SWIDTH 612 0
DWIDTH 17 0
BBX 12 25 3 -5
BITMAP
C000
C000
C000
C000
C000
C000
DFC0
FFE0
E0E0
E070
C070
C070
C070
C070
C070
C070
E070
F0E0
DFC0
CF80
C000
C000
C000
C000
C000
ENDCHAR
STARTCHAR 00FF
ENCODING 255
SWIDTH 612 0
DWIDTH 17 0
BBX 14 25 1 -5
BITMAP
1C70
1C70
1C70
0000
0000
8000
701C
701C
3038
3838
3830
1C70
1C70
0C60
0EE0
0EC0
07C0
07C0
0380
0380
0300
0700
0600
7E00
7C00
ENDCHAR
STARTCHAR 0100
ENCODING 256
SWIDTH 612 0
DWIDTH 17 0
BBX 16 24 0 0
BITMAP
0FF8
0FF8
0000
0000
0000
03C0
03E0
03E0
07E0
0770
0670
0E70
0E38
0C38
1C38
1C1C
1C1C
3FFC
3FFE
3FFE
700E
7006
7007
E007
ENDCHAR
STARTCHAR 0101
ENCODING 257
SWIDTH 612 0
DWIDTH 17 0
BBX 14 19 2 0
BITMAP
3FC0
3FC0
0000
0000
0000
3FC0
7FE0
E070
E070
0070
0070
3FF0
7C70
E070
E070
E0F0
E0F0
FFFC
7F3C
ENDCHAR
STARTCHAR 0102
ENCODING 258
SWIDTH 612 0
DWIDTH 17 0
BBX 16 25 0 0
BITMAP
0C18
0C38
07F0
03E0
0000
0000
03C0
03E0
03E0
07E0
0770
0670
0E70
0E38
0C38
1C38
1C1C
1C1C
3FFC
3FFE
3FFE
700E
7006
7007
E007
ENDCHAR
STARTCHAR 0103
ENCODING 259
SWIDTH 612 0
DWIDTH 17 0
BBX 14 20 2 0
BITMAP
6060
30C0
1F80
0400
0000
0000
3FC0
7FE0
E070
E070
0070
0070
3FF0
7C70
E070
E070
E0F0
E0F0
FFFC
7F3C
ENDCHAR
STARTCHAR 0104
ENCODING 260
SWIDTH 612 0
DWIDTH 17 0
BBX 17 23 0 -4
BITMAP
03C000
03E000
03E000
07E000
077000
067000
0E7000
0E3800
0C3800
1C3800
1C1C00
1C1C00
3FFC00
3FFE00
3FFE00
700E00
700600
700700
E00700
000600
000C00
000C80
000780
ENDCHAR
STARTCHAR 0105
ENCODING 261
SWIDTH 612 0
DWIDTH 17 0
BBX 15 18 2 -4
BITMAP
3FC0
7FE0
E070
E070
0070
0070
3FF0
7C70
E070
E070
E0F0
E0F0
FFFC
7F3C
0030
0030
0032
001E
ENDCHAR
STARTCHAR 0106
ENCODING 262
SWIDTH 612 0
DWIDTH 17 0
BBX 14 25 1 0
BITMAP
0070
00E0
01C0
0380
0000
0000
1FE0
3FF8
7838
701C
E01C
E01C
E00C
E000
E000
E000
E000
E000
E00C
E00C
E01C
701C
7838
3FF0
0FE0
ENDCHAR
STARTCHAR 0107
ENCODING 263
SWIDTH 612 0
DWIDTH 17 0
BBX 12 21 2 0
BITMAP
01C0
0380
0300
0700
0600
0000
0000
1FC0
3FE0
7070
E070
E030
E000
E000
E000
E030
E030
E070
7070
3FE0
1FC0
ENDCHAR
STARTCHAR 0108
ENCODING 264
SWIDTH 612 0
DWIDTH 17 0
BBX 14 25 1 0
BITMAP
0380
07C0
0CE0
1C70
0000
0000
1FE0
3FF8
7838
701C
E01C
E01C
E00C
E000
E000
E000
E000
E000
E00C
E00C
E01C
701C
7838
3FF0
0FE0
ENDCHAR
STARTCHAR 0109
ENCODING 265
SWIDTH 612 0
DWIDTH 17 0
BBX 12 21 2 0
BITMAP
0700
0F80
1D80
38C0
3060
0000
0000
1FC0
3FE0
7070
E070
E030
E000
E000
E000
E030
E030
E070
7070
3FE0
1FC0
ENDCHAR
STARTCHAR 010A
ENCODING 266
SWIDTH 612 0
DWIDTH 17 0
BBX 14 24 1 0
BITMAP
0380
0380
0380
0000
0000
1FE0
3FF8
7838
701C
E01C
E01C
E00C
E000
E000
E000
E000
E000
E00C
E00C
E01C
701C
7838
3FF0
0FE0
ENDCHAR
STARTCHAR 010B
ENCODING 267
SWIDTH 612 0
DWIDTH 17 0
BBX 12 20 2 0
BITMAP
0700
0700
0700
0000
0000
0000
1FC0
3FE0
7070
E070
E030
E000
E000
E000
E030
E030
E070
7070
3FE0
1FC0
ENDCHAR
STARTCHAR 010C
ENCODING 268
SWIDTH 612 0
DWIDTH 17 0
BBX 14 25 1 0
BITMAP
1830
0C60
06C0
0380
0000
0000
1FE0
3FF8
7838
701C
E01C
E01C
E00C
E000
E000
E000
E000
E000
E00C
E00C
E01C
701C
7838
3FF0
0FE0
ENDCHAR
STARTCHAR 010D
ENCODING 269
SWIDTH 612 0
DWIDTH 17 0
BBX 12 21 2 0
BITMAP
30E0
18C0
1D80
0F00
0700
0000
0000
1FC0
3FE0
7070
E070
E030
E000
E000
E000
E030
E030
E070
7070
3FE0
1FC0
ENDCHAR
STARTCHAR 010E
ENCODING 270
SWIDTH 612 0
DWIDTH 17 0
BBX 14 25 2 0
BITMAP
3060
18C0
0D80
0700
0000
0000
FFC0
FFF0
E0F8
E038
E01C
E01C
E01C
E01C
E01C
E01C
E01C
E01C
E01C
E01C
E01C
E038
E1F8
FFF0
FFC0
ENDCHAR
STARTCHAR 010F
ENCODING 271
SWIDTH 612 0
DWIDTH 17 0
BBX 17 20 2 0
BITMAP
007000
007380
007380
007380
007180
007100
3F7300
7FF000
F0F000
E07000
E07000
C07000
C07000
C07000
C07000
E07000
E07000
F0F000
7FB000
3F3000
ENDCHAR
STARTCHAR 0110
ENCODING 272
SWIDTH 612 0
DWIDTH 17 0
BBX 16 19 0 0
BITMAP
3FF0
3FFC
383E
380E
3807
3807
3807
3807
FFC7
FFC7
3807
3807
3807
3807
3807
380E
387E
3FFC
3FF0
ENDCHAR
STARTCHAR 0111
ENCODING 273
SWIDTH 612 0
DWIDTH 17 0
BBX 15 20 2 0
BITMAP
0070
0070
0FFE
0FFE
0070
0070
3F70
7FF0
F0F0
E070
E070
C070
C070
C070
C070
E070
E070
F0F0
7FB0
3F30
ENDCHAR
STARTCHAR 0112
ENCODING 274
SWIDTH 612 0
DWIDTH 17 0
BBX 13 24 2 0
BITMAP
3FE0
3FE0
0000
0000
0000
FFF8
FFF8
E000
E000
E000
E000
E000
E000
FFF0
FFF0
E000
E000
E000
E000
E000
E000
E000
FFF8
FFF8
ENDCHAR
STARTCHAR 0113
ENCODING 275
SWIDTH 612 0
DWIDTH 17 0
BBX 13 19 2 0
BITMAP
3FE0
3FE0
0000
0000
0000
1FC0
3FE0
7070
E030
E038
E038
FFF8
E000
E000
E038
E030
7070
3FE0
1FC0
ENDCHAR
STARTCHAR 0114
ENCODING 276
SWIDTH 612 0
DWIDTH 17 0
BBX 13 25 2 0
BITMAP
3060
3860
1FC0
0F80
0000
0000
FFF8
FFF8
E000
E000
E000
E000
E000
E000
FFF0
FFF0
E000
E000
E000
E000
E000
E000
E000
FFF8
FFF8
ENDCHAR
STARTCHAR 0115
ENCODING 277
SWIDTH 612 0
DWIDTH 17 0
BBX 13 20 2 0
BITMAP
3060
38E0
1FC0
0200
0000
0000
1FC0
3FE0
7070
E030
E038
E038
FFF8
E000
E000
E038
E030
7070
3FE0
1FC0
ENDCHAR
STARTCHAR 0116
ENCODING 278
SWIDTH 612 0
DWIDTH 17 0
BBX 13 24 2 0
BITMAP
0700
0700
0700
0000
0000
FFF8
FFF8
E000
E000
E000
E000
E000
E000
FFF0
FFF0
E000
E000
E000
E000
E000
E000
E000
FFF8
FFF8
ENDCHAR
STARTCHAR 0117
ENCODING 279
SWIDTH 612 0
DWIDTH 17 0
BBX 13 20 2 0
BITMAP
0700
0700
0700
0000
0000
0000
1FC0
3FE0
7070
E030
E038
E038
FFF8
E000
E000
E038
E030
7070
3FE0
1FC0
ENDCHAR
STARTCHAR 0118
ENCODING 280
SWIDTH 612 0
DWIDTH 17 0
BBX 14 23 2 -4
BITMAP
FFF8
FFF8
E000
E000
E000
E000
E000
E000
FFF0
FFF0
E000
E000
E000
E000
E000
E000
E000
FFF8
FFF8
0060
00E0
00E4
0078
ENDCHAR
STARTCHAR 0119
ENCODING 281
SWIDTH 612 0
DWIDTH 17 0
BBX 13 18 2 -4
BITMAP
1FC0
3FE0
7070
E030
E038
E038
FFF8
E000
E000
E038
E030
7070
3FE0
1FC0
0300
0600
0740
03E0
ENDCHAR
STARTCHAR 011A
ENCODING 282
SWIDTH 612 0
DWIDTH 17 0
BBX 13 25 2 0
BITMAP
3870
1CE0
0FC0
0780
0000
0000
FFF8
FFF8
E000
E000
E000
E000
E000
E000
FFF0
FFF0
E000
E000
E000
E000
E000
E000
E000
FFF8
FFF8
ENDCHAR
STARTCHAR 011B
ENCODING 283
SWIDTH 612 0
DWIDTH 17 0
BBX 13 21 2 0
BITMAP
30E0
18C0
0D80
0F80
0700
0000
0000
1FC0
3FE0
7070
E030
E038
E038
FFF8
E000
E000
E038
E030
7070
3FE0
1FC0
ENDCHAR
STARTCHAR 011C
ENCODING 284
SWIDTH 612 0
DWIDTH 17 0
BBX 15 25 1 0
BITMAP
0380
07C0
0EE0
1C70
0000
0000
1FE0
3FF8
7838
701C
E01C
E00C
E00C
E000
E000
E1FC
E1FC
E00C
E00C
E00C
E01C
701C
783C
3FF4
1FC6
ENDCHAR
STARTCHAR 011D
ENCODING 285
SWIDTH 612 0
DWIDTH 17 0
BBX 15 25 1 -5
BITMAP
0380
07C0
0EE0
1C70
0006
000E
1FFC
3C78
3838
3018
3018
3838
3C78
1FF0
3F00
7000
7000
7FE0
3FFC
7FFC
600E
E00E
E00E
7FFC
3FF8
ENDCHAR
STARTCHAR 011E
ENCODING 286
SWIDTH 612 0
DWIDTH 17 0
BBX 15 25 1 0
BITMAP
1830
1870
0FE0
0780
0000
0000
1FE0
3FF8
7838
701C
E01C
E00C
E00C
E000
E000
E1FC
E1FC
E00C
E00C
E00C
E01C
701C
783C
3FF4
1FC6
ENDCHAR
STARTCHAR 011F
ENCODING 287
SWIDTH 612 0
DWIDTH 17 0
BBX 15 25 1 -5
BITMAP
1830
1C60
0FE0
0106
000E
001C
1FF8
3C78
3838
3018
3018
3838
3C78
1FF0
3F00
7000
7000
7FE0
3FFC
7FFC
600E
E00E
E00E
7FFC
3FF8
ENDCHAR
STARTCHAR 0120
ENCODING 288
SWIDTH 612 0
DWIDTH 17 0
BBX 15 24 1 0
BITMAP
0380
0380
0380
0000
0000
1FE0
3FF8
7838
701C
E01C
E00C
E00C
E000
E000
E1FC
E1FC
E00C
E00C
E00C
E01C
701C
783C
3FF4
1FC6
ENDCHAR
STARTCHAR 0121
ENCODING 289
SWIDTH 612 0
DWIDTH 17 0
BBX 15 25 1 -5
BITMAP
0380
0380
0380
0006
000E
001C
1FF8
3C78
3838
3018
3018
3838
3C78
1FF0
3F00
7000
7000
7FE0
3FFC
7FFC
600E
E00E
E00E
7FFC
3FF8
ENDCHAR
STARTCHAR 0122
ENCODING 290
SWIDTH 612 0
DWIDTH 17 0
BBX 15 28 1 -9
BITMAP
1FE0
3FF8
7838
701C
E01C
E00C
E00C
E000
E000
E1FC
E1FC
E00C
E00C
E00C
E01C
701C
783C
3FF4
1FC6
0000
0000
0380
0380
0380
0180
0100
0100
0200
ENDCHAR
STARTCHAR 0123
ENCODING 291
SWIDTH 612 0
DWIDTH 17 0
BBX 15 29 1 -5
BITMAP
0180
0100
0300
0300
0380
0380
0380
0006
000E
001C
1FF8
3C78
3838
3018
3018
3838
3C78
1FF0
3F00
7000
7000
7FE0
3FFC
7FFC
600E
E00E
E00E
7FFC
3FF8
ENDCHAR
STARTCHAR 0124
ENCODING 292
SWIDTH 612 0
DWIDTH 17 0
BBX 13 25 2 0
BITMAP
0700
0F80
19C0
38E0
0000
0000
E038
E038
E038
E038
E038
E038
E038
E038
FFF8
FFF8
E038
E038
E038
E038
E038
E038
E038
E038
E038
ENDCHAR
STARTCHAR 0125
ENCODING 293
SWIDTH 612 0
DWIDTH 17 0
BBX 15 25 -1 0
BITMAP
1C00
3E00
7300
E180
0000
1C00
1C00
1C00
1C00
1C00
1C00
1DFC
1FFE
1E0E
1E0E
1C06
1C06
1C06
1C06
1C06
1C06
1C06
1C06
1C06
1C06
ENDCHAR
STARTCHAR 0126
ENCODING 294
SWIDTH 612 0
DWIDTH 17 0
BBX 16 19 0 0
BITMAP
380E
380E
380E
FFFF
FFFF
380E
380E
380E
3FFE
3FFE
380E
380E
380E
380E
380E
380E
380E
380E
380E
ENDCHAR
STARTCHAR 0127
ENCODING 295
SWIDTH 612 0
DWIDTH 17 0
BBX 14 20 0 0
BITMAP
3800
3800
FFC0
FFC0
3800
3800
3BF8
3FFC
3C1C
3C1C
380C
380C
380C
380C
380C
380C
380C
380C
380C
380C
ENDCHAR
STARTCHAR 0128
ENCODING 296
SWIDTH 612 0
DWIDTH 17 0
BBX 11 24 3 0
BITMAP
7CC0
7FC0
C300
0000
0000
FFE0
FFE0
0E00
0E00
0E00
0E00
0E00
0E00
0E00
0E00
0E00
0E00
0E00
0E00
0E00
0E00
0E00
FFE0
FFE0
ENDCHAR
STARTCHAR 0129
ENCODING 297
SWIDTH 612 0
DWIDTH 17 0
BBX 12 20 3 0
BITMAP
3C60
7FC0
63C0
0000
0000
0000
FF00
FF00
0700
0700
0700
0700
0700
0700
0700
0700
0700
0700
FFF0
FFF0
ENDCHAR
STARTCHAR 012A
ENCODING 298
SWIDTH 612 0
DWIDTH 17 0
BBX 11 24 3 0
BITMAP
7FC0
7FC0
0000
0000
0000
FFE0
FFE0
0E00
0E00
0E00
0E00
0E00
0E00
0E00
0E00
0E00
0E00
0E00
0E00
0E00
0E00
0E00
FFE0
FFE0
ENDCHAR
STARTCHAR 012B
ENCODING 299
SWIDTH 612 0
DWIDTH 17 0
BBX 12 19 3 0
BITMAP
3FC0
3FC0
0000
0000
0000
FF00
FF00
0700
0700
0700
0700
0700
0700
0700
0700
0700
0700
FFF0
FFF0
ENDCHAR
STARTCHAR 012C
ENCODING 300
SWIDTH 612 0
DWIDTH 17 0
BBX 11 25 3 0
BITMAP
60C0
61C0
3F80
1F00
0000
0000
FFE0
FFE0
0E00
0E00
0E00
0E00
0E00
0E00
0E00
0E00
0E00
0E00
0E00
0E00
0E00
0E00
0E00
FFE0
FFE0
ENDCHAR
STARTCHAR 012D
ENCODING 301
SWIDTH 612 0
DWIDTH 17 0
BBX 12 20 3 0
BITMAP
60E0
31C0
1F80
0400
0000
0000
FF00
FF00
0700
0700
0700
0700
0700
0700
0700
0700
0700
0700
FFF0
FFF0
ENDCHAR
STARTCHAR 012E
ENCODING 302
SWIDTH 612 0
DWIDTH 17 0
BBX 11 23 3 -4
BITMAP
FFE0
FFE0
0E00
0E00
0E00
0E00
0E00
0E00
0E00
0E00
0E00
0E00
0E00
0E00
0E00
0E00
0E00
FFE0
FFE0
0300
0600
0720
03E0
ENDCHAR
STARTCHAR 012F
ENCODING 303
SWIDTH 612 0
DWIDTH 17 0
BBX 12 24 3 -4
BITMAP
0600
0600
0600
0000
0000
0000
FF00
FF00
0700
0700
0700
0700
0700
0700
0700
0700
0700
0700
FFF0
FFF0
0600
0C00
0E80
07C0
ENDCHAR
STARTCHAR 0130
ENCODING 304
SWIDTH 612 0
DWIDTH 17 0
BBX 11 24 3 0
BITMAP
0E00
0E00
0E00
0000
0000
FFE0
FFE0
0E00
0E00
0E00
0E00
0E00
0E00
0E00
0E00
0E00
0E00
0E00
0E00
0E00
0E00
0E00
FFE0
FFE0
ENDCHAR
STARTCHAR 0131
ENCODING 305
SWIDTH 612 0
DWIDTH 17 0
BBX 12 14 3 0
BITMAP
FF00
FF00
0700
0700
0700
0700
0700
0700
0700
0700
0700
0700
FFF0
FFF0
ENDCHAR
STARTCHAR 0132
ENCODING 306
SWIDTH 612 0
DWIDTH 17 0
BBX 13 19 2 0
BITMAP
E038
E038
E038
E038
E038
E038
E038
E038
E038
E038
E038
0038
0038
E038
E038
E070
70F0
7FE0
1FC0
ENDCHAR
STARTCHAR 0133
ENCODING 307
SWIDTH 612 0
DWIDTH 17 0
BBX 12 25 2 -5
BITMAP
F070
F070
F070
0000
0000
0000
E3F0
E3F0
E070
E070
E070
E070
E070
E070
E070
E070
E070
E070
E070
E070
0070
0070
0870
0FE0
0FC0
ENDCHAR
STARTCHAR 0134
ENCODING 308
SWIDTH 612 0
DWIDTH 17 0
BBX 14 25 3 0
BITMAP
00E0
01F0
03B8
071C
0000
0000
00E0
00E0
00E0
00E0
00E0
00E0
00E0
00E0
00E0
00E0
00E0
00E0
00E0
C0E0
C0E0
E0E0
E1E0
7FC0
3F80
ENDCHAR
STARTCHAR 0135
ENCODING 309
SWIDTH 612 0
DWIDTH 17 0
BBX 11 26 3 -5
BITMAP
0F00
0F00
1980
38C0
70E0
0000
0000
FF00
FF00
0700
0700
0700
0700
0700
0700
0700
0700
0700
0700
0700
0700
0700
0600
8E00
FE00
FC00
ENDCHAR
STARTCHAR 0136
ENCODING 310
SWIDTH 612 0
DWIDTH 17 0
BBX 14 28 2 -9
BITMAP
E03C
E038
E070
E0E0
E1E0
E1C0
E380
E700
EF00
EF00
FF80
FB80
F1C0
E1E0
E0E0
E070
E078
E038
E01C
0000
0000
0700
0700
0700
0300
0200
0600
0400
ENDCHAR
STARTCHAR 0137
ENCODING 311
SWIDTH 612 0
DWIDTH 17 0
BBX 13 29 2 -9
BITMAP
E000
E000
E000
E000
E000
E008
E070
E0E0
E1E0
E3C0
E380
E700
EE00
FF00
FF80
F3C0
E1C0
E0E0
E070
E078
0000
0000
0600
0600
0600
0200
0600
0600
0C00
ENDCHAR
STARTCHAR 0138
ENCODING 312
SWIDTH 612 0
DWIDTH 17 0
BBX 13 14 2 0
BITMAP
E078
E0E0
E1E0
E3C0
E380
E700
EE00
FF00
FF80
F3C0
E1C0
E0E0
E070
E078
ENDCHAR
STARTCHAR 0139
ENCODING 313
SWIDTH 612 0
DWIDTH 17 0
BBX 12 25 3 0
BITMAP
1C00
3800
7000
E000
0000
0000
E000
E000
E000
E000
E000
E000
E000
E000
E000
E000
E000
E000
E000
E000
E000
E000
E000
FFF0
FFF0
ENDCHAR
STARTCHAR 013A
ENCODING 314
SWIDTH 612 0
DWIDTH 17 0
BBX 13 25 2 0
BITMAP
00E0
01C0
0380
0700
0000
FF00
FF00
0700
0700
0700
0700
0700
0700
0700
0700
0700
0700
0700
0700
0700
0700
0700
0700
FFF8
FFF8
ENDCHAR
STARTCHAR 013B
ENCODING 315
SWIDTH 612 0
DWIDTH 17 0
BBX 12 28 3 -9
BITMAP
E000
E000
E000
E000
E000
E000
E000
E000
E000
E000
E000
E000
E000
E000
E000
E000
E000
FFF0
FFF0
0000
0000
0600
0600
0600
0200
0200
0600
0C00
ENDCHAR
STARTCHAR 013C
ENCODING 316
SWIDTH 612 0
DWIDTH 17 0
BBX 13 29 2 -9
BITMAP
FF00
FF00
0700
0700
0700
0700
0700
0700
0700
0700
0700
0700
0700
0700
0700
0700
0700
0700
FFF8
FFF8
0000
0000
0700
0700
0700
0300
0200
0600
0400
ENDCHAR
STARTCHAR 013D
ENCODING 317
SWIDTH 612 0
DWIDTH 17 0
BBX 12 19 3 0
BITMAP
E0E0
E0E0
E0E0
E060
E060
E0C0
E000
E000
E000
E000
E000
E000
E000
E000
E000
E000
E000
FFF0
FFF0
ENDCHAR
STARTCHAR 013E
ENCODING 318
SWIDTH 612 0
DWIDTH 17 0
BBX 13 20 2 0
BITMAP
FF00
FF30
0730
0730
0710
0730
0730
0740
0700
0700
0700
0700
0700
0700
0700
0700
0700
0700
FFF8
FFF8
ENDCHAR
STARTCHAR 013F
ENCODING 319
SWIDTH 612 0
DWIDTH 17 0
BBX 12 19 3 0
BITMAP
E000
E000
E000
E000
E000
E000
E000
E1E0
E1E0
E1E0
E000
E000
E000
E000
E000
E000
E000
FFF0
FFF0
ENDCHAR
STARTCHAR 0140
ENCODING 320
SWIDTH 612 0
DWIDTH 17 0
BBX 17 20 2 0
BITMAP
FF0000
FF0000
070000
070000
070000
070000
070000
070000
070780
070780
070780
070000
070000
070000
070000
070000
070000
070000
FFF800
FFF800
ENDCHAR
STARTCHAR 0141
ENCODING 321
SWIDTH 612 0
DWIDTH 17 0
BBX 14 19 1 0
BITMAP
3800
3800
3800
3800
3800
3800
3880
3B00
3E00
3800
F800
B800
3800
3800
3800
3800
3800
3FFC
3FFC
ENDCHAR
STARTCHAR 0142
ENCODING 322
SWIDTH 612 0
DWIDTH 17 0
BBX 13 20 2 0
BITMAP
FF00
FF00
0700
0700
0700
0700
0710
0770
07E0
0780
1F00
7F00
6700
0700
0700
0700
0700
0700
FFF8
FFF8
ENDCHAR
STARTCHAR 0143
ENCODING 323
SWIDTH 612 0
DWIDTH 17 0
BBX 13 25 2 0
BITMAP
00E0
01C0
0380
0700
0000
0000
E038
F038
F038
F838
F838
FC38
FC38
EE38
EE38
E738
E738
E3B8
E3B8
E1F8
E1F8
E0F8
E0F8
E078
E078
ENDCHAR
STARTCHAR 0144
ENCODING 324
SWIDTH 612 0
DWIDTH 17 0
BBX 12 21 2 0
BITMAP
01C0
0380
0300
0700
0600
0000
0000
EFE0
FFF0
F070
F070
E030
E030
E030
E030
E030
E030
E030
E030
E030
E030
ENDCHAR
STARTCHAR 0145
ENCODING 325
SWIDTH 612 0
DWIDTH 17 0
BBX 13 28 2 -9
BITMAP
E038
F038
F038
F838
F838
FC38
FC38
EE38
EE38
E738
E738
E3B8
E3B8
E1F8
E1F8
E0F8
E0F8
E078
E078
0000
0000
0700
0700
0700
0300
0200
0600
0400
ENDCHAR
STARTCHAR 0146
ENCODING 326
SWIDTH 612 0
DWIDTH 17 0
BBX 12 23 2 -9
BITMAP
EFE0
FFF0
F070
F070
E030
E030
E030
E030
E030
E030
E030
E030
E030
E030
0000
0000
0700
0700
0700
0300
0300
0200
0600
ENDCHAR
STARTCHAR 0147
ENCODING 327
SWIDTH 612 0
DWIDTH 17 0
BBX 13 25 2 0
BITMAP
3060
18C0
0D80
0700
0000
0000
E038
F038
F038
F838
F838
FC38
FC38
EE38
EE38
E738
E738
E3B8
E3B8
E1F8
E1F8
E0F8
E0F8
E078
E078
ENDCHAR
STARTCHAR 0148
ENCODING 328
SWIDTH 612 0
DWIDTH 17 0
BBX 12 21 2 0
BITMAP
30E0
18C0
0D80
0F80
0700
0000
0000
EFE0
FFF0
F070
F070
E030
E030
E030
E030
E030
E030
E030
E030
E030
E030
ENDCHAR
STARTCHAR 0149
ENCODING 329
SWIDTH 612 0
DWIDTH 17 0
BBX 14 21 0 0
BITMAP
6000
6000
6000
2000
6000
C000
0000
3BF8
3FFC
3C1C
3C1C
380C
380C
380C
380C
380C
380C
380C
380C
380C
380C
ENDCHAR
STARTCHAR 014A
ENCODING 330
SWIDTH 612 0
DWIDTH 17 0
BBX 13 24 2 -5
BITMAP
E038
F038
F038
F838
F838
FC38
FC38
EE38
EE38
E738
E738
E3B8
E3B8
E1F8
E1F8
E0F8
E0F8
E078
E078
0038
0038
0038
01F0
01E0
ENDCHAR
STARTCHAR 014B
ENCODING 331
SWIDTH 612 0
DWIDTH 17 0
BBX 12 19 2 -5
BITMAP
EFE0
FFF0
F070
F070
E030
E030
E030
E030
E030
E030
E030
E030
E030
E030
0030
0030
0070
03F0
03E0
ENDCHAR
STARTCHAR 014C
ENCODING 332
SWIDTH 612 0
DWIDTH 17 0
BBX 15 24 1 0
BITMAP
1FF0
1FF0
0000
0000
0000
1FE0
3FF8
7838
701C
E01C
E01C
E00E
E00E
E00E
E00E
E00E
E00E
E00E
E01C
E01C
701C
7878
3FF0
0FE0
ENDCHAR
STARTCHAR 014D
ENCODING 333
SWIDTH 612 0
DWIDTH 17 0
BBX 13 19 2 0
BITMAP
3FE0
3FE0
0000
0000
0000
1FC0
7FE0
7070
E070
E038
E038
E038
E038
E038
E038
E070
7070
3FE0
1FC0
ENDCHAR
STARTCHAR 014E
ENCODING 334
SWIDTH 612 0
DWIDTH 17 0
BBX 15 25 1 0
BITMAP
1830
1870
0FE0
07C0
0000
0000
1FE0
3FF8
7838
701C
E01C
E01C
E00E
E00E
E00E
E00E
E00E
E00E
E00E
E01C
E01C
701C
7878
3FF0
0FE0
ENDCHAR
STARTCHAR 014F
ENCODING 335
SWIDTH 612 0
DWIDTH 17 0
BBX 13 20 2 0
BITMAP
3060
38C0
1FC0
0200
0000
0000
1FC0
7FE0
7070
E070
E038
E038
E038
E038
E038
E038
E070
7070
3FE0
1FC0
ENDCHAR
STARTCHAR 0150
ENCODING 336
SWIDTH 612 0
DWIDTH 17 0
BBX 15 25 1 0
BITMAP
0398
0330
0670
0CE0
0000
0000
1FE0
3FF8
7838
701C
E01C
E01C
E00E
E00E
E00E
E00E
E00E
E00E
E00E
E01C
E01C
701C
7878
3FF0
0FE0
ENDCHAR
STARTCHAR 0151
ENCODING 337
SWIDTH 612 0
DWIDTH 17 0
BBX 13 21 2 0
BITMAP
0770
0E70
0CE0
1CC0
1980
0000
0000
1FC0
7FE0
7070
E070
E038
E038
E038
E038
E038
E038
E070
7070
3FE0
1FC0
ENDCHAR
STARTCHAR 0152
ENCODING 338
SWIDTH 612 0
DWIDTH 17 0
BBX 15 19 1 0
BITMAP
1FFE
3FFE
78C0
60C0
E0C0
E0C0
E0C0
E0C0
E0FC
E0FC
E0FC
E0C0
E0C0
E0C0
E0C0
60C0
78C0
3FFE
1FFE
ENDCHAR
STARTCHAR 0153
ENCODING 339
SWIDTH 612 0
DWIDTH 17 0
BBX 16 14 0 0
BITMAP
3E7E
7F7E
61C3
61C3
E1C3
E1C3
E1FF
E1C0
E1C0
E1C3
61C3
63C3
7F7E
3E3E
ENDCHAR
STARTCHAR 0154
ENCODING 340
SWIDTH 612 0
DWIDTH 17 0
BBX 15 25 2 0
BITMAP
00E0
01C0
0380
0700
0000
0000
FFE0
FFF0
E078
E038
E01C
E01C
E018
E038
E0F0
FFE0
FFF0
E078
E038
E038
E038
E038
E038
E01C
E01E
ENDCHAR
STARTCHAR 0155
ENCODING 341
SWIDTH 612 0
DWIDTH 17 0
BBX 15 21 1 0
BITMAP
00E0
00C0
01C0
0180
0300
0000
0000
FDF8
FFFC
0F1C
0E0E
0E0E
0E00
0E00
0E00
0E00
0E00
0E00
0E00
FFF8
FFF8
ENDCHAR
STARTCHAR 0156
ENCODING 342
SWIDTH 612 0
DWIDTH 17 0
BBX 15 28 2 -9
BITMAP
FFE0
FFF0
E078
E038
E01C
E01C
E018
E038
E0F0
FFE0
FFF0
E078
E038
E038
E038
E038
E038
E01C
E01E
0000
0000
0700
0700
0700
0100
0300
0200
0600
ENDCHAR
STARTCHAR 0157
ENCODING 343
SWIDTH 612 0
DWIDTH 17 0
BBX 15 23 1 -9
BITMAP
FDF8
FFFC
0F1C
0E0E
0E0E
0E00
0E00
0E00
0E00
0E00
0E00
0E00
FFF8
FFF8
0000
0000
0700
0700
0700
0100
0300
0200
0600
ENDCHAR
STARTCHAR 0158
ENCODING 344
SWIDTH 612 0
DWIDTH 17 0
BBX 15 25 2 0
BITMAP
3060
18C0
0D80
0700
0000
0000
FFE0
FFF0
E078
E038
E01C
E01C
E018
E038
E0F0
FFE0
FFF0
E078
E038
E038
E038
E038
E038
E01C
E01E
ENDCHAR
STARTCHAR 0159
ENCODING 345
SWIDTH 612 0
DWIDTH 17 0
BBX 15 21 1 0
BITMAP
1C30
0C60
06E0
03C0
0380
0000
0000
FDF8
FFFC
0F1C
0E0E
0E0E
0E00
0E00
0E00
0E00
0E00
0E00
0E00
FFF8
FFF8
ENDCHAR
STARTCHAR 015A
ENCODING 346
SWIDTH 612 0
DWIDTH 17 0
BBX 15 25 1 0
BITMAP
0070
00E0
01C0
0380
0000
0000
1FE0
3FF8
783C
701C
601C
7000
7000
7E00
3FE0
0FF8
01FC
003C
001E
E00E
E00E
E01C
783C
3FF8
1FE0
ENDCHAR
STARTCHAR 015B
ENCODING 347
SWIDTH 612 0
DWIDTH 17 0
BBX 13 21 2 0
BITMAP
01C0
0380
0300
0700
0600
0000
0000
3FC0
7DE0
6070
E070
7000
7E00
3FC0
0FF0
0070
0038
E038
E070
7FF0
3FC0
ENDCHAR
STARTCHAR 015C
ENCODING 348
SWIDTH 612 0
DWIDTH 17 0
BBX 15 25 1 0
BITMAP
0380
07C0
0CE0
1C70
0000
0000
1FE0
3FF8
783C
701C
601C
7000
7000
7E00
3FE0
0FF8
01FC
003C
001E
E00E
E00E
E01C
783C
3FF8
1FE0
ENDCHAR
STARTCHAR 015D
ENCODING 349
SWIDTH 612 0
DWIDTH 17 0
BBX 13 21 2 0
BITMAP
0700
0F80
1D80
38C0
3060
0000
0000
3FC0
7DE0
6070
E070
7000
7E00
3FC0
0FF0
0070
0038
E038
E070
7FF0
3FC0
ENDCHAR
STARTCHAR 015E
ENCODING 350
SWIDTH 612 0
DWIDTH 17 0
BBX 15 25 1 -6
BITMAP
1FE0
3FF8
783C
701C
601C
7000
7000
7E00
3FE0
0FF8
01FC
003C
001E
E00E
E00E
E01C
783C
3FF8
1FF0
0000
01C0
00C0
00C0
0FC0
0780
ENDCHAR
STARTCHAR 015F
ENCODING 351
SWIDTH 612 0
DWIDTH 17 0
BBX 13 20 2 -6
BITMAP
3FC0
7DE0
6070
E070
7000
7E00
3FC0
0FF0
0070
0038
E038
E070
7FF0
3FC0
0000
0380
0180
0180
1F80
0F00
ENDCHAR
STARTCHAR 0160
ENCODING 352
SWIDTH 612 0
DWIDTH 17 0
BBX 15 25 1 0
BITMAP
1830
0C60
06C0
0380
0000
0000
1FE0
3FF8
783C
701C
601C
7000
7000
7E00
3FE0
0FF8
01FC
003C
001E
E00E
E00E
E01C
783C
3FF8
1FE0
ENDCHAR
STARTCHAR 0161
ENCODING 353
SWIDTH 612 0
DWIDTH 17 0
BBX 13 21 2 0
BITMAP
30E0
18C0
1D80
0F00
0700
0000
0000
3FC0
7DE0
6070
E070
7000
7E00
3FC0
0FF0
0070
0038
E038
E070
7FF0
3FC0
ENDCHAR
STARTCHAR 0162
ENCODING 354
SWIDTH 612 0
DWIDTH 17 0
BBX 15 25 1 -6
BITMAP
FFFE
FFFE
0380
0380
0380
0380
0380
0380
0380
0380
0380
0380
0380
0380
0380
0380
0380
0380
0380
0000
01C0
00C0
00C0
0FC0
0780
ENDCHAR
STARTCHAR 0163
ENCODING 355
SWIDTH 612 0
DWIDTH 17 0
BBX 14 25 1 -6
BITMAP
0600
0600
0600
0600
0600
FFFC
FFFC
0E00
0E00
0E00
0E00
0E00
0E00
0E00
0E00
0600
0704
07FC
03FC
0000
00E0
0030
0030
03F0
01C0
ENDCHAR
STARTCHAR 0164
ENCODING 356
SWIDTH 612 0
DWIDTH 17 0
BBX 15 25 1 0
BITMAP
1830
0C60
06C0
0380
0000
0000
FFFE
FFFE
0380
0380
0380
0380
0380
0380
0380
0380
0380
0380
0380
0380
0380
0380
0380
0380
0380
ENDCHAR
STARTCHAR 0165
ENCODING 357
SWIDTH 612 0
DWIDTH 17 0
BBX 14 22 1 0
BITMAP
0070
0070
0070
0610
0630
0630
0660
0600
FFFC
FFFC
0E00
0E00
0E00
0E00
0E00
0E00
0E00
0E00
0600
0704
07FC
03FC
ENDCHAR
STARTCHAR 0166
ENCODING 358
SWIDTH 612 0
DWIDTH 17 0
BBX 15 19 1 0
BITMAP
FFFE
FFFE
0380
0380
0380
0380
0380
0380
3FF8
3FF8
0380
0380
0380
0380
0380
0380
0380
0380
0380
ENDCHAR
STARTCHAR 0167
ENCODING 359
SWIDTH 612 0
DWIDTH 17 0
BBX 14 19 1 0
BITMAP
0600
0600
0600
0600
0600
FFFC
FFFC
0E00
0E00
0E00
7FF0
7FF0
0E00
0E00
0E00
0600
0704
07FC
03FC
ENDCHAR
STARTCHAR 0168
ENCODING 360
SWIDTH 612 0
DWIDTH 17 0
BBX 13 24 2 0
BITMAP
3E60
3FE0
6180
0000
0000
E038
E038
E038
E038
E038
E038
E038
E038
E038
E038
E038
E038
E038
E038
E038
E078
70F0
7FE0
1FC0
ENDCHAR
STARTCHAR 0169
ENCODING 361
SWIDTH 612 0
DWIDTH 17 0
BBX 14 20 2 0
BITMAP
3C60
7FE0
63C0
0000
0000
0000
E070
E070
E070
E070
E070
E070
E070
E070
E070
E070
E070
F0F0
7FBC
3F3C
ENDCHAR
STARTCHAR 016A
ENCODING 362
SWIDTH 612 0
DWIDTH 17 0
BBX 13 24 2 0
BITMAP
3FE0
3FE0
0000
0000
0000
E038
E038
E038
E038
E038
E038
E038
E038
E038
E038
E038
E038
E038
E038
E038
E078
70F0
7FE0
1FC0
ENDCHAR
STARTCHAR 016B
ENCODING 363
SWIDTH 612 0
DWIDTH 17 0
BBX 14 19 2 0
BITMAP
3FC0
3FC0
0000
0000
0000
E070
E070
E070
E070
E070
E070
E070
E070
E070
E070
E070
F0F0
7FBC
3F3C
ENDCHAR
STARTCHAR 016C
ENCODING 364
SWIDTH 612 0
DWIDTH 17 0
BBX 13 25 2 0
BITMAP
3060
30E0
1FC0
0F80
0000
0000
E038
E038
E038
E038
E038
E038
E038
E038
E038
E038
E038
E038
E038
E038
E038
E078
70F0
7FE0
1FC0
ENDCHAR
STARTCHAR 016D
ENCODING 365
SWIDTH 612 0
DWIDTH 17 0
BBX 14 20 2 0
BITMAP
7060
30C0
1F80
0400
0000
0000
E070
E070
E070
E070
E070
E070
E070
E070
E070
E070
E070
F0F0
7FBC
3F3C
ENDCHAR
STARTCHAR 016E
ENCODING 366
SWIDTH 612 0
DWIDTH 17 0
BBX 13 26 2 0
BITMAP
0F00
0980
1880
0980
0F80
0000
0000
E038
E038
E038
E038
E038
E038
E038
E038
E038
E038
E038
E038
E038
E038
E038
E078
70F0
7FE0
1FC0
ENDCHAR
STARTCHAR 016F
ENCODING 367
SWIDTH 612 0
DWIDTH 17 0
BBX 14 22 2 0
BITMAP
0700
0F80
1880
1880
0F80
0600
0000
0000
E070
E070
E070
E070
E070
E070
E070
E070
E070
E070
E070
F0F0
7FBC
3F3C
ENDCHAR
STARTCHAR 0170
ENCODING 368
SWIDTH 612 0
DWIDTH 17 0
BBX 13 25 2 0
BITMAP
0730
0660
0CE0
19C0
0000
0000
E038
E038
E038
E038
E038
E038
E038
E038
E038
E038
E038
E038
E038
E038
E038
E078
70F0
7FE0
1FC0
ENDCHAR
STARTCHAR 0171
ENCODING 369
SWIDTH 612 0
DWIDTH 17 0
BBX 14 21 2 0
BITMAP
0770
0E60
0CE0
18C0
1980
0000
0000
E070
E070
E070
E070
E070
E070
E070
E070
E070
E070
E070
F0F0
7FBC
3F3C
ENDCHAR
STARTCHAR 0172
ENCODING 370
SWIDTH 612 0
DWIDTH 17 0
BBX 13 23 2 -4
BITMAP
E038
E038
E038
E038
E038
E038
E038
E038
E038
E038
E038
E038
E038
E038
E038
E078
70F0
7FE0
1FC0
0300
0600
0720
03E0
ENDCHAR
STARTCHAR 0173
ENCODING 371
SWIDTH 612 0
DWIDTH 17 0
BBX 16 18 2 -4
BITMAP
E070
E070
E070
E070
E070
E070
E070
E070
E070
E070
E070
F0F0
7FBC
3F3C
0018
0030
0039
001E
ENDCHAR
STARTCHAR 0174
ENCODING 372
SWIDTH 612 0
DWIDTH 17 0
BBX 17 25 0 0
BITMAP
01C000
03E000
067000
0E3800
000000
000000
E1C380
E1C300
E1C300
61C300
61C300
73E700
736700
736700
736600
736600
326600
3E7E00
3E3E00
3E3E00
3E3C00
3E3C00
1E3C00
1C3C00
1C3C00
ENDCHAR
STARTCHAR 0175
ENCODING 373
SWIDTH 612 0
DWIDTH 17 0
BBX 17 21 0 0
BITMAP
01C000
03E000
077000
063000
0C1800
000000
000000
C1C380
E1C300
61C300
636300
636700
736600
336600
366600
363E00
3E3E00
3E3C00
1E3C00
1C3C00
1C1C00
ENDCHAR
STARTCHAR 0176
ENCODING 374
SWIDTH 612 0
DWIDTH 17 0
BBX 16 25 0 0
BITMAP
01C0
03E0
0670
0E38
0000
8000
7007
780E
380E
3C1C
1C1C
1E38
0E38
0770
0770
03E0
03E0
01C0
01C0
01C0
01C0
01C0
01C0
01C0
01C0
ENDCHAR
STARTCHAR 0177
ENCODING 375
SWIDTH 612 0
DWIDTH 17 0
BBX 14 26 1 -5
BITMAP
0380
07C0
0EE0
0C60
1830
0000
8000
701C
701C
3038
3838
3830
1C70
1C70
0C60
0EE0
0EC0
07C0
07C0
0380
0380
0300
0700
0600
7E00
7C00
ENDCHAR
STARTCHAR 0178
ENCODING 376
SWIDTH 612 0
DWIDTH 17 0
BBX 16 24 0 0
BITMAP
0E38
0E38
0E38
0000
8000
7007
780E
380E
3C1C
1C1C
1E38
0E38
0770
0770
03E0
03E0
01C0
01C0
01C0
01C0
01C0
01C0
01C0
01C0
ENDCHAR
STARTCHAR 0179
ENCODING 377
SWIDTH 612 0
DWIDTH 17 0
BBX 15 25 1 0
BITMAP
0070
00E0
01C0
0380
0000
0000
7FFC
7FFC
0038
0078
0070
00E0
01E0
01C0
03C0
0380
0700
0F00
0E00
1C00
3C00
3800
7000
FFFE
FFFE
ENDCHAR
STARTCHAR 017A
ENCODING 378
SWIDTH 612 0
DWIDTH 17 0
BBX 11 21 3 0
BITMAP
0380
0700
0600
0E00
0C00
0000
0000
FFE0
FFC0
0380
0380
0700
0F00
0E00
1C00
1C00
3800
7800
7000
FFE0
FFE0
ENDCHAR
STARTCHAR 017B
ENCODING 379
SWIDTH 612 0
DWIDTH 17 0
BBX 15 24 1 0
BITMAP
0380
0380
0380
0000
0000
7FFC
7FFC
0038
0078
0070
00E0
01E0
01C0
03C0
0380
0700
0F00
0E00
1C00
3C00
3800
7000
FFFE
FFFE
ENDCHAR
STARTCHAR 017C
ENCODING 380
SWIDTH 612 0
DWIDTH 17 0
BBX 11 20 3 0
BITMAP
0E00
0E00
0E00
0000
0000
0000
FFE0
FFC0
0380
0380
0700
0F00
0E00
1C00
1C00
3800
7800
7000
FFE0
FFE0
ENDCHAR
STARTCHAR 017D
ENCODING 381
SWIDTH 612 0
DWIDTH 17 0
BBX 15 25 1 0
BITMAP
1830
0C60
06C0
0380
0000
0000
7FFC
7FFC
0038
0078
0070
00E0
01E0
01C0
03C0
0380
0700
0F00
0E00
1C00
3C00
3800
7000
FFFE
FFFE
ENDCHAR
STARTCHAR 017E
ENCODING 382
SWIDTH 612 0
DWIDTH 17 0
BBX 11 21 3 0
BITMAP
61C0
3180
3B00
1E00
0E00
0000
0000
FFE0
FFC0
0380
0380
0700
0F00
0E00
1C00
1C00
3800
7800
7000
FFE0
FFE0
ENDCHAR
STARTCHAR 017F
ENCODING 383
SWIDTH 612 0
DWIDTH 17 0
BBX 13 20 2 0
BITMAP
01F8
07F8
0700
0E00
0E00
0E00
FE00
FE00
0E00
0E00
0E00
0E00
0E00
0E00
0E00
0E00
0E00
0E00
FFF8
FFF8
ENDCHAR
STARTCHAR 018F
ENCODING 399
SWIDTH 612 0
DWIDTH 17 0
BBX 15 19 1 0
BITMAP
1FE0
3FF8
7878
701C
E01C
E01C
000E
000E
000E
FFFE
FFFE
E00E
E00E
E01C
F01C
701C
7878
3FF0
1FE0
ENDCHAR
STARTCHAR 0191
ENCODING 401
SWIDTH 612 0
DWIDTH 17 0
BBX 15 24 -1 -5
BITMAP
1FFE
1FFE
1C00
1C00
1C00
1C00
1C00
1C00
1FFC
1FFC
1FFC
1C00
1C00
1C00
1C00
1C00
1C00
1C00
1C00
1C00
1C00
1C00
FC00
F800
ENDCHAR
STARTCHAR 0192
ENCODING 402
SWIDTH 612 0
DWIDTH 17 0
BBX 13 25 1 -5
BITMAP
00F8
01F8
01C0
0180
0380
0380
0FF0
0FF0
0380
0300
0300
0700
0700
0700
0700
0700
0600
0600
0E00
0E00
0E00
0E00
0E00
FC00
F800
ENDCHAR
STARTCHAR 0197
ENCODING 407
SWIDTH 612 0
DWIDTH 17 0
BBX 11 19 3 0
BITMAP
FFE0
FFE0
0E00
0E00
0E00
0E00
0E00
0E00
7FC0
7FC0
7FC0
0E00
0E00
0E00
0E00
0E00
0E00
FFE0
FFE0
ENDCHAR
STARTCHAR 019D
ENCODING 413
SWIDTH 612 0
DWIDTH 17 0
BBX 16 24 -1 -5
BITMAP
1C07
1E07
1E07
1F07
1F07
1F87
1F87
1DC7
1DC7
1CE7
1CE7
1C77
1C77
1C3F
1C3F
1C1F
1C1F
1C0F
1C0F
1C00
1C00
1C00
F800
F000
ENDCHAR
STARTCHAR 01A0
ENCODING 416
SWIDTH 612 0
DWIDTH 17 0
BBX 16 22 1 0
BITMAP
0007
0007
0006
1FEE
3FFC
7838
701C
E01C
E01C
E00E
E00E
E00E
E00E
E00E
E00E
E00E
E01C
E01C
701C
7878
3FF0
0FE0
ENDCHAR
STARTCHAR 01A1
ENCODING 417
SWIDTH 612 0
DWIDTH 17 0
BBX 15 17 2 0
BITMAP
000E
000E
000C
1FDC
7FF8
7070
E070
E038
E038
E038
E038
E038
E038
E070
7070
3FE0
1FC0
ENDCHAR
STARTCHAR 01AF
ENCODING 431
SWIDTH 612 0
DWIDTH 17 0
BBX 16 23 2 0
BITMAP
0007
0006
0006
000C
E038
E038
E038
E038
E038
E038
E038
E038
E038
E038
E038
E038
E038
E038
E038
E078
70F0
7FE0
1FC0
ENDCHAR
STARTCHAR 01B0
ENCODING 432
SWIDTH 612 0
DWIDTH 17 0
BBX 15 18 2 0
BITMAP
0006
000E
000E
001C
E078
E070
E070
E070
E070
E070
E070
E070
E070
E070
E070
F0F0
7FBC
3F3C
ENDCHAR
STARTCHAR 01C4
ENCODING 452
SWIDTH 612 0
DWIDTH 17 0
BBX 15 25 1 0
BITMAP
00C6
006C
003C
0038
0000
0000
FCFE
FEFE
CE0C
C70C
C31C
C31C
C318
C318
C338
C330
C330
C370
C360
C360
C3E0
C7E0
CEC0
FEFE
FCFE
ENDCHAR
STARTCHAR 01C5
ENCODING 453
SWIDTH 612 0
DWIDTH 17 0
BBX 15 20 1 0
BITMAP
00C6
FC6C
FE3C
CE38
C700
C300
C37E
C37E
C30C
C30C
C31C
C318
C338
C330
C330
C370
C760
CE60
FEFE
FCFE
ENDCHAR
STARTCHAR 01C6
ENCODING 454
SWIDTH 612 0
DWIDTH 17 0
BBX 16 20 0 0
BITMAP
03F3
03B3
039E
038C
0380
0380
7FBF
7FBF
E387
C386
C386
C38C
C38C
C39C
C398
C398
C3B0
E3B0
7FFF
3DFF
ENDCHAR
STARTCHAR 01C7
ENCODING 455
SWIDTH 612 0
DWIDTH 17 0
BBX 13 24 2 -5
BITMAP
E038
E038
E038
E038
E038
E038
E038
E038
E038
E038
E038
E038
E038
E038
E038
E038
E038
FF38
FF38
0038
3838
3870
3FF0
0FC0
ENDCHAR
STARTCHAR 01C8
ENCODING 456
SWIDTH 612 0
DWIDTH 17 0
BBX 13 25 2 -5
BITMAP
0078
E078
E078
E000
E000
E000
E070
E070
E070
E070
E070
E070
E070
E070
E070
E070
E070
E070
FFF0
FFF0
0070
0070
0870
0FF0
07C0
ENDCHAR
STARTCHAR 01C9
ENCODING 457
SWIDTH 612 0
DWIDTH 17 0
BBX 12 25 2 -5
BITMAP
E070
E070
E070
E000
E000
E000
E3F0
E3F0
E070
E070
E070
E070
E070
E070
E070
E070
E070
E070
E070
E070
0070
0070
0870
0FE0
0FC0
ENDCHAR
STARTCHAR 01CA
ENCODING 458
SWIDTH 612 0
DWIDTH 17 0
BBX 13 24 2 -5
BITMAP
E338
E338
E338
E338
F338
F338
D338
D338
DB38
DB38
CB38
CB38
CF38
CF38
C738
C738
C738
C738
C338
0038
3838
3870
1FF0
0FE0
ENDCHAR
STARTCHAR 01CB
ENCODING 459
SWIDTH 612 0
DWIDTH 17 0
BBX 13 25 2 -5
BITMAP
0038
E3B8
E3B8
E380
F380
F380
F3B8
F3B8
FBB8
FBB8
FBB8
EBB8
EFB8
EFB8
E7B8
E7B8
E7B8
E7B8
E3B8
E3B8
0038
0038
0438
07F0
03E0
ENDCHAR
STARTCHAR 01CC
ENCODING 460
SWIDTH 612 0
DWIDTH 17 0
BBX 15 25 1 -5
BITMAP
001E
001E
001E
0000
0000
0000
DF0C
FF0C
E30C
E38C
E38C
E38C
E38C
E38C
E38C
E38C
E38C
E38C
E38C
E38C
000C
000C
021C
01FC
01F8
ENDCHAR
STARTCHAR 01CD
ENCODING 461
SWIDTH 612 0
DWIDTH 17 0
BBX 16 25 0 0
BITMAP
0C18
0630
0360
01C0
0000
0000
03C0
03E0
03E0
07E0
0770
0670
0E70
0E38
0C38
1C38
1C1C
1C1C
3FFC
3FFE
3FFE
700E
7006
7007
E007
ENDCHAR
STARTCHAR 01CE
ENCODING 462
SWIDTH 612 0
DWIDTH 17 0
BBX 14 21 2 0
BITMAP
70E0
39C0
1D80
0F00
0600
0000
0000
3FC0
7FE0
E070
E070
0070
0070
3FF0
7C70
E070
E070
E0F0
E0F0
FFFC
7F3C
ENDCHAR
STARTCHAR 01CF
ENCODING 463
SWIDTH 612 0
DWIDTH 17 0
BBX 11 25 3 0
BITMAP
60C0
3180
1B00
0E00
0000
0000
FFE0
FFE0
0E00
0E00
0E00
0E00
0E00
0E00
0E00
0E00
0E00
0E00
0E00
0E00
0E00
0E00
0E00
FFE0
FFE0
ENDCHAR
STARTCHAR 01D0
ENCODING 464
SWIDTH 612 0
DWIDTH 17 0
BBX 12 21 3 0
BITMAP
70E0
3980
1B80
0F00
0600
0000
0000
FF00
FF00
0700
0700
0700
0700
0700
0700
0700
0700
0700
0700
FFF0
FFF0
ENDCHAR
STARTCHAR 01D1
ENCODING 465
SWIDTH 612 0
DWIDTH 17 0
BBX 15 25 1 0
BITMAP
1830
0C60
06C0
0380
0000
0000
1FE0
3FF8
7838
701C
E01C
E01C
E00E
E00E
E00E
E00E
E00E
E00E
E00E
E01C
E01C
701C
7878
3FF0
0FE0
ENDCHAR
STARTCHAR 01D2
ENCODING 466
SWIDTH 612 0
DWIDTH 17 0
BBX 13 21 2 0
BITMAP
30E0
18C0
1D80
0F00
0700
0000
0000
1FC0
7FE0
7070
E070
E038
E038
E038
E038
E038
E038
E070
7070
3FE0
1FC0
ENDCHAR
STARTCHAR 01D3
ENCODING 467
SWIDTH 612 0
DWIDTH 17 0
BBX 13 25 2 0
BITMAP
3060
18C0
0D80
0700
0000
0000
E038
E038
E038
E038
E038
E038
E038
E038
E038
E038
E038
E038
E038
E038
E038
E078
70F0
7FE0
1FC0
ENDCHAR
STARTCHAR 01D4
ENCODING 468
SWIDTH 612 0
DWIDTH 17 0
BBX 14 21 2 0
BITMAP
70E0
39C0
1D80
0F00
0600
0000
0000
E070
E070
E070
E070
E070
E070
E070
E070
E070
E070
E070
F0F0
7FBC
3F3C
ENDCHAR
STARTCHAR 01D5
ENCODING 469
SWIDTH 612 0
DWIDTH 17 0
BBX 13 28 2 0
BITMAP
3FE0
3FE0
0000
0000
39E0
39E0
39E0
0000
0000
E038
E038
E038
E038
E038
E038
E038
E038
E038
E038
E038
E038
E038
E038
E038
E078
70F0
7FE0
1FC0
ENDCHAR
STARTCHAR 01D6
ENCODING 470
SWIDTH 612 0
DWIDTH 17 0
BBX 14 23 2 0
BITMAP
3FE0
3FE0
0000
39E0
39E0
39E0
0000
0000
0000
E070
E070
E070
E070
E070
E070
E070
E070
E070
E070
E070
F0F0
7FBC
3F3C
ENDCHAR
STARTCHAR 01D7
ENCODING 471
SWIDTH 612 0
DWIDTH 17 0
BBX 13 29 2 0
BITMAP
01E0
0180
0300
0400
0000
78E0
78E0
78E0
0000
0000
E038
E038
E038
E038
E038
E038
E038
E038
E038
E038
E038
E038
E038
E038
E038
E078
70F0
7FE0
1FC0
ENDCHAR
STARTCHAR 01D8
ENCODING 472
SWIDTH 612 0
DWIDTH 17 0
BBX 14 26 2 0
BITMAP
00E0
01C0
0380
0700
0000
0000
78E0
78E0
78E0
0000
0000
0000
E070
E070
E070
E070
E070
E070
E070
E070
E070
E070
E070
F0F0
7FBC
3F3C
ENDCHAR
STARTCHAR 01D9
ENCODING 473
SWIDTH 612 0
DWIDTH 17 0
BBX 13 29 2 0
BITMAP
70E0
19C0
0F80
0700
0000
78E0
78E0
78E0
0000
0000
E038
E038
E038
E038
E038
E038
E038
E038
E038
E038
E038
E038
E038
E038
E038
E078
70F0
7FE0
1FC0
ENDCHAR
STARTCHAR 01DA
ENCODING 474
SWIDTH 612 0
DWIDTH 17 0
BBX 14 25 2 0
BITMAP
70E0
19C0
0F80
0700
0000
78E0
78E0
78E0
0000
0000
0000
E070
E070
E070
E070
E070
E070
E070
E070
E070
E070
E070
F0F0
7FBC
3F3C
ENDCHAR
STARTCHAR 01DB
ENCODING 475
SWIDTH 612 0
DWIDTH 17 0
BBX 13 29 2 0
BITMAP
3800
1C00
0E00
0000
0000
38E0
38E0
38E0
0000
0000
E038
E038
E038
E038
E038
E038
E038
E038
E038
E038
E038
E038
E038
E038
E038
E078
70F0
7FE0
1FC0
ENDCHAR
STARTCHAR 01DC
ENCODING 476
SWIDTH 612 0
DWIDTH 17 0
BBX 14 26 2 0
BITMAP
3800
1800
1C00
0E00
0000
0000
78E0
78E0
78E0
0000
0000
0000
E070
E070
E070
E070
E070
E070
E070
E070
E070
E070
E070
F0F0
7FBC
3F3C
ENDCHAR
STARTCHAR 01E4
ENCODING 484
SWIDTH 612 0
DWIDTH 17 0
BBX 16 19 1 0
BITMAP
1FE0
3FF8
7838
701C
E01C
E00C
E00C
E000
E000
E1FC
E1FC
E00C
E00C
E1FF
E1FF
701C
783C
3FF4
1FC6
ENDCHAR
STARTCHAR 01E5
ENCODING 485
SWIDTH 612 0
DWIDTH 17 0
BBX 17 22 0 -5
BITMAP
000300
000700
000E00
0FFC00
1E3C00
1C1C00
180C00
180C00
1C1C00
1E3C00
0FF800
1F8000
380000
380000
3FF000
1FFE00
3FFE00
F00780
FFFF80
700700
3FFE00
1FFC00
ENDCHAR
STARTCHAR 01E6
ENCODING 486
SWIDTH 612 0
DWIDTH 17 0
BBX 15 25 1 0
BITMAP
1830
0C60
06C0
0380
0000
0000
1FE0
3FF8
7838
701C
E01C
E00C
E00C
E000
E000
E1FC
E1FC
E00C
E00C
E00C
E01C
701C
783C
3FF4
1FC6
ENDCHAR
STARTCHAR 01E7
ENCODING 487
SWIDTH 612 0
DWIDTH 17 0
BBX 15 26 1 -5
BITMAP
1870
0C60
0EC0
0780
0386
000E
001C
1FF8
3C78
3838
3018
3018
3838
3C78
1FF0
3F00
7000
7000
7FE0
3FFC
7FFC
600E
E00E
E00E
7FFC
3FF8
ENDCHAR
STARTCHAR 01EA
ENCODING 490
SWIDTH 612 0
DWIDTH 17 0
BBX 15 23 1 -4
BITMAP
1FE0
3FF8
7838
701C
E01C
E01C
E00E
E00E
E00E
E00E
E00E
E00E
E00E
E01C
E01C
701C
7878
3FF0
0FE0
0180
0180
0390
01E0
ENDCHAR
STARTCHAR 01EB
ENCODING 491
SWIDTH 612 0
DWIDTH 17 0
BBX 13 18 2 -4
BITMAP
1FC0
7FE0
7070
E070
E038
E038
E038
E038
E038
E038
E070
7070
3FE0
1FC0
0300
0600
0640
03C0
ENDCHAR
STARTCHAR 01FA
ENCODING 506
SWIDTH 612 0
DWIDTH 17 0
BBX 16 31 0 0
BITMAP
0060
0060
00C0
0180
0000
03C0
0260
0620
0620
03E0
0000
0000
03C0
03E0
03E0
07E0
0770
0670
0E70
0E38
0C38
1C38
1C1C
1C1C
3FFC
3FFE
3FFE
700E
7006
7007
E007
ENDCHAR
STARTCHAR 01FB
ENCODING 507
SWIDTH 612 0
DWIDTH 17 0
BBX 14 27 2 0
BITMAP
0180
0380
0300
0600
0000
0700
0F80
1880
1880
0F80
0600
0000
0000
3FC0
7FE0
E070
E070
0070
0070
3FF0
7C70
E070
E070
E0F0
E0F0
FFFC
7F3C
ENDCHAR
STARTCHAR 01FC
ENCODING 508
SWIDTH 612 0
DWIDTH 17 0
BBX 16 25 0 0
BITMAP
001C
0038
0030
0060
0000
0000
03FF
03FF
07E0
07E0
06E0
0EE0
0EE0
0CE0
1CFE
1CFE
1CE0
38E0
3FE0
3FE0
7FE0
70E0
70E0
E0FF
E0FF
ENDCHAR
STARTCHAR 01FD
ENCODING 509
SWIDTH 612 0
DWIDTH 17 0
BBX 16 21 0 0
BITMAP
0070
00E0
00C0
01C0
0180
0000
0000
3F7E
7F7E
61C3
61C3
01C3
01C3
1FFF
79C0
61C0
E1C3
E1C3
63C3
7F7E
3E7C
ENDCHAR
STARTCHAR 01FE
ENCODING 510
SWIDTH 612 0
DWIDTH 17 0
BBX 15 27 1 -2
BITMAP
0070
00E0
01C0
0380
0006
000C
1FEC
3FF8
7838
703C
E07C
E07C
E0CE
E08E
E18E
E30E
E30E
E60E
E40E
EC1C
F81C
781C
7878
3FF0
6FE0
C000
C000
ENDCHAR
STARTCHAR 01FF
ENCODING 511
SWIDTH 612 0
DWIDTH 17 0
BBX 13 22 2 -1
BITMAP
01C0
0380
0300
0700
0600
0018
0030
1FE0
7FE0
70F0
E0F0
E1B8
E338
E238
E638
EC38
E838
F870
7070
3FE0
7FC0
C000
ENDCHAR
STARTCHAR 0200
ENCODING 512
SWIDTH 612 0
DWIDTH 17 0
BBX 16 25 0 0
BITMAP
3B80
1DC0
0CE0
0660
0010
0000
03C0
03E0
03E0
07E0
0770
0670
0E70
0E38
0C38
1C38
1C1C
1C1C
3FFC
3FFE
3FFE
700E
7006
7007
E007
ENDCHAR
STARTCHAR 0201
ENCODING 513
SWIDTH 612 0
DWIDTH 17 0
BBX 14 21 2 0
BITMAP
EE00
6700
7300
3180
19C0
0000
0000
3FC0
7FE0
E070
E070
0070
0070
3FF0
7C70
E070
E070
E0F0
E0F0
FFFC
7F3C
ENDCHAR
STARTCHAR 0202
ENCODING 514
SWIDTH 612 0
DWIDTH 17 0
BBX 16 25 0 0
BITMAP
03E0
0FF8
1C18
180C
0000
0000
03C0
03E0
03E0
07E0
0770
0670
0E70
0E38
0C38
1C38
1C1C
1C1C
3FFC
3FFE
3FFE
700E
7006
7007
E007
ENDCHAR
STARTCHAR 0203
ENCODING 515
SWIDTH 612 0
DWIDTH 17 0
BBX 14 21 2 0
BITMAP
0200
3FC0
70E0
6060
6060
0000
0000
3FC0
7FE0
E070
E070
0070
0070
3FF0
7C70
E070
E070
E0F0
E0F0
FFFC
7F3C
ENDCHAR
STARTCHAR 0204
ENCODING 516
SWIDTH 612 0
DWIDTH 17 0
BBX 13 25 2 0
BITMAP
E700
7300
3980
19C0
0400
0000
FFF8
FFF8
E000
E000
E000
E000
E000
E000
FFF0
FFF0
E000
E000
E000
E000
E000
E000
E000
FFF8
FFF8
ENDCHAR
STARTCHAR 0205
ENCODING 517
SWIDTH 612 0
DWIDTH 17 0
BBX 13 21 2 0
BITMAP
E600
7700
3380
1980
1CC0
0000
0000
1FC0
3FE0
7070
E030
E038
E038
FFF8
E000
E000
E038
E030
7070
3FE0
1FC0
ENDCHAR
STARTCHAR 0206
ENCODING 518
SWIDTH 612 0
DWIDTH 17 0
BBX 13 25 2 0
BITMAP
0F80
1FE0
3070
7030
0000
0000
FFF8
FFF8
E000
E000
E000
E000
E000
E000
FFF0
FFF0
E000
E000
E000
E000
E000
E000
E000
FFF8
FFF8
ENDCHAR
STARTCHAR 0207
ENCODING 519
SWIDTH 612 0
DWIDTH 17 0
BBX 13 21 2 0
BITMAP
0600
1FC0
38E0
7030
6030
0000
0000
1FC0
3FE0
7070
E030
E038
E038
FFF8
E000
E000
E038
E030
7070
3FE0
1FC0
ENDCHAR
STARTCHAR 0208
ENCODING 520
SWIDTH 612 0
DWIDTH 17 0
BBX 12 25 2 0
BITMAP
EE00
7700
3380
1980
0040
0000
7FF0
7FF0
0700
0700
0700
0700
0700
0700
0700
0700
0700
0700
0700
0700
0700
0700
0700
7FF0
7FF0
ENDCHAR
STARTCHAR 0209
ENCODING 521
SWIDTH 612 0
DWIDTH 17 0
BBX 12 21 3 0
BITMAP
CE00
E600
7300
3180
1980
0000
0000
FF00
FF00
0700
0700
0700
0700
0700
0700
0700
0700
0700
0700
FFF0
FFF0
ENDCHAR
STARTCHAR 020A
ENCODING 522
SWIDTH 612 0
DWIDTH 17 0
BBX 11 25 3 0
BITMAP
1F00
7FC0
E0C0
C060
0000
0000
FFE0
FFE0
0E00
0E00
0E00
0E00
0E00
0E00
0E00
0E00
0E00
0E00
0E00
0E00
0E00
0E00
0E00
FFE0
FFE0
ENDCHAR
STARTCHAR 020B
ENCODING 523
SWIDTH 612 0
DWIDTH 17 0
BBX 12 21 3 0
BITMAP
0600
3FC0
70E0
6060
6060
0000
0000
FF00
FF00
0700
0700
0700
0700
0700
0700
0700
0700
0700
0700
FFF0
FFF0
ENDCHAR
STARTCHAR 020C
ENCODING 524
SWIDTH 612 0
DWIDTH 17 0
BBX 15 25 1 0
BITMAP
7700
3B80
19C0
0CC0
0020
0000
1FE0
3FF8
7838
701C
E01C
E01C
E00E
E00E
E00E
E00E
E00E
E00E
E00E
E01C
E01C
701C
7878
3FF0
0FE0
ENDCHAR
STARTCHAR 020D
ENCODING 525
SWIDTH 612 0
DWIDTH 17 0
BBX 13 21 2 0
BITMAP
E600
6700
3300
3980
18C0
0000
0000
1FC0
7FE0
7070
E070
E038
E038
E038
E038
E038
E038
E070
7070
3FE0
1FC0
ENDCHAR
STARTCHAR 020E
ENCODING 526
SWIDTH 612 0
DWIDTH 17 0
BBX 15 25 1 0
BITMAP
07C0
1FF0
3830
3018
0000
0000
1FE0
3FF8
7838
701C
E01C
E01C
E00E
E00E
E00E
E00E
E00E
E00E
E00E
E01C
E01C
701C
7878
3FF0
0FE0
ENDCHAR
STARTCHAR 020F
ENCODING 527
SWIDTH 612 0
DWIDTH 17 0
BBX 13 21 2 0
BITMAP
0700
1FC0
38E0
6060
6030
0000
0000
1FC0
7FE0
7070
E070
E038
E038
E038
E038
E038
E038
E070
7070
3FE0
1FC0
ENDCHAR
STARTCHAR 0210
ENCODING 528
SWIDTH 612 0
DWIDTH 17 0
BBX 15 25 2 0
BITMAP
EE00
7300
3380
19C0
0000
0000
FFE0
FFF0
E078
E038
E01C
E01C
E018
E038
E0F0
FFE0
FFF0
E078
E038
E038
E038
E038
E038
E01C
E01E
ENDCHAR
STARTCHAR 0211
ENCODING 529
SWIDTH 612 0
DWIDTH 17 0
BBX 15 21 1 0
BITMAP
3380
3980
1CC0
0CE0
0660
0000
0000
FDF8
FFFC
0F1C
0E0E
0E0E
0E00
0E00
0E00
0E00
0E00
0E00
0E00
FFF8
FFF8
ENDCHAR
STARTCHAR 0212
ENCODING 530
SWIDTH 612 0
DWIDTH 17 0
BBX 15 25 2 0
BITMAP
0F80
3FE0
7060
6030
0000
0000
FFE0
FFF0
E078
E038
E01C
E01C
E018
E038
E0F0
FFE0
FFF0
E078
E038
E038
E038
E038
E038
E01C
E01E
ENDCHAR
STARTCHAR 0213
ENCODING 531
SWIDTH 612 0
DWIDTH 17 0
BBX 15 21 1 0
BITMAP
0100
0FF0
1C30
1818
1818
0000
0000
FDF8
FFFC
0F1C
0E0E
0E0E
0E00
0E00
0E00
0E00
0E00
0E00
0E00
FFF8
FFF8
ENDCHAR
STARTCHAR 0214
ENCODING 532
SWIDTH 612 0
DWIDTH 17 0
BBX 13 25 2 0
BITMAP
EE00
7700
3380
1980
0040
0000
E038
E038
E038
E038
E038
E038
E038
E038
E038
E038
E038
E038
E038
E038
E038
E078
70F0
7FE0
1FC0
ENDCHAR
STARTCHAR 0215
ENCODING 533
SWIDTH 612 0
DWIDTH 17 0
BBX 14 21 2 0
BITMAP
EE00
6700
7300
3180
19C0
0000
0000
E070
E070
E070
E070
E070
E070
E070
E070
E070
E070
E070
F0F0
7FBC
3F3C
ENDCHAR
STARTCHAR 0216
ENCODING 534
SWIDTH 612 0
DWIDTH 17 0
BBX 13 25 2 0
BITMAP
0F80
3FE0
7060
6030
0000
0000
E038
E038
E038
E038
E038
E038
E038
E038
E038
E038
E038
E038
E038
E038
E038
E078
70F0
7FE0
1FC0
ENDCHAR
STARTCHAR 0217
ENCODING 535
SWIDTH 612 0
DWIDTH 17 0
BBX 14 21 2 0
BITMAP
0200
3FC0
70E0
6060
6060
0000
0000
E070
E070
E070
E070
E070
E070
E070
E070
E070
E070
E070
F0F0
7FBC
3F3C
ENDCHAR
STARTCHAR 0218
ENCODING 536
SWIDTH 612 0
DWIDTH 17 0
BBX 15 28 1 -9
BITMAP
1FE0
3FF8
783C
701C
601C
7000
7000
7E00
3FE0
0FF8
01FC
003C
001E
E00E
E00E
E01C
783C
3FF8
1FF0
0000
0000
0380
0380
0380
0180
0100
0300
0200
ENDCHAR
STARTCHAR 0219
ENCODING 537
SWIDTH 612 0
DWIDTH 17 0
BBX 13 23 2 -9
BITMAP
3FC0
7DE0
6070
E070
7000
7E00
3FC0
0FF0
0070
0038
E038
E070
7FF0
3FC0
0000
0000
0700
0700
0700
0300
0200
0600
0400
ENDCHAR
STARTCHAR 021A
ENCODING 538
SWIDTH 612 0
DWIDTH 17 0
BBX 15 28 1 -9
BITMAP
FFFE
FFFE
0380
0380
0380
0380
0380
0380
0380
0380
0380
0380
0380
0380
0380
0380
0380
0380
0380
0000
0000
0380
0380
0380
0180
0100
0300
0200
ENDCHAR
STARTCHAR 021B
ENCODING 539
SWIDTH 612 0
DWIDTH 17 0
BBX 14 28 1 -9
BITMAP
0600
0600
0600
0600
0600
FFFC
FFFC
0E00
0E00
0E00
0E00
0E00
0E00
0E00
0E00
0600
0704
07FC
03FC
0000
0000
00C0
00C0
00C0
0040
00C0
00C0
0180
ENDCHAR
STARTCHAR 022A
ENCODING 554
SWIDTH 612 0
DWIDTH 17 0
BBX 15 28 1 0
BITMAP
1FF0
1FF0
0000
0000
1CF0
1CF0
1CF0
0000
0000
1FE0
3FF8
7838
701C
E01C
E01C
E00E
E00E
E00E
E00E
E00E
E00E
E00E
E01C
E01C
701C
7878
3FF0
0FE0
ENDCHAR
STARTCHAR 022B
ENCODING 555
SWIDTH 612 0
DWIDTH 17 0
BBX 13 23 2 0
BITMAP
3FE0
3FE0
0000
39E0
39E0
39E0
0000
0000
0000
1FC0
7FE0
7070
E070
E038
E038
E038
E038
E038
E038
E070
7070
3FE0
1FC0
ENDCHAR
STARTCHAR 022C
ENCODING 556
SWIDTH 612 0
DWIDTH 17 0
BBX 15 27 1 0
BITMAP
1FF0
0000
0000
1F18
3FF0
2040
0000
0000
1FE0
3FF8
7838
701C
E01C
E01C
E00E
E00E
E00E
E00E
E00E
E00E
E00E
E01C
E01C
701C
7878
3FF0
0FE0
ENDCHAR
STARTCHAR 022D
ENCODING 557
SWIDTH 612 0
DWIDTH 17 0
BBX 13 23 2 0
BITMAP
3FE0
0000
0000
3C30
7FE0
63C0
0000
0000
0000
1FC0
7FE0
7070
E070
E038
E038
E038
E038
E038
E038
E070
7070
3FE0
1FC0
ENDCHAR
STARTCHAR 0230
ENCODING 560
SWIDTH 612 0
DWIDTH 17 0
BBX 15 28 1 0
BITMAP
1FF0
1FF0
0000
0000
0780
0780
0780
0000
0000
1FE0
3FF8
7838
701C
E01C
E01C
E00E
E00E
E00E
E00E
E00E
E00E
E00E
E01C
E01C
701C
7878
3FF0
0FE0
ENDCHAR
STARTCHAR 0231
ENCODING 561
SWIDTH 612 0
DWIDTH 17 0
BBX 13 23 2 0
BITMAP
3FE0
3FE0
0000
0700
0700
0700
0000
0000
0000
1FC0
7FE0
7070
E070
E038
E038
E038
E038
E038
E038
E070
7070
3FE0
1FC0
ENDCHAR
STARTCHAR 0232
ENCODING 562
SWIDTH 612 0
DWIDTH 17 0
BBX 16 24 0 0
BITMAP
0FF8
0FF8
0000
0000
8000
7007
780E
380E
3C1C
1C1C
1E38
0E38
0770
0770
03E0
03E0
01C0
01C0
01C0
01C0
01C0
01C0
01C0
01C0
ENDCHAR
STARTCHAR 0233
ENCODING 563
SWIDTH 612 0
DWIDTH 17 0
BBX 14 24 1 -5
BITMAP
1FF0
1FF0
0000
0000
8000
701C
701C
3038
3838
3830
1C70
1C70
0C60
0EE0
0EC0
07C0
07C0
0380
0380
0300
0700
0600
7E00
7C00
ENDCHAR
STARTCHAR 0237
ENCODING 567
SWIDTH 612 0
DWIDTH 17 0
BBX 8 19 3 -5
BITMAP
FF
FF
07
07
07
07
07
07
07
07
07
07
07
07
07
06
8E
FE
FC
ENDCHAR
STARTCHAR 0244
ENCODING 580
SWIDTH 612 0
DWIDTH 17 0
BBX 17 19 0 0
BITMAP
380E00
380E00
380E00
380E00
380E00
380E00
380E00
FFFF80
FFFF80
380E00
380E00
380E00
380E00
380E00
380E00
381E00
1C3C00
1FF800
07F000
ENDCHAR
STARTCHAR 0259
ENCODING 601
SWIDTH 612 0
DWIDTH 17 0
BBX 13 14 2 0
BITMAP
3FC0
7FE0
6070
E070
E038
0038
FFF8
FFF8
E038
E038
E070
7070
3FE0
1FC0
ENDCHAR
STARTCHAR 0268
ENCODING 616
SWIDTH 612 0
DWIDTH 17 0
BBX 12 20 3 0
BITMAP
0600
0600
0600
0000
0000
0000
FF00
FF00
0700
0700
0700
7FE0
7FE0
0700
0700
0700
0700
0700
FFF0
FFF0
ENDCHAR
STARTCHAR 026A
ENCODING 618
SWIDTH 612 0
DWIDTH 17 0
BBX 9 14 4 0
BITMAP
FF80
FF80
1C00
1C00
1C00
1C00
1C00
1C00
1C00
1C00
1C00
1C00
FF80
FF80
ENDCHAR
STARTCHAR 0272
ENCODING 626
SWIDTH 612 0
DWIDTH 17 0
BBX 15 19 -1 -5
BITMAP
1DFC
1FFE
1E0E
1E0E
1C06
1C06
1C06
1C06
1C06
1C06
1C06
1C06
1C06
1C06
1C00
1C00
1C00
FC00
F800
ENDCHAR
STARTCHAR 0289
ENCODING 649
SWIDTH 612 0
DWIDTH 17 0
BBX 16 14 0 0
BITMAP
381C
381C
381C
381C
381C
FFFF
FFFF
381C
381C
381C
381C
3C3C
1FEF
0FCF
ENDCHAR
STARTCHAR 02B9
ENCODING 697
SWIDTH 612 0
DWIDTH 17 0
BBX 4 4 6 16
BITMAP
70
70
60
E0
ENDCHAR
STARTCHAR 02BA
ENCODING 698
SWIDTH 612 0
DWIDTH 17 0
BBX 8 4 4 16
BITMAP
73
67
66
E6
ENDCHAR
STARTCHAR 02BC
ENCODING 700
SWIDTH 612 0
DWIDTH 17 0
BBX 3 6 7 15
BITMAP
E0
E0
E0
40
40
C0
ENDCHAR
STARTCHAR 02C6
ENCODING 710
SWIDTH 612 0
DWIDTH 17 0
BBX 9 5 4 16
BITMAP
1C00
3E00
7600
E300
C180
ENDCHAR
STARTCHAR 02C7
ENCODING 711
SWIDTH 612 0
DWIDTH 17 0
BBX 9 5 4 16
BITMAP
C380
6300
7600
3C00
1C00
ENDCHAR
STARTCHAR 02C9
ENCODING 713
SWIDTH 612 0
DWIDTH 17 0
BBX 9 1 4 19
BITMAP
FF80
ENDCHAR
STARTCHAR 02CD
ENCODING 717
SWIDTH 612 0
DWIDTH 17 0
BBX 9 1 4 -4
BITMAP
FF80
ENDCHAR
STARTCHAR 02D8
ENCODING 728
SWIDTH 612 0
DWIDTH 17 0
BBX 9 4 4 16
BITMAP
C180
E300
7F00
0800
ENDCHAR
STARTCHAR 02D9
ENCODING 729
SWIDTH 612 0
DWIDTH 17 0
BBX 3 3 7 17
BITMAP
E0
E0
E0
ENDCHAR
STARTCHAR 02DA
ENCODING 730
SWIDTH 612 0
DWIDTH 17 0
BBX 6 6 5 16
BITMAP
38
7C
C4
C4
7C
38
ENDCHAR
STARTCHAR 02DB
ENCODING 731
SWIDTH 612 0
DWIDTH 17 0
BBX 5 4 6 -4
BITMAP
E0
C0
C8
F8
ENDCHAR
STARTCHAR 02DC
ENCODING 732
SWIDTH 612 0
DWIDTH 17 0
BBX 10 3 3 17
BITMAP
7C40
7FC0
C780
ENDCHAR
STARTCHAR 02DD
ENCODING 733
SWIDTH 612 0
DWIDTH 17 0
BBX 10 5 3 16
BITMAP
1DC0
3980
3380
6700
C600
ENDCHAR
STARTCHAR 0300
ENCODING 768
SWIDTH 0 0
DWIDTH 0 0
BBX 5 5 6 16
BITMAP
E0
60
70
30
18
ENDCHAR
STARTCHAR 0301
ENCODING 769
SWIDTH 0 0
DWIDTH 0 0
BBX 5 5 6 16
BITMAP
38
70
60
E0
C0
ENDCHAR
STARTCHAR 0302
ENCODING 770
SWIDTH 0 0
DWIDTH 0 0
BBX 9 5 4 16
BITMAP
1C00
3E00
7600
E300
C180
ENDCHAR
STARTCHAR 0303
ENCODING 771
SWIDTH 0 0
DWIDTH 0 0
BBX 10 3 3 17
BITMAP
7C40
7FC0
C780
ENDCHAR
STARTCHAR 0304
ENCODING 772
SWIDTH 0 0
DWIDTH 0 0
BBX 9 2 4 17
BITMAP
FF80
FF80
ENDCHAR
STARTCHAR 0306
ENCODING 774
SWIDTH 0 0
DWIDTH 0 0
BBX 9 4 4 16
BITMAP
C180
E300
7F00
0800
ENDCHAR
STARTCHAR 0307
ENCODING 775
SWIDTH 0 0
DWIDTH 0 0
BBX 3 3 7 17
BITMAP
E0
E0
E0
ENDCHAR
STARTCHAR 0308
ENCODING 776
SWIDTH 0 0
DWIDTH 0 0
BBX 9 3 4 17
BITMAP
E380
E380
E380
ENDCHAR
STARTCHAR 0309
ENCODING 777
SWIDTH 0 0
DWIDTH 0 0
BBX 5 6 6 16
BITMAP
E0
F0
18
18
30
70
ENDCHAR
STARTCHAR 030A
ENCODING 778
SWIDTH 0 0
DWIDTH 0 0
BBX 6 6 5 16
BITMAP
38
7C
C4
C4
7C
38
ENDCHAR
STARTCHAR 030B
ENCODING 779
SWIDTH 0 0
DWIDTH 0 0
BBX 10 5 3 16
BITMAP
1DC0
3980
3380
6700
C600
ENDCHAR
STARTCHAR 030C
ENCODING 780
SWIDTH 0 0
DWIDTH 0 0
BBX 9 5 4 16
BITMAP
C380
6300
7600
3C00
1C00
ENDCHAR
STARTCHAR 030F
ENCODING 783
SWIDTH 0 0
DWIDTH 0 0
BBX 10 5 3 16
BITMAP
E700
7300
3380
19C0
0CC0
ENDCHAR
STARTCHAR 0311
ENCODING 785
SWIDTH 0 0
DWIDTH 0 0
BBX 10 5 3 16
BITMAP
0600
3F80
71C0
C0C0
C040
ENDCHAR
STARTCHAR 0312
ENCODING 786
SWIDTH 0 0
DWIDTH 0 0
BBX 3 7 7 17
BITMAP
60
40
C0
C0
E0
E0
E0
ENDCHAR
STARTCHAR 0313
ENCODING 787
SWIDTH 0 0
DWIDTH 0 0
BBX 3 6 7 17
BITMAP
E0
E0
E0
60
40
C0
ENDCHAR
STARTCHAR 031B
ENCODING 795
SWIDTH 0 0
DWIDTH 0 0
BBX 5 5 6 13
BITMAP
38
38
30
70
C0
ENDCHAR
STARTCHAR 0323
ENCODING 803
SWIDTH 0 0
DWIDTH 0 0
BBX 3 3 7 -5
BITMAP
E0
E0
E0
ENDCHAR
STARTCHAR 0324
ENCODING 804
SWIDTH 0 0
DWIDTH 0 0
BBX 9 3 4 -5
BITMAP
E380
E380
E380
ENDCHAR
STARTCHAR 0326
ENCODING 806
SWIDTH 0 0
DWIDTH 0 0
BBX 3 7 7 -9
BITMAP
E0
E0
E0
60
40
C0
80
ENDCHAR
STARTCHAR 0327
ENCODING 807
SWIDTH 0 0
DWIDTH 0 0
BBX 6 5 5 -6
BITMAP
1C
0C
0C
FC
78
ENDCHAR
STARTCHAR 0328
ENCODING 808
SWIDTH 0 0
DWIDTH 0 0
BBX 5 4 6 -4
BITMAP
E0
C0
C8
F8
ENDCHAR
STARTCHAR 032E
ENCODING 814
SWIDTH 0 0
DWIDTH 0 0
BBX 10 4 3 -6
BITMAP
C040
E0C0
7FC0
3F00
ENDCHAR
STARTCHAR 0330
ENCODING 816
SWIDTH 0 0
DWIDTH 0 0
BBX 10 3 3 -5
BITMAP
7C40
7FC0
C780
ENDCHAR
STARTCHAR 0331
ENCODING 817
SWIDTH 0 0
DWIDTH 0 0
BBX 9 1 4 -4
BITMAP
FF80
ENDCHAR
STARTCHAR 0335
ENCODING 821
SWIDTH 0 0
DWIDTH 0 0
BBX 11 2 3 9
BITMAP
FFE0
FFE0
ENDCHAR
STARTCHAR 0336
ENCODING 822
SWIDTH 0 0
DWIDTH 0 0
BBX 16 2 0 9
BITMAP
FFFF
FFFF
ENDCHAR
STARTCHAR 0337
ENCODING 823
SWIDTH 0 0
DWIDTH 0 0
BBX 11 7 3 7
BITMAP
0020
00E0
03C0
0F00
3C00
F000
C000
ENDCHAR
STARTCHAR 0338
ENCODING 824
SWIDTH 0 0
DWIDTH 0 0
BBX 13 17 2 -1
BITMAP
0018
0030
0060
0040
00C0
0080
0180
0300
0200
0600
0C00
0800
1800
1000
3000
6000
C000
ENDCHAR
STARTCHAR 0394
ENCODING 916
SWIDTH 612 0
DWIDTH 17 0
BBX 15 19 1 0
BITMAP
0780
07C0
07C0
0EC0
0EE0
0CE0
1CE0
1C70
1870
3870
3838
3838
7038
701C
701C
E01C
E00E
FFFE
FFFE
ENDCHAR
STARTCHAR 03A9
ENCODING 937
SWIDTH 612 0
DWIDTH 17 0
BBX 16 19 0 0
BITMAP
0FF0
1FFC
3C1E
380E
700F
7007
7007
7007
7007
7007
7007
7007
7007
7007
3006
300E
180C
FE3F
FE7F
ENDCHAR
STARTCHAR 03BC
ENCODING 956
SWIDTH 612 0
DWIDTH 17 0
BBX 14 18 2 -4
BITMAP
E070
E070
E070
E070
E070
E070
E070
E070
E070
E070
E070
F0F0
FFBC
FF3C
E000
E000
E000
E000
ENDCHAR
STARTCHAR 03C0
ENCODING 960
SWIDTH 612 0
DWIDTH 17 0
BBX 15 14 1 0
BITMAP
FFFE
FFFE
1838
1838
1838
1838
3838
3838
3838
3838
3038
3038
7038
7038
ENDCHAR
STARTCHAR 1E24
ENCODING 7716
SWIDTH 612 0
DWIDTH 17 0
BBX 13 24 2 -5
BITMAP
E038
E038
E038
E038
E038
E038
E038
E038
FFF8
FFF8
E038
E038
E038
E038
E038
E038
E038
E038
E038
0000
0000
0700
0700
0700
ENDCHAR
STARTCHAR 1E25
ENCODING 7717
SWIDTH 612 0
DWIDTH 17 0
BBX 12 25 2 -5
BITMAP
E000
E000
E000
E000
E000
E000
EFE0
FFF0
F070
F070
E030
E030
E030
E030
E030
E030
E030
E030
E030
E030
0000
0000
0700
0700
0700
ENDCHAR
STARTCHAR 1E62
ENCODING 7778
SWIDTH 612 0
DWIDTH 17 0
BBX 15 24 1 -5
BITMAP
1FE0
3FF8
783C
701C
601C
7000
7000
7E00
3FE0
0FF8
01FC
003C
001E
E00E
E00E
E01C
783C
3FF8
1FF0
0000
0000
0380
0380
0380
ENDCHAR
STARTCHAR 1E63
ENCODING 7779
SWIDTH 612 0
DWIDTH 17 0
BBX 13 19 2 -5
BITMAP
3FC0
7DE0
6070
E070
7000
7E00
3FC0
0FF0
0070
0038
E038
E070
7FF0
3FC0
0000
0000
0700
0700
0700
ENDCHAR
STARTCHAR 1E6C
ENCODING 7788
SWIDTH 612 0
DWIDTH 17 0
BBX 15 24 1 -5
BITMAP
FFFE
FFFE
0380
0380
0380
0380
0380
0380
0380
0380
0380
0380
0380
0380
0380
0380
0380
0380
0380
0000
0000
0380
0380
0380
ENDCHAR
STARTCHAR 1E6D
ENCODING 7789
SWIDTH 612 0
DWIDTH 17 0
BBX 14 24 1 -5
BITMAP
0600
0600
0600
0600
0600
FFFC
FFFC
0E00
0E00
0E00
0E00
0E00
0E00
0E00
0E00
0600
0704
07FC
03FC
0000
0000
01E0
01E0
01E0
ENDCHAR
STARTCHAR 1E80
ENCODING 7808
SWIDTH 612 0
DWIDTH 17 0
BBX 17 25 0 0
BITMAP
0E0000
070000
038000
01C000
000000
000000
E1C380
E1C300
E1C300
61C300
61C300
73E700
736700
736700
736600
736600
326600
3E7E00
3E3E00
3E3E00
3E3C00
3E3C00
1E3C00
1C3C00
1C3C00
ENDCHAR
STARTCHAR 1E81
ENCODING 7809
SWIDTH 612 0
DWIDTH 17 0
BBX 17 21 0 0
BITMAP
070000
030000
018000
018000
00C000
000000
000000
C1C380
E1C300
61C300
636300
636700
736600
336600
366600
363E00
3E3E00
3E3C00
1E3C00
1C3C00
1C1C00
ENDCHAR
STARTCHAR 1E82
ENCODING 7810
SWIDTH 612 0
DWIDTH 17 0
BBX 17 25 0 0
BITMAP
003800
007000
00E000
01C000
000000
000000
E1C380
E1C300
E1C300
61C300
61C300
73E700
736700
736700
736600
736600
326600
3E7E00
3E3E00
3E3E00
3E3C00
3E3C00
1E3C00
1C3C00
1C3C00
ENDCHAR
STARTCHAR 1E83
ENCODING 7811
SWIDTH 612 0
DWIDTH 17 0
BBX 17 21 0 0
BITMAP
007000
00E000
00C000
01C000
018000
000000
000000
C1C380
E1C300
61C300
636300
636700
736600
336600
366600
363E00
3E3E00
3E3C00
1E3C00
1C3C00
1C1C00
ENDCHAR
STARTCHAR 1E84
ENCODING 7812
SWIDTH 612 0
DWIDTH 17 0
BBX 17 24 0 0
BITMAP
0E3800
0E3800
0E3800
000000
000000
E1C380
E1C300
E1C300
61C300
61C300
73E700
736700
736700
736600
736600
326600
3E7E00
3E3E00
3E3E00
3E3C00
3E3C00
1E3C00
1C3C00
1C3C00
ENDCHAR
STARTCHAR 1E85
ENCODING 7813
SWIDTH 612 0
DWIDTH 17 0
BBX 17 20 0 0
BITMAP
0E3800
0E3800
0E3800
000000
000000
000000
C1C380
E1C300
61C300
636300
636700
736600
336600
366600
363E00
3E3E00
3E3C00
1E3C00
1C3C00
1C1C00
ENDCHAR
STARTCHAR 1E9E
ENCODING 7838
SWIDTH 612 0
DWIDTH 17 0
BBX 14 19 2 0
BITMAP
1FE0
3FF0
7878
F038
E038
E038
E038
E070
E3E0
E3E0
E070
E038
E018
E01C
E018
E038
E078
E7F0
E7E0
ENDCHAR
STARTCHAR 1EA0
ENCODING 7840
SWIDTH 612 0
DWIDTH 17 0
BBX 16 24 0 -5
BITMAP
03C0
03E0
03E0
07E0
0770
0670
0E70
0E38
0C38
1C38
1C1C
1C1C
3FFC
3FFE
3FFE
700E
7006
7007
E007
0000
0000
01C0
01C0
01C0
ENDCHAR
STARTCHAR 1EA1
ENCODING 7841
SWIDTH 612 0
DWIDTH 17 0
BBX 14 19 2 -5
BITMAP
3FC0
7FE0
E070
E070
0070
0070
3FF0
7C70
E070
E070
E0F0
E0F0
FFFC
7F3C
0000
0000
0700
0700
0700
ENDCHAR
STARTCHAR 1EA2
ENCODING 7842
SWIDTH 612 0
DWIDTH 17 0
BBX 16 27 0 0
BITMAP
0180
03E0
0260
0060
00E0
00C0
0000
0000
03C0
03E0
03E0
07E0
0770
0670
0E70
0E38
0C38
1C38
1C1C
1C1C
3FFC
3FFE
3FFE
700E
7006
7007
E007
ENDCHAR
STARTCHAR 1EA3
ENCODING 7843
SWIDTH 612 0
DWIDTH 17 0
BBX 14 22 2 0
BITMAP
0E00
0F80
0180
0180
0380
0700
0000
0000
3FC0
7FE0
E070
E070
0070
0070
3FF0
7C70
E070
E070
E0F0
E0F0
FFFC
7F3C
ENDCHAR
STARTCHAR 1EA4
ENCODING 7844
SWIDTH 612 0
DWIDTH 17 0
BBX 16 29 0 0
BITMAP
0070
00E0
00C0
0100
01C0
03E0
0770
1C38
0000
0000
03C0
03E0
03E0
07E0
0770
0670
0E70
0E38
0C38
1C38
1C1C
1C1C
3FFC
3FFE
3FFE
700E
7006
7007
E007
ENDCHAR
STARTCHAR 1EA5
ENCODING 7845
SWIDTH 612 0
DWIDTH 17 0
BBX 14 26 2 0
BITMAP
00C0
0180
0380
0300
0400
0600
0F00
1F80
38C0
7060
0000
0000
3FC0
7FE0
E070
E070
0070
0070
3FF0
7C70
E070
E070
E0F0
E0F0
FFFC
7F3C
ENDCHAR
STARTCHAR 1EA6
ENCODING 7846
SWIDTH 612 0
DWIDTH 17 0
BBX 16 29 0 0
BITMAP
0E00
0300
0180
0000
01C0
03E0
0770
1C38
0000
0000
03C0
03E0
03E0
07E0
0770
0670
0E70
0E38
0C38
1C38
1C1C
1C1C
3FFC
3FFE
3FFE
700E
7006
7007
E007
ENDCHAR
STARTCHAR 1EA7
ENCODING 7847
SWIDTH 612 0
DWIDTH 17 0
BBX 14 26 2 0
BITMAP
3800
1800
0C00
0E00
0000
0600
0F00
1F80
38C0
7060
0000
0000
3FC0
7FE0
E070
E070
0070
0070
3FF0
7C70
E070
E070
E0F0
E0F0
FFFC
7F3C
ENDCHAR
STARTCHAR 1EA8
ENCODING 7848
SWIDTH 612 0
DWIDTH 17 0
BBX 16 31 0 0
BITMAP
0180
01E0
0060
0060
00C0
0000
01C0
03E0
0770
1C38
0000
0000
03C0
03E0
03E0
07E0
0770
0670
0E70
0E38
0C38
1C38
1C1C
1C1C
3FFC
3FFE
3FFE
700E
7006
7007
E007
ENDCHAR
STARTCHAR 1EA9
ENCODING 7849
SWIDTH 612 0
DWIDTH 17 0
BBX 14 27 2 0
BITMAP
0E00
0F80
0180
0180
0300
0000
0600
0F00
1F80
38C0
7060
0000
0000
3FC0
7FE0
E070
E070
0070
0070
3FF0
7C70
E070
E070
E0F0
E0F0
FFFC
7F3C
ENDCHAR
STARTCHAR 1EAA
ENCODING 7850
SWIDTH 612 0
DWIDTH 17 0
BBX 16 29 0 0
BITMAP
0208
0FF8
1DF8
0000
01C0
03E0
0770
1C38
0000
0000
03C0
03E0
03E0
07E0
0770
0670
0E70
0E38
0C38
1C38
1C1C
1C1C
3FFC
3FFE
3FFE
700E
7006
7007
E007
ENDCHAR
STARTCHAR 1EAB
ENCODING 7851
SWIDTH 612 0
DWIDTH 17 0
BBX 14 25 2 0
BITMAP
0820
3FE0
7FC0
0000
0600
0F00
1F80
38C0
7060
0000
0000
3FC0
7FE0
E070
E070
0070
0070
3FF0
7C70
E070
E070
E0F0
E0F0
FFFC
7F3C
ENDCHAR
STARTCHAR 1EAC
ENCODING 7852
SWIDTH 612 0
DWIDTH 17 0
BBX 16 30 0 -5
BITMAP
01C0
03E0
0670
0E38
0000
0000
03C0
03E0
03E0
07E0
0770
0670
0E70
0E38
0C38
1C38
1C1C
1C1C
3FFC
3FFE
3FFE
700E
7006
7007
E007
0000
0000
01C0
01C0
01C0
ENDCHAR
STARTCHAR 1EAD
ENCODING 7853
SWIDTH 612 0
DWIDTH 17 0
BBX 14 26 2 -5
BITMAP
0F00
0F00
1980
38C0
70E0
0000
0000
3FC0
7FE0
E070
E070
0070
0070
3FF0
7C70
E070
E070
E0F0
E0F0
FFFC
7F3C
0000
0000
0700
0700
0700
ENDCHAR
STARTCHAR 1EAE
ENCODING 7854
SWIDTH 612 0
DWIDTH 17 0
BBX 16 29 0 0
BITMAP
0070
0060
00C0
01C0
1818
1C18
0FF0
03C0
0000
0000
03C0
03E0
03E0
07E0
0770
0670
0E70
0E38
0C38
1C38
1C1C
1C1C
3FFC
3FFE
3FFE
700E
7006
7007
E007
ENDCHAR
STARTCHAR 1EAF
ENCODING 7855
SWIDTH 612 0
DWIDTH 17 0
BBX 14 25 2 0
BITMAP
01C0
0180
0300
0700
0000
6060
3FC0
1F80
0000
0000
0000
3FC0
7FE0
E070
E070
0070
0070
3FF0
7C70
E070
E070
E0F0
E0F0
FFFC
7F3C
ENDCHAR
STARTCHAR 1EB0
ENCODING 7856
SWIDTH 612 0
DWIDTH 17 0
BBX 16 29 0 0
BITMAP
0E00
0300
0380
01C0
1818
0C18
0FF0
03C0
0000
0000
03C0
03E0
03E0
07E0
0770
0670
0E70
0E38
0C38
1C38
1C1C
1C1C
3FFC
3FFE
3FFE
700E
7006
7007
E007
ENDCHAR
STARTCHAR 1EB1
ENCODING 7857
SWIDTH 612 0
DWIDTH 17 0
BBX 14 25 2 0
BITMAP
3800
1C00
0C00
0600
0000
6060
3FC0
1F80
0000
0000
0000
3FC0
7FE0
E070
E070
0070
0070
3FF0
7C70
E070
E070
E0F0
E0F0
FFFC
7F3C
ENDCHAR
STARTCHAR 1EB2
ENCODING 7858
SWIDTH 612 0
DWIDTH 17 0
BBX 16 30 0 0
BITMAP
01C0
02E0
0060
00C0
0080
1818
0C18
0FF0
03C0
0000
0000
03C0
03E0
03E0
07E0
0770
0670
0E70
0E38
0C38
1C38
1C1C
1C1C
3FFC
3FFE
3FFE
700E
7006
7007
E007
ENDCHAR
STARTCHAR 1EB3
ENCODING 7859
SWIDTH 612 0
DWIDTH 17 0
BBX 14 26 2 0
BITMAP
0F00
0F00
0180
0100
0600
0000
6060
3FC0
1F80
0000
0000
0000
3FC0
7FE0
E070
E070
0070
0070
3FF0
7C70
E070
E070
E0F0
E0F0
FFFC
7F3C
ENDCHAR
STARTCHAR 1EB4
ENCODING 7860
SWIDTH 612 0
DWIDTH 17 0
BBX 16 29 0 0
BITMAP
0708
0FF8
19F0
0000
1818
0C18
0FF0
03C0
0000
0000
03C0
03E0
03E0
07E0
0770
0670
0E70
0E38
0C38
1C38
1C1C
1C1C
3FFC
3FFE
3FFE
700E
7006
7007
E007
ENDCHAR
STARTCHAR 1EB5
ENCODING 7861
SWIDTH 612 0
DWIDTH 17 0
BBX 14 25 2 0
BITMAP
0820
3FE0
7FC0
0000
0000
6060
3FC0
1F80
0000
0000
0000
3FC0
7FE0
E070
E070
0070
0070
3FF0
7C70
E070
E070
E0F0
E0F0
FFFC
7F3C
ENDCHAR
STARTCHAR 1EB6
ENCODING 7862
SWIDTH 612 0
DWIDTH 17 0
BBX 16 30 0 -5
BITMAP
0C18
0C38
07F0
03E0
0000
0000
03C0
03E0
03E0
07E0
0770
0670
0E70
0E38
0C38
1C38
1C1C
1C1C
3FFC
3FFE
3FFE
700E
7006
7007
E007
0000
0000
01C0
01C0
01C0
ENDCHAR
STARTCHAR 1EB7
ENCODING 7863
SWIDTH 612 0
DWIDTH 17 0
BBX 14 25 2 -5
BITMAP
6060
30C0
1F80
0400
0000
0000
3FC0
7FE0
E070
E070
0070
0070
3FF0
7C70
E070
E070
E0F0
E0F0
FFFC
7F3C
0000
0000
0700
0700
0700
ENDCHAR
STARTCHAR 1EB8
ENCODING 7864
SWIDTH 612 0
DWIDTH 17 0
BBX 13 24 2 -5
BITMAP
FFF8
FFF8
E000
E000
E000
E000
E000
E000
FFF0
FFF0
E000
E000
E000
E000
E000
E000
E000
FFF8
FFF8
0000
0000
0780
0780
0780
ENDCHAR
STARTCHAR 1EB9
ENCODING 7865
SWIDTH 612 0
DWIDTH 17 0
BBX 13 19 2 -5
BITMAP
1FC0
3FE0
7070
E030
E038
E038
FFF8
E000
E000
E038
E030
7070
3FE0
1FC0
0000
0000
0700
0700
0700
ENDCHAR
STARTCHAR 1EBA
ENCODING 7866
SWIDTH 612 0
DWIDTH 17 0
BBX 13 27 2 0
BITMAP
0200
0780
09C0
00C0
0380
0300
0000
0000
FFF8
FFF8
E000
E000
E000
E000
E000
E000
FFF0
FFF0
E000
E000
E000
E000
E000
E000
E000
FFF8
FFF8
ENDCHAR
STARTCHAR 1EBB
ENCODING 7867
SWIDTH 612 0
DWIDTH 17 0
BBX 13 22 2 0
BITMAP
0700
0F80
0180
0080
0180
0300
0000
0000
1FC0
3FE0
7070
E030
E038
E038
FFF8
E000
E000
E038
E030
7070
3FE0
1FC0
ENDCHAR
STARTCHAR 1EBC
ENCODING 7868
SWIDTH 612 0
DWIDTH 17 0
BBX 13 24 2 0
BITMAP
1F30
3FE0
20C0
0000
0000
FFF8
FFF8
E000
E000
E000
E000
E000
E000
FFF0
FFF0
E000
E000
E000
E000
E000
E000
E000
FFF8
FFF8
ENDCHAR
STARTCHAR 1EBD
ENCODING 7869
SWIDTH 612 0
DWIDTH 17 0
BBX 13 20 2 0
BITMAP
3E30
3FE0
23C0
4000
0000
0000
1FC0
3FE0
7070
E030
E038
E038
FFF8
E000
E000
E038
E030
7070
3FE0
1FC0
ENDCHAR
STARTCHAR 1EBE
ENCODING 7870
SWIDTH 612 0
DWIDTH 17 0
BBX 13 29 2 0
BITMAP
00E0
0180
0300
0000
0700
0F80
1DC0
3870
0000
0000
FFF8
FFF8
E000
E000
E000
E000
E000
E000
FFF0
FFF0
E000
E000
E000
E000
E000
E000
E000
FFF8
FFF8
ENDCHAR
STARTCHAR 1EBF
ENCODING 7871
SWIDTH 612 0
DWIDTH 17 0
BBX 13 26 2 0
BITMAP
00E0
01C0
0180
0300
0000
0700
0F80
0DC0
18C0
3060
0000
0000
1FC0
3FE0
7070
E030
E038
E038
FFF8
E000
E000
E038
E030
7070
3FE0
1FC0
ENDCHAR
STARTCHAR 1EC0
ENCODING 7872
SWIDTH 612 0
DWIDTH 17 0
BBX 13 29 2 0
BITMAP
1C00
0E00
0600
0100
0700
0F80
1DC0
3870
0000
0000
FFF8
FFF8
E000
E000
E000
E000
E000
E000
FFF0
FFF0
E000
E000
E000
E000
E000
E000
E000
FFF8
FFF8
ENDCHAR
STARTCHAR 1EC1
ENCODING 7873
SWIDTH 612 0
DWIDTH 17 0
BBX 13 26 2 0
BITMAP
3800
1C00
0C00
0600
0100
0700
0F80
0DC0
18C0
3060
0000
0000
1FC0
3FE0
7070
E030
E038
E038
FFF8
E000
E000
E038
E030
7070
3FE0
1FC0
ENDCHAR
STARTCHAR 1EC2
ENCODING 7874
SWIDTH 612 0
DWIDTH 17 0
BBX 13 31 2 0
BITMAP
0700
0780
0080
0080
0380
0000
0700
0F80
1DC0
3870
0000
0000
FFF8
FFF8
E000
E000
E000
E000
E000
E000
FFF0
FFF0
E000
E000
E000
E000
E000
E000
E000
FFF8
FFF8
ENDCHAR
STARTCHAR 1EC3
ENCODING 7875
SWIDTH 612 0
DWIDTH 17 0
BBX 13 27 2 0
BITMAP
0700
0780
0080
0180
0300
0000
0700
0F80
0DC0
18E0
3060
0000
0000
1FC0
3FE0
7070
E030
E038
E038
FFF8
E000
E000
E038
E030
7070
3FE0
1FC0
ENDCHAR
STARTCHAR 1EC4
ENCODING 7876
SWIDTH 612 0
DWIDTH 17 0
BBX 13 29 2 0
BITMAP
0C30
3FF0
37E0
0000
0300
0F80
1DC0
3870
0000
0000
FFF8
FFF8
E000
E000
E000
E000
E000
E000
FFF0
FFF0
E000
E000
E000
E000
E000
E000
E000
FFF8
FFF8
ENDCHAR
STARTCHAR 1EC5
ENCODING 7877
SWIDTH 612 0
DWIDTH 17 0
BBX 13 25 2 0
BITMAP
0C30
3FE0
37E0
4000
0700
0F80
0DC0
18C0
3060
0000
0000
1FC0
3FE0
7070
E030
E038
E038
FFF8
E000
E000
E038
E030
7070
3FE0
1FC0
ENDCHAR
STARTCHAR 1EC6
ENCODING 7878
SWIDTH 612 0
DWIDTH 17 0
BBX 13 30 2 -5
BITMAP
0700
0F80
1CC0
3860
0000
0000
FFF8
FFF8
E000
E000
E000
E000
E000
E000
FFF0
FFF0
E000
E000
E000
E000
E000
E000
E000
FFF8
FFF8
0000
0000
0780
0780
0780
ENDCHAR
STARTCHAR 1EC7
ENCODING 7879
SWIDTH 612 0
DWIDTH 17 0
BBX 13 26 2 -5
BITMAP
0700
0F80
1DC0
18C0
3060
0000
0000
1FC0
3FE0
7070
E030
E038
E038
FFF8
E000
E000
E038
E030
7070
3FE0
1FC0
0000
0000
0700
0700
0700
ENDCHAR
STARTCHAR 1EC8
ENCODING 7880
SWIDTH 612 0
DWIDTH 17 0
BBX 11 27 3 0
BITMAP
0C00
1F00
1300
0300
0700
0600
0000
0000
FFE0
FFE0
0E00
0E00
0E00
0E00
0E00
0E00
0E00
0E00
0E00
0E00
0E00
0E00
0E00
0E00
0E00
FFE0
FFE0
ENDCHAR
STARTCHAR 1EC9
ENCODING 7881
SWIDTH 612 0
DWIDTH 17 0
BBX 12 22 3 0
BITMAP
0E00
0F00
0180
0180
0300
0700
0000
0000
FF00
FF00
0700
0700
0700
0700
0700
0700
0700
0700
0700
0700
FFF0
FFF0
ENDCHAR
STARTCHAR 1ECA
ENCODING 7882
SWIDTH 612 0
DWIDTH 17 0
BBX 11 24 3 -5
BITMAP
FFE0
FFE0
0E00
0E00
0E00
0E00
0E00
0E00
0E00
0E00
0E00
0E00
0E00
0E00
0E00
0E00
0E00
FFE0
FFE0
0000
0000
0E00
0E00
0E00
ENDCHAR
STARTCHAR 1ECB
ENCODING 7883
SWIDTH 612 0
DWIDTH 17 0
BBX 12 25 3 -5
BITMAP
0600
0600
0600
0000
0000
0000
FF00
FF00
0700
0700
0700
0700
0700
0700
0700
0700
0700
0700
FFF0
FFF0
0000
0000
0F00
0F00
0F00
ENDCHAR
STARTCHAR 1ECC
ENCODING 7884
SWIDTH 612 0
DWIDTH 17 0
BBX 15 24 1 -5
BITMAP
1FE0
3FF8
7838
701C
E01C
E01C
E00E
E00E
E00E
E00E
E00E
E00E
E00E
E01C
E01C
701C
7878
3FF0
0FE0
0000
0000
0380
0380
0380
ENDCHAR
STARTCHAR 1ECD
ENCODING 7885
SWIDTH 612 0
DWIDTH 17 0
BBX 13 19 2 -5
BITMAP
1FC0
7FE0
7070
E070
E038
E038
E038
E038
E038
E038
E070
7070
3FE0
1FC0
0000
0000
0700
0700
0700
ENDCHAR
STARTCHAR 1ECE
ENCODING 7886
SWIDTH 612 0
DWIDTH 17 0
BBX 15 27 1 0
BITMAP
0300
07C0
04C0
00C0
01C0
0180
0000
0000
1FE0
3FF8
7838
701C
E01C
E01C
E00E
E00E
E00E
E00E
E00E
E00E
E00E
E01C
E01C
701C
7878
3FF0
0FE0
ENDCHAR
STARTCHAR 1ECF
ENCODING 7887
SWIDTH 612 0
DWIDTH 17 0
BBX 13 22 2 0
BITMAP
0600
0F80
0180
0180
0180
0300
0000
0000
1FC0
7FE0
7070
E070
E038
E038
E038
E038
E038
E038
E070
7070
3FE0
1FC0
ENDCHAR
STARTCHAR 1ED0
ENCODING 7888
SWIDTH 612 0
DWIDTH 17 0
BBX 15 29 1 0
BITMAP
00E0
01C0
0180
0200
0380
07C0
0EE0
3870
0000
0000
1FE0
3FF8
7838
701C
E01C
E01C
E00E
E00E
E00E
E00E
E00E
E00E
E00E
E01C
E01C
701C
7878
3FF0
0FE0
ENDCHAR
STARTCHAR 1ED1
ENCODING 7889
SWIDTH 612 0
DWIDTH 17 0
BBX 13 26 2 0
BITMAP
00E0
01C0
0180
0300
0400
0600
0F00
1D80
38C0
7060
0000
0000
1FC0
7FE0
7070
E070
E038
E038
E038
E038
E038
E038
E070
7070
3FE0
1FC0
ENDCHAR
STARTCHAR 1ED2
ENCODING 7890
SWIDTH 612 0
DWIDTH 17 0
BBX 15 29 1 0
BITMAP
1C00
0600
0300
0000
0380
07C0
0EE0
3870
0000
0000
1FE0
3FF8
7838
701C
E01C
E01C
E00E
E00E
E00E
E00E
E00E
E00E
E00E
E01C
E01C
701C
7878
3FF0
0FE0
ENDCHAR
STARTCHAR 1ED3
ENCODING 7891
SWIDTH 612 0
DWIDTH 17 0
BBX 13 26 2 0
BITMAP
3800
1C00
0C00
0600
0000
0600
0F00
1D80
38C0
7060
0000
0000
1FC0
7FE0
7070
E070
E038
E038
E038
E038
E038
E038
E070
7070
3FE0
1FC0
ENDCHAR
STARTCHAR 1ED4
ENCODING 7892
SWIDTH 612 0
DWIDTH 17 0
BBX 15 31 1 0
BITMAP
0300
03C0
00C0
00C0
0180
0000
0380
07C0
0EE0
3870
0000
0000
1FE0
3FF8
7838
701C
E01C
E01C
E00E
E00E
E00E
E00E
E00E
E00E
E00E
E01C
E01C
701C
7878
3FF0
0FE0
ENDCHAR
STARTCHAR 1ED5
ENCODING 7893
SWIDTH 612 0
DWIDTH 17 0
BBX 13 27 2 0
BITMAP
0700
0780
0180
0180
0300
0000
0700
0F00
1D80
38C0
7060
0000
0000
1FC0
7FE0
7070
E070
E038
E038
E038
E038
E038
E038
E070
7070
3FE0
1FC0
ENDCHAR
STARTCHAR 1ED6
ENCODING 7894
SWIDTH 612 0
DWIDTH 17 0
BBX 15 29 1 0
BITMAP
0410
1FF0
3BF0
0000
0380
07C0
0EE0
3870
0000
0000
1FE0
3FF8
7838
701C
E01C
E01C
E00E
E00E
E00E
E00E
E00E
E00E
E00E
E01C
E01C
701C
7878
3FF0
0FE0
ENDCHAR
STARTCHAR 1ED7
ENCODING 7895
SWIDTH 612 0
DWIDTH 17 0
BBX 13 25 2 0
BITMAP
1820
3FE0
77E0
0000
0600
0F00
1D80
38C0
7060
0000
0000
1FC0
7FE0
7070
E070
E038
E038
E038
E038
E038
E038
E070
7070
3FE0
1FC0
ENDCHAR
STARTCHAR 1ED8
ENCODING 7896
SWIDTH 612 0
DWIDTH 17 0
BBX 15 30 1 -5
BITMAP
0380
07C0
0CE0
1C70
0000
0000
1FE0
3FF8
7838
701C
E01C
E01C
E00E
E00E
E00E
E00E
E00E
E00E
E00E
E01C
E01C
701C
7878
3FF0
0FE0
0000
0000
0380
0380
0380
ENDCHAR
STARTCHAR 1ED9
ENCODING 7897
SWIDTH 612 0
DWIDTH 17 0
BBX 13 26 2 -5
BITMAP
0700
0F80
1D80
38C0
3060
0000
0000
1FC0
7FE0
7070
E070
E038
E038
E038
E038
E038
E038
E070
7070
3FE0
1FC0
0000
0000
0700
0700
0700
ENDCHAR
STARTCHAR 1EDA
ENCODING 7898
SWIDTH 612 0
DWIDTH 17 0
BBX 16 25 1 0
BITMAP
0070
00E0
01C0
0387
0007
0006
1FEE
3FFC
7838
701C
E01C
E01C
E00E
E00E
E00E
E00E
E00E
E00E
E00E
E01C
E01C
701C
7878
3FF0
0FE0
ENDCHAR
STARTCHAR 1EDB
ENCODING 7899
SWIDTH 612 0
DWIDTH 17 0
BBX 15 21 2 0
BITMAP
01C0
0380
0300
0700
060E
000E
000C
1FDC
7FF8
7070
E070
E038
E038
E038
E038
E038
E038
E070
7070
3FE0
1FC0
ENDCHAR
STARTCHAR 1EDC
ENCODING 7900
SWIDTH 612 0
DWIDTH 17 0
BBX 16 25 1 0
BITMAP
1C00
0E00
0700
0387
0007
0006
1FEE
3FFC
7838
701C
E01C
E01C
E00E
E00E
E00E
E00E
E00E
E00E
E00E
E01C
E01C
701C
7878
3FF0
0FE0
ENDCHAR
STARTCHAR 1EDD
ENCODING 7901
SWIDTH 612 0
DWIDTH 17 0
BBX 15 21 2 0
BITMAP
1C00
0C00
0E00
0600
030E
000E
000C
1FDC
7FF8
7070
E070
E038
E038
E038
E038
E038
E038
E070
7070
3FE0
1FC0
ENDCHAR
STARTCHAR 1EDE
ENCODING 7902
SWIDTH 612 0
DWIDTH 17 0
BBX 16 27 1 0
BITMAP
0300
07C0
04C0
00C0
01C0
0187
0007
0006
1FEE
3FFC
7838
701C
E01C
E01C
E00E
E00E
E00E
E00E
E00E
E00E
E00E
E01C
E01C
701C
7878
3FF0
0FE0
ENDCHAR
STARTCHAR 1EDF
ENCODING 7903
SWIDTH 612 0
DWIDTH 17 0
BBX 15 22 2 0
BITMAP
0600
0F80
0180
0180
0180
030E
000E
000C
1FDC
7FF8
7070
E070
E038
E038
E038
E038
E038
E038
E070
7070
3FE0
1FC0
ENDCHAR
STARTCHAR 1EE0
ENCODING 7904
SWIDTH 612 0
DWIDTH 17 0
BBX 16 24 1 0
BITMAP
0F30
1FE0
10C7
0007
0006
1FEE
3FFC
7838
701C
E01C
E01C
E00E
E00E
E00E
E00E
E00E
E00E
E00E
E01C
E01C
701C
7878
3FF0
0FE0
ENDCHAR
STARTCHAR 1EE1
ENCODING 7905
SWIDTH 612 0
DWIDTH 17 0
BBX 15 20 2 0
BITMAP
1E60
3FC0
23C0
000E
000E
000C
1FDC
7FF8
7070
E070
E038
E038
E038
E038
E038
E038
E070
7070
3FE0
1FC0
ENDCHAR
STARTCHAR 1EE2
ENCODING 7906
SWIDTH 612 0
DWIDTH 17 0
BBX 16 27 1 -5
BITMAP
0007
0007
0006
1FEE
3FFC
7838
701C
E01C
E01C
E00E
E00E
E00E
E00E
E00E
E00E
E00E
E01C
E01C
701C
7878
3FF0
0FE0
0000
0000
0380
0380
0380
ENDCHAR
STARTCHAR 1EE3
ENCODING 7907
SWIDTH 612 0
DWIDTH 17 0
BBX 15 22 2 -5
BITMAP
000E
000E
000C
1FDC
7FF8
7070
E070
E038
E038
E038
E038
E038
E038
E070
7070
3FE0
1FC0
0000
0000
0700
0700
0700
ENDCHAR
STARTCHAR 1EE4
ENCODING 7908
SWIDTH 612 0
DWIDTH 17 0
BBX 13 24 2 -5
BITMAP
E038
E038
E038
E038
E038
E038
E038
E038
E038
E038
E038
E038
E038
E038
E038
E078
70F0
7FE0
1FC0
0000
0000
0700
0700
0700
ENDCHAR
STARTCHAR 1EE5
ENCODING 7909
SWIDTH 612 0
DWIDTH 17 0
BBX 14 19 2 -5
BITMAP
E070
E070
E070
E070
E070
E070
E070
E070
E070
E070
E070
F0F0
7FBC
3F3C
0000
0000
0F00
0F00
0F00
ENDCHAR
STARTCHAR 1EE6
ENCODING 7910
SWIDTH 612 0
DWIDTH 17 0
BBX 13 27 2 0
BITMAP
0600
0F80
0980
0180
0380
0300
0000
0000
E038
E038
E038
E038
E038
E038
E038
E038
E038
E038
E038
E038
E038
E038
E038
E078
70F0
7FE0
1FC0
ENDCHAR
STARTCHAR 1EE7
ENCODING 7911
SWIDTH 612 0
DWIDTH 17 0
BBX 14 22 2 0
BITMAP
0E00
0F80
0180
0180
0380
0700
0000
0000
E070
E070
E070
E070
E070
E070
E070
E070
E070
E070
E070
F0F0
7FBC
3F3C
ENDCHAR
STARTCHAR 1EE8
ENCODING 7912
SWIDTH 612 0
DWIDTH 17 0
BBX 16 25 2 0
BITMAP
00E0
01C0
0387
0706
0006
000C
E038
E038
E038
E038
E038
E038
E038
E038
E038
E038
E038
E038
E038
E038
E038
E078
70F0
7FE0
1FC0
ENDCHAR
STARTCHAR 1EE9
ENCODING 7913
SWIDTH 612 0
DWIDTH 17 0
BBX 15 21 2 0
BITMAP
0380
0300
0300
0606
060E
000E
001C
E078
E070
E070
E070
E070
E070
E070
E070
E070
E070
E070
F0F0
7FBC
3F3C
ENDCHAR
STARTCHAR 1EEA
ENCODING 7914
SWIDTH 612 0
DWIDTH 17 0
BBX 16 25 2 0
BITMAP
3800
1C00
0E07
0706
0006
000C
E038
E038
E038
E038
E038
E038
E038
E038
E038
E038
E038
E038
E038
E038
E038
E078
70F0
7FE0
1FC0
ENDCHAR
STARTCHAR 1EEB
ENCODING 7915
SWIDTH 612 0
DWIDTH 17 0
BBX 15 21 2 0
BITMAP
1C00
0C00
0C00
0606
060E
000E
001C
E078
E070
E070
E070
E070
E070
E070
E070
E070
E070
E070
F0F0
7FBC
3F3C
ENDCHAR
STARTCHAR 1EEC
ENCODING 7916
SWIDTH 612 0
DWIDTH 17 0
BBX 16 27 2 0
BITMAP
0600
0F80
0980
0180
0387
0306
0006
000C
E038
E038
E038
E038
E038
E038
E038
E038
E038
E038
E038
E038
E038
E038
E038
E078
70F0
7FE0
1FC0
ENDCHAR
STARTCHAR 1EED
ENCODING 7917
SWIDTH 612 0
DWIDTH 17 0
BBX 15 22 2 0
BITMAP
0E00
0F80
0180
0180
0386
070E
000E
001C
E078
E070
E070
E070
E070
E070
E070
E070
E070
E070
E070
F0F0
7FBC
3F3C
ENDCHAR
STARTCHAR 1EEE
ENCODING 7918
SWIDTH 612 0
DWIDTH 17 0
BBX 16 24 2 0
BITMAP
3E60
3FE7
6186
0006
000C
E038
E038
E038
E038
E038
E038
E038
E038
E038
E038
E038
E038
E038
E038
E038
E078
70F0
7FE0
1FC0
ENDCHAR
STARTCHAR 1EEF
ENCODING 7919
SWIDTH 612 0
DWIDTH 17 0
BBX 15 20 2 0
BITMAP
3C60
3FC0
23C6
000E
000E
001C
E078
E070
E070
E070
E070
E070
E070
E070
E070
E070
E070
F0F0
7FBC
3F3C
ENDCHAR
STARTCHAR 1EF0
ENCODING 7920
SWIDTH 612 0
DWIDTH 17 0
BBX 16 28 2 -5
BITMAP
0007
0006
0006
000C
E038
E038
E038
E038
E038
E038
E038
E038
E038
E038
E038
E038
E038
E038
E038
E078
70F0
7FE0
1FC0
0000
0000
0700
0700
0700
ENDCHAR
STARTCHAR 1EF1
ENCODING 7921
SWIDTH 612 0
DWIDTH 17 0
BBX 15 23 2 -5
BITMAP
0006
000E
000E
001C
E078
E070
E070
E070
E070
E070
E070
E070
E070
E070
E070
F0F0
7FBC
3F3C
0000
0000
0F00
0F00
0F00
ENDCHAR
STARTCHAR 1EF2
ENCODING 7922
SWIDTH 612 0
DWIDTH 17 0
BBX 16 25 0 0
BITMAP
0E00
0700
0380
01C0
0000
8000
7007
780E
380E
3C1C
1C1C
1E38
0E38
0770
0770
03E0
03E0
01C0
01C0
01C0
01C0
01C0
01C0
01C0
01C0
ENDCHAR
STARTCHAR 1EF3
ENCODING 7923
SWIDTH 612 0
DWIDTH 17 0
BBX 14 26 1 -5
BITMAP
0E00
0700
0300
0300
0180
0000
8000
701C
701C
3038
3838
3830
1C70
1C70
0C60
0EE0
0EC0
07C0
07C0
0380
0380
0300
0700
0600
7E00
7C00
ENDCHAR
STARTCHAR 1EF4
ENCODING 7924
SWIDTH 612 0
DWIDTH 17 0
BBX 16 24 0 -5
BITMAP
F007
780E
380E
3C1C
1C1C
1E38
0E38
0770
0770
03E0
03E0
01C0
01C0
01C0
01C0
01C0
01C0
01C0
01C0
0000
0000
01C0
01C0
01C0
ENDCHAR
STARTCHAR 1EF5
ENCODING 7925
SWIDTH 612 0
DWIDTH 17 0
BBX 14 19 1 -5
BITMAP
F01C
701C
3038
3838
3830
1C70
1C70
0C60
0EE0
0EC0
07C0
07C0
0380
0380
0300
0700
061C
7E1C
7C1C
ENDCHAR
STARTCHAR 1EF6
ENCODING 7926
SWIDTH 612 0
DWIDTH 17 0
BBX 16 27 0 0
BITMAP
0180
03E0
0260
0060
00E0
00C0
0000
8000
7007
780E
380E
3C1C
1C1C
1E38
0E38
0770
0770
03E0
03E0
01C0
01C0
01C0
01C0
01C0
01C0
01C0
01C0
ENDCHAR
STARTCHAR 1EF7
ENCODING 7927
SWIDTH 612 0
DWIDTH 17 0
BBX 14 27 1 -5
BITMAP
0380
07C0
00C0
0060
00C0
0180
0000
8000
701C
701C
3038
3838
3830
1C70
1C70
0C60
0EE0
0EC0
07C0
07C0
0380
0380
0300
0700
0600
7E00
7C00
ENDCHAR
STARTCHAR 1EF8
ENCODING 7928
SWIDTH 612 0
DWIDTH 17 0
BBX 16 24 0 0
BITMAP
0F98
0FF8
1860
0000
8000
7007
780E
380E
3C1C
1C1C
1E38
0E38
0770
0770
03E0
03E0
01C0
01C0
01C0
01C0
01C0
01C0
01C0
01C0
ENDCHAR
STARTCHAR 1EF9
ENCODING 7929
SWIDTH 612 0
DWIDTH 17 0
BBX 14 25 1 -5
BITMAP
0F18
1FF0
11E0
0000
0000
8000
701C
701C
3038
3838
3830
1C70
1C70
0C60
0EE0
0EC0
07C0
07C0
0380
0380
0300
0700
0600
7E00
7C00
ENDCHAR
STARTCHAR 2009
ENCODING 8201
SWIDTH 612 0
DWIDTH 17 0
BBX 0 0 0 0
BITMAP
ENDCHAR
STARTCHAR 2010
ENCODING 8208
SWIDTH 612 0
DWIDTH 17 0
BBX 7 3 5 6
BITMAP
FE
FE
FE
ENDCHAR
STARTCHAR 2011
ENCODING 8209
SWIDTH 612 0
DWIDTH 17 0
BBX 7 3 5 6
BITMAP
FE
FE
FE
ENDCHAR
STARTCHAR 2013
ENCODING 8211
SWIDTH 612 0
DWIDTH 17 0
BBX 11 3 3 6
BITMAP
FFE0
FFE0
FFE0
ENDCHAR
STARTCHAR 2014
ENCODING 8212
SWIDTH 612 0
DWIDTH 17 0
BBX 17 3 0 6
BITMAP
FFFF80
FFFF80
FFFF80
ENDCHAR
STARTCHAR 2018
ENCODING 8216
SWIDTH 612 0
DWIDTH 17 0
BBX 3 8 7 11
BITMAP
60
C0
C0
C0
E0
E0
E0
E0
ENDCHAR
STARTCHAR 2019
ENCODING 8217
SWIDTH 612 0
DWIDTH 17 0
BBX 3 8 7 12
BITMAP
E0
E0
E0
E0
60
60
C0
C0
ENDCHAR
STARTCHAR 201A
ENCODING 8218
SWIDTH 612 0
DWIDTH 17 0
BBX 3 8 7 -4
BITMAP
E0
E0
E0
E0
60
60
C0
C0
ENDCHAR
STARTCHAR 201C
ENCODING 8220
SWIDTH 612 0
DWIDTH 17 0
BBX 9 8 4 11
BITMAP
6180
6300
C300
C600
E780
E780
E780
E780
ENDCHAR
STARTCHAR 201D
ENCODING 8221
SWIDTH 612 0
DWIDTH 17 0
BBX 9 8 4 12
BITMAP
E780
E780
E780
E780
6180
6100
6300
C600
ENDCHAR
STARTCHAR 201E
ENCODING 8222
SWIDTH 612 0
DWIDTH 17 0
BBX 9 8 4 -4
BITMAP
E780
E780
E780
E780
6180
6100
6300
C600
ENDCHAR
STARTCHAR 2020
ENCODING 8224
SWIDTH 612 0
DWIDTH 17 0
BBX 13 24 2 -5
BITMAP
0700
0600
0600
0600
0600
FFF8
FFF8
0200
0600
0600
0600
0600
0600
0600
0600
0600
0600
0600
0600
0600
0700
0700
0700
0700
ENDCHAR
STARTCHAR 2021
ENCODING 8225
SWIDTH 612 0
DWIDTH 17 0
BBX 13 24 2 -5
BITMAP
0700
0600
0600
0600
0600
FFF8
FFF8
0600
0600
0600
0600
0700
0700
0600
0600
0600
8208
FFF8
FFF8
0600
0600
0600
0600
0700
ENDCHAR
STARTCHAR 2022
ENCODING 8226
SWIDTH 612 0
DWIDTH 17 0
BBX 9 9 4 5
BITMAP
1C00
7E00
7F00
FF00
FF80
FF00
7F00
7E00
1800
ENDCHAR
STARTCHAR 2026
ENCODING 8230
SWIDTH 612 0
DWIDTH 17 0
BBX 14 3 1 0
BITMAP
E39C
E39C
E39C
ENDCHAR
STARTCHAR 2030
ENCODING 8240
SWIDTH 612 0
DWIDTH 17 0
BBX 15 19 1 0
BITMAP
3C00
6E00
C600
C600
C600
C600
EE00
7C00
0000
FFFE
0000
7C78
EECC
C6C6
C686
C686
C6C4
7CFC
3878
ENDCHAR
STARTCHAR 2032
ENCODING 8242
SWIDTH 612 0
DWIDTH 17 0
BBX 4 5 6 14
BITMAP
70
70
60
60
C0
ENDCHAR
STARTCHAR 2033
ENCODING 8243
SWIDTH 612 0
DWIDTH 17 0
BBX 8 5 4 14
BITMAP
77
77
66
66
C6
ENDCHAR
STARTCHAR 2039
ENCODING 8249
SWIDTH 612 0
DWIDTH 17 0
BBX 5 9 6 5
BITMAP
18
30
70
E0
E0
E0
60
30
38
ENDCHAR
STARTCHAR 203A
ENCODING 8250
SWIDTH 612 0
DWIDTH 17 0
BBX 5 9 6 5
BITMAP
C0
60
70
30
38
30
70
60
C0
ENDCHAR
STARTCHAR 2044
ENCODING 8260
SWIDTH 612 0
DWIDTH 17 0
BBX 17 19 0 0
BITMAP
000380
000600
000600
000C00
001800
001000
003000
006000
000000
000000
000000
030000
060000
0C0000
080000
180000
300000
600000
E00000
ENDCHAR
STARTCHAR 2052
ENCODING 8274
SWIDTH 612 0
DWIDTH 17 0
BBX 16 24 0 -4
BITMAP
0003
0007
0006
1C0C
1C0C
1C18
0038
0030
0070
0060
00E0
00C0
0180
0380
0300
0700
0600
0E00
0C00
181C
181C
301C
7000
E000
ENDCHAR
STARTCHAR 2070
ENCODING 8304
SWIDTH 612 0
DWIDTH 17 0
BBX 7 11 5 11
BITMAP
7C
C4
C6
86
86
86
86
86
C6
7C
10
ENDCHAR
STARTCHAR 2074
ENCODING 8308
SWIDTH 612 0
DWIDTH 17 0
BBX 8 10 4 12
BITMAP
18
32
34
24
64
C4
FF
FF
04
04
ENDCHAR
STARTCHAR 2075
ENCODING 8309
SWIDTH 612 0
DWIDTH 17 0
BBX 8 11 4 11
BITMAP
7E
60
60
68
7E
63
03
C3
63
7E
18
ENDCHAR
STARTCHAR 2076
ENCODING 8310
SWIDTH 612 0
DWIDTH 17 0
BBX 8 11 4 11
BITMAP
3E
66
C3
C0
FE
E7
C3
C3
63
7E
08
ENDCHAR
STARTCHAR 2077
ENCODING 8311
SWIDTH 612 0
DWIDTH 17 0
BBX 7 10 5 12
BITMAP
FE
FE
0C
08
18
30
30
20
60
60
ENDCHAR
STARTCHAR 2078
ENCODING 8312
SWIDTH 612 0
DWIDTH 17 0
BBX 7 11 5 11
BITMAP
7C
CE
C6
C6
7C
FC
C6
86
C6
FC
10
ENDCHAR
STARTCHAR 2079
ENCODING 8313
SWIDTH 612 0
DWIDTH 17 0
BBX 8 11 4 11
BITMAP
7C
66
C3
C3
C7
7F
03
C3
46
7E
10
ENDCHAR
STARTCHAR 207F
ENCODING 8319
SWIDTH 612 0
DWIDTH 17 0
BBX 7 8 5 11
BITMAP
BE
C6
C6
C6
C6
C6
C6
C6
ENDCHAR
STARTCHAR 2080
ENCODING 8320
SWIDTH 612 0
DWIDTH 17 0
BBX 7 11 5 -6
BITMAP
7C
C4
C6
86
86
86
86
86
C6
7C
10
ENDCHAR
STARTCHAR 2081
ENCODING 8321
SWIDTH 612 0
DWIDTH 17 0
BBX 6 10 5 -5
BITMAP
30
F0
30
30
30
30
30
30
30
FC
ENDCHAR
STARTCHAR 2082
ENCODING 8322
SWIDTH 612 0
DWIDTH 17 0
BBX 7 10 5 -5
BITMAP
7C
CE
86
86
0E
1C
30
60
C0
FE
ENDCHAR
STARTCHAR 2083
ENCODING 8323
SWIDTH 612 0
DWIDTH 17 0
BBX 8 11 4 -6
BITMAP
3E
67
43
03
1E
1E
03
C3
63
7E
18
ENDCHAR
STARTCHAR 2084
ENCODING 8324
SWIDTH 612 0
DWIDTH 17 0
BBX 8 10 4 -5
BITMAP
18
32
34
24
64
C4
FF
FF
04
04
ENDCHAR
STARTCHAR 2085
ENCODING 8325
SWIDTH 612 0
DWIDTH 17 0
BBX 8 11 4 -6
BITMAP
7E
60
60
68
7E
63
03
C3
63
7E
18
ENDCHAR
STARTCHAR 2086
ENCODING 8326
SWIDTH 612 0
DWIDTH 17 0
BBX 8 11 4 -6
BITMAP
3E
66
C3
C0
FE
E7
C3
C3
63
7E
08
ENDCHAR
STARTCHAR 2087
ENCODING 8327
SWIDTH 612 0
DWIDTH 17 0
BBX 7 10 5 -5
BITMAP
FE
FE
0C
08
18
30
30
20
60
60
ENDCHAR
STARTCHAR 2088
ENCODING 8328
SWIDTH 612 0
DWIDTH 17 0
BBX 7 11 5 -6
BITMAP
7C
CE
C6
C6
7C
FC
C6
86
C6
FC
10
ENDCHAR
STARTCHAR 2089
ENCODING 8329
SWIDTH 612 0
DWIDTH 17 0
BBX 8 11 4 -6
BITMAP
7C
66
C3
C3
C7
7F
03
C3
46
7E
10
ENDCHAR
STARTCHAR 2099
ENCODING 8345
SWIDTH 612 0
DWIDTH 17 0
BBX 7 8 5 -3
BITMAP
BE
C6
C6
C6
C6
C6
C6
C6
ENDCHAR
STARTCHAR 20A1
ENCODING 8353
SWIDTH 612 0
DWIDTH 17 0
BBX 15 23 1 -2
BITMAP
0066
006C
03FC
0FFC
1F98
3D98
7990
7130
7330
E320
E660
E660
E6C0
ECC0
7CC0
7980
7980
3D00
1F00
3FF0
33F0
6600
2200
ENDCHAR
STARTCHAR 20A3
ENCODING 8355
SWIDTH 612 0
DWIDTH 17 0
BBX 14 19 1 0
BITMAP
7FFC
7FF8
7000
7000
7000
7000
7000
7000
7FF0
7FF0
7FF0
7000
7000
FF80
FF80
7000
7000
7000
7000
ENDCHAR
STARTCHAR 20A4
ENCODING 8356
SWIDTH 612 0
DWIDTH 17 0
BBX 15 19 1 0
BITMAP
07F0
0FF8
1E1C
1C0C
1C0C
1C02
1C00
FFE0
FFE0
1C00
1C00
FFE0
FFE0
1800
1800
1800
1800
FFFC
FFFC
ENDCHAR
STARTCHAR 20A6
ENCODING 8358
SWIDTH 612 0
DWIDTH 17 0
BBX 16 19 0 0
BITMAP
380E
3C0E
3C0E
3E0E
3E0E
3F0E
FFFF
FFFF
3B8E
39CE
39CE
FFFF
FFFF
387E
387E
383E
383E
381E
381E
ENDCHAR
STARTCHAR 20A7
ENCODING 8359
SWIDTH 612 0
DWIDTH 17 0
BBX 16 19 1 0
BITMAP
7FF0
7FF8
703C
701C
700E
FFFF
FFFF
701E
703C
7FF8
7FF0
7000
7000
7000
7000
7000
7000
7000
7000
ENDCHAR
STARTCHAR 20A9
ENCODING 8361
SWIDTH 612 0
DWIDTH 17 0
BBX 17 19 0 0
BITMAP
E1C380
E1C300
E1C300
61C300
61C300
73E700
FFFF80
FFFF80
736600
736600
326600
FFFF80
FFFF80
3E3E00
3E3C00
3E3C00
1E3C00
1C3C00
1C3C00
ENDCHAR
STARTCHAR 20AB
ENCODING 8363
SWIDTH 612 0
DWIDTH 17 0
BBX 14 24 2 -4
BITMAP
0070
0070
07FC
07FC
0070
0070
3F70
7FF0
F0F0
E070
E070
C070
C070
C070
C070
E070
E070
70F0
7FB0
3F30
0000
0000
FFF0
FFF0
ENDCHAR
STARTCHAR 20AC
ENCODING 8364
SWIDTH 612 0
DWIDTH 17 0
BBX 14 19 1 0
BITMAP
01FC
03FC
0780
0F00
1E00
1C00
1C00
FFE0
FFE0
3800
3800
FFE0
1C00
1C00
1E00
0F00
0780
03FC
01FC
ENDCHAR
STARTCHAR 20AD
ENCODING 8365
SWIDTH 612 0
DWIDTH 17 0
BBX 15 19 1 0
BITMAP
701E
701C
7038
7078
7070
70E0
71C0
71C0
FFFE
FFFE
7380
71C0
70E0
70F0
7070
7038
703C
701C
701E
ENDCHAR
STARTCHAR 20B1
ENCODING 8369
SWIDTH 612 0
DWIDTH 17 0
BBX 18 19 0 0
BITMAP
3FF800
3FFC00
381E00
F80FC0
F807C0
380700
F807C0
F80FC0
381E00
3FFC00
3FF800
380000
380000
380000
380000
380000
380000
380000
380000
ENDCHAR
STARTCHAR 20B2
ENCODING 8370
SWIDTH 612 0
DWIDTH 17 0
BBX 15 23 1 -2
BITMAP
0300
0300
1FE0
3FF8
7B38
731C
E30C
E30C
E30C
E300
E300
E3FC
E3FC
E30C
E30C
E30C
E31C
731C
7B7C
3FF4
1FC6
0300
0300
ENDCHAR
STARTCHAR 20B5
ENCODING 8373
SWIDTH 612 0
DWIDTH 17 0
BBX 14 23 1 -2
BITMAP
0020
0060
1FE0
3FF8
78F8
70DC
E0DC
E09C
E18C
E180
E100
E300
E300
E200
E60C
E60C
E61C
7C1C
7C38
3FF0
0FE0
1800
1800
ENDCHAR
STARTCHAR 20B9
ENCODING 8377
SWIDTH 612 0
DWIDTH 17 0
BBX 16 19 1 0
BITMAP
FFFF
FFFE
01E0
00E0
FFFE
FFFC
0070
00E0
01E0
FFC0
FF80
7800
3C00
1E00
0F00
0780
0380
01C0
00F0
ENDCHAR
STARTCHAR 20BA
ENCODING 8378
SWIDTH 612 0
DWIDTH 17 0
BBX 14 19 1 0
BITMAP
3800
3800
3800
3880
3980
3F80
3E00
7880
F980
FF80
BF00
3C00
F81C
F81C
B81C
383C
38F8
3FF0
3FE0
ENDCHAR
STARTCHAR 20BC
ENCODING 8380
SWIDTH 612 0
DWIDTH 17 0
BBX 15 21 1 0
BITMAP
0300
0300
1FE0
3FF8
7B3C
F31C
E30E
E30E
C30E
C30E
C30E
C30E
C30E
C30E
C30E
C30E
C30E
C30E
C00E
C00E
C00E
ENDCHAR
STARTCHAR 20BD
ENCODING 8381
SWIDTH 612 0
DWIDTH 17 0
BBX 16 19 0 0
BITMAP
3FF8
3FFC
381E
380F
3807
3807
3807
380E
383E
FFFC
FFF8
3800
3800
FF80
FF80
3800
3800
3800
3800
ENDCHAR
STARTCHAR 2113
ENCODING 8467
SWIDTH 612 0
DWIDTH 17 0
BBX 11 19 2 0
BITMAP
0FC0
1FC0
3860
3860
3860
3860
3860
3860
3860
38C0
3BC0
FF00
FC00
3800
3800
3800
3800
1FC0
1FC0
ENDCHAR
STARTCHAR 2116
ENCODING 8470
SWIDTH 612 0
DWIDTH 17 0
BBX 15 19 1 0
BITMAP
E300
E300
E300
F300
F300
F300
F318
D33C
DB66
DB66
DB66
CB66
CF66
CF66
CF76
CF3C
C700
C77E
C77E
ENDCHAR
STARTCHAR 2117
ENCODING 8471
SWIDTH 612 0
DWIDTH 17 0
BBX 17 19 0 0
BITMAP
07F000
180800
300400
200200
47F300
463900
C61900
861900
861900
87F180
87C100
860100
C60100
460100
460300
200200
300400
181800
07F000
ENDCHAR
STARTCHAR 2122
ENCODING 8482
SWIDTH 612 0
DWIDTH 17 0
BBX 16 11 0 8
BITMAP
FDC3
FDC7
3145
3145
3165
316D
312D
3129
3129
3139
3139
ENDCHAR
STARTCHAR 2126
ENCODING 8486
SWIDTH 612 0
DWIDTH 17 0
BBX 16 19 0 0
BITMAP
0FF0
1FFC
3C1E
380E
700F
7007
7007
7007
7007
7007
7007
7007
7007
7007
3006
300E
180C
FE3F
FE7F
ENDCHAR
STARTCHAR 212E
ENCODING 8494
SWIDTH 612 0
DWIDTH 17 0
BBX 16 19 0 0
BITMAP
07F0
1E3C
380C
7006
7007
7007
F007
F007
F007
FFFF
F000
F000
F000
7000
7000
3002
3807
1E3C
07F8
ENDCHAR
STARTCHAR 2202
ENCODING 8706
SWIDTH 612 0
DWIDTH 17 0
BBX 14 19 1 0
BITMAP
0FE0
0FF0
0078
0038
0018
001C
001C
0F9C
3FDC
787C
703C
E01C
E01C
E01C
6018
7038
7878
3FF0
0FC0
ENDCHAR
STARTCHAR 2205
ENCODING 8709
SWIDTH 612 0
DWIDTH 17 0
BBX 14 14 1 2
BITMAP
0FCC
1FFC
3838
7078
60EC
61CC
C38C
E70C
6E0C
7C1C
3838
7EF0
EFE0
4100
ENDCHAR
STARTCHAR 2206
ENCODING 8710
SWIDTH 612 0
DWIDTH 17 0
BBX 15 19 1 0
BITMAP
0780
07C0
07C0
0EC0
0EE0
0CE0
1CE0
1C70
1870
3870
3838
3838
7038
701C
701C
E01C
E00E
FFFE
FFFE
ENDCHAR
STARTCHAR 220F
ENCODING 8719
SWIDTH 612 0
DWIDTH 17 0
BBX 17 23 0 -3
BITMAP
FFFF80
FFFF80
FFFF80
381C00
381C00
381C00
381C00
381C00
381C00
381C00
381C00
381C00
381C00
381C00
381C00
381C00
381C00
381C00
381C00
381C00
381C00
381C00
381C00
ENDCHAR
STARTCHAR 2211
ENCODING 8721
SWIDTH 612 0
DWIDTH 17 0
BBX 15 23 1 -3
BITMAP
FFFC
FFFC
7FFC
7800
3C00
1E00
0E00
0F00
0780
03C0
01C0
00E0
01C0
0380
0700
0F00
0E00
1C00
3800
7000
FFFE
FFFE
FFFE
ENDCHAR
STARTCHAR 2212
ENCODING 8722
SWIDTH 612 0
DWIDTH 17 0
BBX 14 3 1 6
BITMAP
FFFC
FFFC
FFFC
ENDCHAR
STARTCHAR 2215
ENCODING 8725
SWIDTH 612 0
DWIDTH 17 0
BBX 13 19 2 0
BITMAP
0018
0030
0020
0060
00C0
00C0
0180
0100
0300
0600
0600
0C00
0800
1800
3000
3000
6000
4000
C000
ENDCHAR
STARTCHAR 2219
ENCODING 8729
SWIDTH 612 0
DWIDTH 17 0
BBX 3 3 7 7
BITMAP
E0
E0
E0
ENDCHAR
STARTCHAR 221A
ENCODING 8730
SWIDTH 612 0
DWIDTH 17 0
BBX 15 27 1 -4
BITMAP
0006
000E
000E
000C
000C
000C
001C
0018
0018
0018
0018
0038
1030
7830
F830
B870
1C70
1C60
1C60
0E60
0EE0
0EC0
06C0
07C0
07C0
03C0
0380
ENDCHAR
STARTCHAR 221E
ENCODING 8734
SWIDTH 612 0
DWIDTH 17 0
BBX 15 9 1 3
BITMAP
7C7C
CEEC
C686
8386
8306
C386
C6C6
7C7C
3038
ENDCHAR
STARTCHAR 222B
ENCODING 8747
SWIDTH 612 0
DWIDTH 17 0
BBX 6 28 5 -7
BITMAP
0C
3C
30
30
30
30
30
30
30
30
30
30
30
30
30
30
38
38
38
38
38
18
18
18
18
18
70
E0
ENDCHAR
STARTCHAR 2248
ENCODING 8776
SWIDTH 612 0
DWIDTH 17 0
BBX 16 10 0 2
BITMAP
1E01
7FC3
F3FF
C07C
0000
0001
3F01
7FEF
E1FE
807C
ENDCHAR
STARTCHAR 2260
ENCODING 8800
SWIDTH 612 0
DWIDTH 17 0
BBX 14 14 1 0
BITMAP
0018
0030
0060
FFFC
FFFC
0180
0380
0300
0600
FFFC
FFFC
1800
3800
7000
ENDCHAR
STARTCHAR 2264
ENCODING 8804
SWIDTH 612 0
DWIDTH 17 0
BBX 14 14 1 0
BITMAP
001C
00FC
0FF0
7F80
F800
E000
FC00
3FC0
07F8
007C
000C
0000
FFFC
FFFC
ENDCHAR
STARTCHAR 2265
ENCODING 8805
SWIDTH 612 0
DWIDTH 17 0
BBX 14 14 2 0
BITMAP
E000
FC00
7F80
07F0
00FC
001C
01FC
0FE0
FF00
F800
C000
0000
FFFC
FFFC
ENDCHAR
STARTCHAR 25CA
ENCODING 9674
SWIDTH 612 0
DWIDTH 17 0
BBX 12 19 2 0
BITMAP
0700
0F80
0D80
1DC0
18C0
38C0
3060
7060
6030
E030
6070
7060
3060
38C0
18C0
1DC0
0D80
0F80
0700
ENDCHAR
STARTCHAR 27E8
ENCODING 10216
SWIDTH 612 0
DWIDTH 17 0
BBX 8 18 4 -1
BITMAP
03
02
06
0C
18
18
30
70
60
E0
70
30
18
18
0C
06
06
03
ENDCHAR
STARTCHAR 27E9
ENCODING 10217
SWIDTH 612 0
DWIDTH 17 0
BBX 8 18 4 -1
BITMAP
C0
60
30
18
18
0C
0E
06
03
03
06
06
0C
18
18
30
60
E0
ENDCHAR
STARTCHAR FB01
ENCODING 64257
SWIDTH 612 0
DWIDTH 17 0
BBX 14 20 0 0
BITMAP
0FBC
1FBC
1C3C
1C00
1C00
1C00
FFF8
FFF8
1C18
1C18
1C18
1C18
1C18
1C18
1C18
1C18
1C18
1C18
1C18
1C18
ENDCHAR
STARTCHAR FB02
ENCODING 64258
SWIDTH 612 0
DWIDTH 17 0
BBX 13 20 0 0
BITMAP
0F98
1F98
1C18
1C18
1C18
1C18
FF98
FF98
1C18
1C18
1C18
1C18
1C18
1C18
1C18
1C18
1C18
1C18
1C18
1C18
ENDCHAR
STARTCHAR FEFF
ENCODING 65279
SWIDTH 0 0
DWIDTH 0 0
BBX 0 0 0 0
BITMAP
ENDCHAR
ENDFONT
